<svg xmlns="http://www.w3.org/2000/svg" xmlns:xlink="http://www.w3.org/1999/xlink" id="body_1" preserveAspectRatio="xMinYMin meet" viewBox="0 0 1280 720"><defs><clipPath id="1"><path id="" clip-rule="evenodd" transform="matrix(1 0 0 1 0 0)" d="M0 540L0 0L0 0L960 0L960 0L960 540L960 540L0 540z" /></clipPath><clipPath id="2"><path id="" clip-rule="evenodd" transform="matrix(1 0 0 1 0 0)" d="M0 539.9999L960 539.9999L960 539.9999L960 -0.0001220703L960 -0.0001220703L0 -0.0001220703z" /></clipPath><clipPath id="3"><path id="" clip-rule="evenodd" transform="matrix(1 0 0 1 0 0)" d="M1.4305E-05 539.9998L960 539.9998L960 539.9998L960 -0.0001831055L960 -0.0001831055L1.4305E-05 -0.0001831055z" /></clipPath><clipPath id="4"><path id="" clip-rule="evenodd" transform="matrix(1 0 0 1 0 0)" d="M51.72 510.6L908.28 510.6L908.28 510.6L908.28 68.88L908.28 68.88L51.72 68.88z" /></clipPath></defs><g transform="matrix(1.333333 0 0 1.333333 0 0)"><g clip-path="url(#1)"><g clip-path="url(#2)"><path id="1" transform="matrix(1 0 0 -1 0 540)" d="M0 6.1035E-05L960 6.1035E-05L960 6.1035E-05L960 540.0001L960 540.0001L0 540.0001z" stroke="none" fill="#FFFFFF" fill-rule="evenodd" /></g><g clip-path="url(#3)"><g transform="matrix(0.5 0 0 0.5 0 -0.0001220703)"><g transform="matrix(1 0 0 1 0 0)"><image x="0" y="0" xlink:href="img_01.png" width="1920" height="1080" /></g></g></g><g clip-path="url(#4)"><g transform="matrix(0.7500525 0 0 0.7499491 51.72 68.88)"><g transform="matrix(1 0 0 1 0 0)"><image x="0" y="0" xlink:href="img_02.png" width="1142" height="589" /></g></g></g><path id="4" transform="matrix(1 0 0 -1 0 540)" d="M812.62 474.55L790.64 474.55L790.64 474.55L790.64 464.12L790.64 464.12L801.82 464.12L801.82 464.12L801.82 438.38C 799.74 437.42 797.58 436.16 795.36 434.58C 793.14 433.01 790.94 431.2 788.76 429.17L788.76 429.17L795.52 419.68C 797.73 422.48 799.92 424.96 802.11 427.14C 804.3 429.31 806.24 430.46 807.93 430.58C 809.09 430.51 810.47 429.98 812.08 428.98C 813.69 427.98 815.6 426.88 817.79 425.69C 821.23 424.02 825.11 422.85 829.42 422.17C 833.73 421.49 838.69 421.16 844.29 421.18C 847.42 421.19 850.95 421.24 854.88 421.34C 858.81 421.44 862.57 421.57 866.18 421.71C 869.78 421.85 872.67 421.99 874.83 422.12C 874.96 423.71 875.33 425.55 875.94 427.64C 876.55 429.73 877.18 431.52 877.83 433.02C 874.73 432.58 871.22 432.21 867.31 431.9C 863.4 431.59 859.46 431.36 855.5 431.2C 851.53 431.04 847.92 430.95 844.66 430.95C 839.57 430.92 834.91 431.15 830.68 431.67C 826.44 432.18 822.74 433.2 819.58 434.71C 818.09 435.47 816.79 436.17 815.68 436.81C 814.57 437.46 813.55 438.05 812.62 438.56zM821.93 482.35L821.93 436.68L821.93 436.68L869.09 436.68L869.09 436.68L869.09 482.35L869.09 482.35L847.77 482.35L847.77 482.35L850.49 487.89L850.49 487.89L875.95 487.89L875.95 487.89L875.95 497.01L875.95 497.01L860.73 497.01L860.73 497.01L866.46 505.28L866.46 505.28L855.66 508.28C 854.93 506.54 854.02 504.66 852.92 502.64C 851.83 500.62 850.7 498.75 849.55 497.01L849.55 497.01L834.8 497.01L834.8 497.01L839.59 499.07C 838.98 500.53 838.09 502.17 836.91 503.98C 835.74 505.8 834.56 507.48 833.39 509.03L833.39 509.03L823.9 505.09C 824.72 503.84 825.55 502.51 826.4 501.08C 827.25 499.66 828.02 498.3 828.69 497.01L828.69 497.01L815.72 497.01L815.72 497.01L815.72 487.89L815.72 487.89L838.46 487.89L838.46 487.89L837.15 482.35zM832.54 474.36L858.01 474.36L858.01 469.29L832.54 469.29zM832.54 449.84L858.01 449.84L858.01 444.67L832.54 444.67zM832.54 462.15L858.01 462.15L858.01 457.07L832.54 457.07zM790.64 499.17C 793.09 496.63 795.54 493.88 798 490.91C 800.46 487.94 802.33 485.31 803.6 483.01L803.6 483.01L812.91 489.3C 811.45 491.59 809.43 494.15 806.87 496.98C 804.3 499.81 801.78 502.42 799.28 504.81zM737.55 490.52L737.55 479.91L737.55 479.91L745.35 479.91C 745.35 474.65 745.01 468.88 744.34 462.6C 743.67 456.32 742.27 450.05 740.16 443.78C 738.04 437.51 734.82 431.76 730.5 426.54C 731.93 425.68 733.42 424.56 734.99 423.18C 736.56 421.8 737.82 420.54 738.77 419.4C 743.44 425.43 746.98 431.98 749.38 439.03C 751.78 446.08 753.4 453.14 754.26 460.21C 755.11 467.27 755.56 473.84 755.59 479.91L755.59 479.91L761.51 479.91L761.51 479.91L761.51 432.93C 761.51 428.69 762.26 425.77 763.78 424.19C 765.29 422.6 767.57 421.85 770.62 421.93L770.62 421.93L774.38 421.93C 778.25 421.85 780.85 423.15 782.18 425.83C 783.51 428.52 784.33 433.11 784.62 439.6C 783.26 439.94 781.74 440.48 780.07 441.23C 778.4 441.98 776.88 442.88 775.51 443.92C 775.48 438.99 775.33 435.62 775.08 433.81C 774.82 431.99 774.37 431.14 773.72 431.24L773.72 431.24L772.97 431.24C 772.63 431.19 772.31 431.37 772.02 431.76C 771.73 432.16 771.58 433.01 771.56 434.34L771.56 434.34L771.56 490.52L771.56 490.52L755.59 490.52L755.59 490.52L755.59 507.91L755.59 507.91L745.35 507.91L745.35 507.91L745.35 490.52zM699.12 457.45C 699.61 457.88 700.61 458.22 702.12 458.47C 703.62 458.72 705.26 458.85 707.01 458.86L707.01 458.86L716.22 458.86L716.22 458.86L716.22 448.71L716.22 448.71L695.08 445.8L695.08 445.8L697.34 434.71L697.34 434.71L716.22 438L716.22 438L716.22 420.24L716.22 420.24L726.93 420.24L726.93 420.24L726.93 439.97L726.93 439.97L736.99 441.85L736.99 441.85L736.42 451.81L736.42 451.81L726.93 450.31L726.93 450.31L726.93 458.86L726.93 458.86L736.14 458.86L736.14 458.86L736.14 469.01L736.14 469.01L726.93 469.01L726.93 469.01L726.93 482.35L726.93 482.35L716.22 482.35L716.22 482.35L716.22 469.01L716.22 469.01L709.36 469.01C 710.73 471.74 712.1 474.66 713.47 477.76C 714.84 480.86 716.17 484.08 717.44 487.42L717.44 487.42L735.48 487.42L735.48 487.42L735.48 498.04L735.48 498.04L721.11 498.04C 721.58 499.45 722.02 500.88 722.45 502.32C 722.87 503.75 723.27 505.18 723.64 506.59L723.64 506.59L711.81 508.94C 711.47 507.15 711.08 505.33 710.64 503.49C 710.2 501.65 709.74 499.83 709.27 498.04L709.27 498.04L696.3 498.04L696.3 498.04L696.3 487.42L696.3 487.42L705.98 487.42C 704.98 484.43 704.05 481.86 703.18 479.71C 702.32 477.55 701.63 475.99 701.09 475.02C 700.13 472.99 699.21 471.34 698.35 470.09C 697.48 468.83 696.51 468.03 695.46 467.69C 696.15 466.16 696.85 464.36 697.57 462.29C 698.29 460.22 698.8 458.6 699.12 457.45zM640.11 480.56L640.11 467.5L640.11 467.5L602.72 467.5L602.72 467.5L602.72 456.13L602.72 456.13L640.11 456.13L640.11 456.13L640.11 433.68C 640.13 432.9 639.93 432.35 639.53 432.03C 639.12 431.72 638.41 431.55 637.39 431.52C 636.23 431.46 634.13 431.45 631.09 431.48C 628.06 431.51 624.83 431.62 621.42 431.8C 622.4 430.12 623.35 428.19 624.27 426.01C 625.19 423.83 625.84 421.87 626.21 420.15C 630.52 420.08 634.32 420.17 637.59 420.43C 640.86 420.69 643.64 421.25 645.94 422.12C 648.16 422.98 649.71 424.29 650.59 426.07C 651.47 427.84 651.89 430.28 651.86 433.4L651.86 433.4L651.86 456.13L651.86 456.13L688.5 456.13L688.5 456.13L688.5 467.5L688.5 467.5L651.86 467.5L651.86 467.5L651.86 474.64C 657.34 477.67 662.72 481.13 668.01 485.03C 673.29 488.92 677.99 492.85 682.11 496.82L682.11 496.82L673.47 503.49L673.47 503.49L670.93 502.83L670.93 502.83L612.11 502.83L612.11 502.83L612.11 491.75L612.11 491.75L658.44 491.75C 655.62 489.65 652.63 487.62 649.45 485.66C 646.27 483.7 643.16 482 640.11 480.56zM569.17 507.25L558.65 503.11C 561.17 498.04 564.07 492.97 567.34 487.92C 570.61 482.86 574.08 478.13 577.72 473.71L577.72 473.71L527.83 473.71C 531.38 478.01 534.67 482.7 537.7 487.76C 540.73 492.83 543.36 498.11 545.59 503.58L545.59 503.58L533.38 507.06C 530.68 499.87 527.09 493.2 522.6 487.04C 518.12 480.87 513.09 475.77 507.54 471.73C 509 470.64 510.68 469.2 512.57 467.41C 514.47 465.62 515.99 464.08 517.12 462.81C 519.08 464.4 520.99 466.19 522.85 468.16L522.85 468.16L522.85 462.62L522.85 462.62L537.98 462.62C 537.4 458.05 536.24 453.7 534.5 449.56C 532.75 445.42 529.95 441.66 526.08 438.28C 522.22 434.89 516.82 432.04 509.89 429.73C 511.25 428.43 512.61 426.83 513.95 424.93C 515.29 423.03 516.32 421.31 517.03 419.77C 525.02 422.78 531.27 426.48 535.78 430.88C 540.3 435.28 543.6 440.17 545.69 445.56C 547.78 450.95 549.19 456.63 549.91 462.62L549.91 462.62L569.55 462.62C 569.19 453.14 568.73 446.1 568.18 441.5C 567.62 436.9 566.85 434.14 565.89 433.21C 565.38 432.75 564.84 432.43 564.25 432.25C 563.67 432.07 562.96 431.98 562.13 431.99C 560.91 431.98 559.19 432 556.98 432.05C 554.77 432.09 552.35 432.23 549.72 432.46C 550.73 430.8 551.56 428.93 552.23 426.84C 552.89 424.76 553.28 422.84 553.39 421.09C 556.2 420.99 558.87 420.95 561.38 420.98C 563.88 421.01 565.98 421.14 567.67 421.37C 569.44 421.53 571.02 421.94 572.4 422.59C 573.79 423.24 575.06 424.31 576.22 425.79C 577.3 427.04 578.19 429.27 578.86 432.47C 579.54 435.68 580.09 440.22 580.5 446.09C 580.92 451.97 581.28 459.55 581.58 468.82L581.58 468.82L581.58 469.1C 583.38 467.14 585.13 465.33 586.84 463.65C 587.95 465.23 589.37 466.93 591.11 468.76C 592.86 470.59 594.47 472.08 595.95 473.24C 592.65 475.98 589.31 479.22 585.94 482.97C 582.57 486.72 579.42 490.69 576.49 494.88C 573.57 499.07 571.13 503.19 569.17 507.25zM444.49 507.44C 440.48 505.78 435.79 504.28 430.41 502.95C 425.03 501.62 419.6 500.55 414.14 499.73C 414.73 498.45 415.33 497 415.93 495.36C 416.52 493.73 416.93 492.27 417.15 490.99C 418.85 491.19 420.59 491.41 422.38 491.67C 424.18 491.94 425.97 492.21 427.76 492.5L427.76 492.5L427.76 481.79L427.76 481.79L413.76 481.79L413.76 481.79L413.76 471.36L413.76 471.36L426.17 471.36C 424.43 466.69 422.33 462.09 419.87 457.54C 417.41 453 414.84 449.15 412.17 445.99C 413.1 444.51 414.07 442.77 415.08 440.77C 416.09 438.78 416.87 436.94 417.43 435.28C 419.31 437.66 421.11 440.46 422.84 443.68C 424.57 446.91 426.21 450.37 427.76 454.07L427.76 454.07L427.76 420.05L427.76 420.05L438.66 420.05L438.66 420.05L438.66 457.73C 439.81 455.91 440.88 454.12 441.86 452.36C 442.84 450.6 443.62 449.07 444.21 447.77L444.21 447.77L450.69 456.6C 450.03 457.44 448.91 458.76 447.34 460.56C 445.77 462.37 444.16 464.18 442.51 465.99C 440.86 467.79 439.58 469.11 438.66 469.95L438.66 469.95L438.66 471.36L438.66 471.36L449 471.36L449 471.36L449 481.79L449 481.79L438.66 481.79L438.66 481.79L438.66 494.66C 440.83 495.18 442.93 495.74 444.97 496.34C 447.01 496.94 448.95 497.57 450.78 498.23zM469.67 507.91L469.67 489.49L451.07 489.49L451.07 444.39L461.68 444.39L461.68 450.22L469.67 450.22L469.67 420.34L481.04 420.34L481.04 450.22L488.93 450.22L488.93 445.14L500.02 445.14L500.02 489.49L481.04 489.49L481.04 507.91zM481.04 478.59L488.93 478.59L488.93 461.02L481.04 461.02zM469.67 478.59L469.67 461.02L461.68 461.02L461.68 478.59zM336.43 440.82L336.43 471.26L336.43 471.26L346.3 471.26C 346.27 466.34 345.6 461.13 344.29 455.65C 342.98 450.17 340.36 445.23 336.43 440.82zM390.65 471.26L390.65 451.25C 389.21 453.11 387.58 455.05 385.74 457.09C 383.9 459.12 382.03 461.09 380.13 462.99C 380.31 464.41 380.46 465.81 380.55 467.2C 380.64 468.59 380.69 469.94 380.69 471.26zM357.39 491.37L369.7 491.37L369.7 481.88L357.39 481.88zM325.16 481.88L325.16 419.96L325.16 419.96L336.43 419.96L336.43 419.96L336.43 437.62C 337.59 436.65 338.73 435.57 339.84 434.38C 340.95 433.2 341.85 432.12 342.54 431.14C 345.39 433.89 347.75 436.9 349.62 440.16C 351.5 443.43 352.99 446.81 354.1 450.31C 355.1 449.08 356.01 447.88 356.85 446.7C 357.68 445.53 358.36 444.45 358.89 443.45L358.89 443.45L365.37 452.47C 364.49 453.91 363.26 455.54 361.69 457.36C 360.12 459.17 358.46 460.99 356.73 462.81C 357.11 465.72 357.29 468.54 357.29 471.26L357.29 471.26L369.7 471.26C 369.65 467.8 369.32 464.14 368.72 460.28C 368.12 456.41 367 452.64 365.35 448.96C 363.69 445.27 361.26 441.96 358.05 439.03C 359.42 438.07 360.85 436.83 362.36 435.3C 363.86 433.77 365.08 432.39 366.03 431.14C 368.93 433.98 371.31 437.09 373.2 440.45C 375.08 443.82 376.58 447.33 377.68 450.97C 379.54 448.78 381.25 446.63 382.83 444.52C 384.4 442.41 385.69 440.52 386.7 438.85L386.7 438.85L390.65 444.39L390.65 444.39L390.65 432.83C 390.66 432.09 390.5 431.56 390.16 431.24C 389.82 430.91 389.23 430.76 388.39 430.77C 387.38 430.75 385.58 430.75 382.97 430.77C 380.36 430.78 377.66 430.87 374.86 431.05C 375.64 429.47 376.37 427.63 377.05 425.53C 377.73 423.43 378.22 421.54 378.53 419.87C 382.66 419.83 386.22 419.92 389.22 420.14C 392.22 420.35 394.7 420.89 396.66 421.75C 398.7 422.61 400.1 423.91 400.89 425.63C 401.68 427.36 402.05 429.66 402.02 432.55L402.02 432.55L402.02 481.88L402.02 481.88L380.78 481.88L380.78 481.88L380.78 491.37L380.78 491.37L405.5 491.37L405.5 491.37L405.5 502.17L405.5 502.17L321.97 502.17L321.97 502.17L321.97 491.37L321.97 491.37L346.3 491.37L346.3 491.37L346.3 481.88zM264.27 480.56L264.27 467.5L264.27 467.5L226.88 467.5L226.88 467.5L226.88 456.13L226.88 456.13L264.27 456.13L264.27 456.13L264.27 433.68C 264.29 432.9 264.09 432.35 263.69 432.03C 263.28 431.72 262.57 431.55 261.55 431.52C 260.39 431.46 258.29 431.45 255.25 431.48C 252.22 431.51 248.99 431.62 245.58 431.8C 246.56 430.12 247.51 428.19 248.43 426.01C 249.35 423.83 250 421.87 250.37 420.15C 254.68 420.08 258.48 420.17 261.75 420.43C 265.02 420.69 267.8 421.25 270.1 422.12C 272.32 422.98 273.87 424.29 274.75 426.07C 275.63 427.84 276.05 430.28 276.02 433.4L276.02 433.4L276.02 456.13L276.02 456.13L312.66 456.13L312.66 456.13L312.66 467.5L312.66 467.5L276.02 467.5L276.02 467.5L276.02 474.64C 281.5 477.67 286.88 481.13 292.17 485.03C 297.45 488.92 302.15 492.85 306.27 496.82L306.27 496.82L297.63 503.49L297.63 503.49L295.09 502.83L295.09 502.83L236.27 502.83L236.27 502.83L236.27 491.75L236.27 491.75L282.6 491.75C 279.78 489.65 276.79 487.62 273.61 485.66C 270.43 483.7 267.32 482 264.27 480.56zM193.33 507.25L182.81 503.11C 185.33 498.04 188.23 492.97 191.5 487.92C 194.77 482.86 198.24 478.13 201.88 473.71L201.88 473.71L151.99 473.71C 155.54 478.01 158.83 482.7 161.86 487.76C 164.89 492.83 167.52 498.11 169.75 503.58L169.75 503.58L157.54 507.06C 154.84 499.87 151.25 493.2 146.76 487.04C 142.28 480.87 137.25 475.77 131.7 471.73C 133.16 470.64 134.84 469.2 136.73 467.41C 138.63 465.62 140.15 464.08 141.28 462.81C 143.24 464.4 145.15 466.19 147.01 468.16L147.01 468.16L147.01 462.62L147.01 462.62L162.14 462.62C 161.56 458.05 160.4 453.7 158.66 449.56C 156.91 445.42 154.11 441.66 150.24 438.28C 146.38 434.89 140.98 432.04 134.05 429.73C 135.41 428.43 136.77 426.83 138.11 424.93C 139.45 423.03 140.48 421.31 141.19 419.77C 149.18 422.78 155.43 426.48 159.94 430.88C 164.46 435.28 167.76 440.17 169.85 445.56C 171.94 450.95 173.35 456.63 174.07 462.62L174.07 462.62L193.71 462.62C 193.35 453.14 192.89 446.1 192.34 441.5C 191.78 436.9 191.01 434.14 190.05 433.21C 189.54 432.75 189 432.43 188.41 432.25C 187.83 432.07 187.12 431.98 186.29 431.99C 185.07 431.98 183.35 432 181.14 432.05C 178.93 432.09 176.52 432.23 173.88 432.46C 174.89 430.8 175.72 428.93 176.39 426.84C 177.05 424.76 177.44 422.84 177.55 421.09C 180.36 420.99 183.03 420.95 185.54 420.98C 188.04 421.01 190.14 421.14 191.83 421.37C 193.6 421.53 195.18 421.94 196.56 422.59C 197.95 423.24 199.22 424.31 200.38 425.79C 201.46 427.04 202.35 429.27 203.02 432.47C 203.7 435.68 204.25 440.22 204.66 446.09C 205.08 451.97 205.44 459.55 205.74 468.82L205.74 468.82L205.74 469.1C 207.54 467.14 209.29 465.33 211 463.65C 212.11 465.23 213.53 466.93 215.27 468.76C 217.02 470.59 218.63 472.08 220.11 473.24C 216.81 475.98 213.47 479.22 210.1 482.97C 206.73 486.72 203.58 490.69 200.65 494.88C 197.73 499.07 195.29 503.19 193.33 507.25zM50.515 467.41L50.515 459.89L50.515 459.89L77.293 459.89C 72.585 457.6 67.085 455.78 60.792 454.43C 54.498 453.09 48.034 452.18 41.401 451.72C 42.236 450.59 43.102 449.28 43.996 447.78C 44.891 446.29 45.592 444.91 46.099 443.64C 51.151 444.23 56.127 445.04 61.026 446.05C 65.926 447.05 70.597 448.35 75.038 449.93C 78.247 449.16 81.508 448.26 84.822 447.23C 88.136 446.2 91.139 445.16 93.83 444.11L93.83 444.11L50.984 444.11L50.984 444.11L50.984 436.03L50.984 436.03L68.367 436.03L68.367 436.03L68.367 429.92L68.367 429.92L42.998 429.92L42.998 429.92L42.998 421.56L42.998 421.56L103.32 421.56L103.32 421.56L103.32 429.92L103.32 429.92L78.609 429.92L78.609 429.92L78.609 436.03L78.609 436.03L95.146 436.03L95.146 436.03L95.146 443.54L95.146 443.54L97.119 442.7L97.119 442.7L101.63 447.87C 102.42 439.43 103.91 432.72 106.09 427.72C 108.27 422.73 111.45 420.17 115.63 420.05C 118.93 419.91 121.46 420.97 123.22 423.23C 124.97 425.48 126.14 429.78 126.72 436.12C 125.4 436.61 123.99 437.32 122.49 438.24C 120.98 439.15 119.67 440.14 118.54 441.19C 118.46 437.44 118.25 434.66 117.93 432.83C 117.61 431.01 117.12 430.1 116.47 430.11C 115.06 430.22 113.9 432.46 112.99 436.85C 112.08 441.23 111.44 447.11 111.07 454.47C 110.7 461.83 110.62 470.03 110.84 479.06L110.84 479.06L44.971 479.06L44.971 479.06L44.971 470.89L44.971 470.89L100.41 470.89C 100.46 467.22 100.57 463.66 100.74 460.21C 100.9 456.76 101.11 453.46 101.35 450.31C 99.2 451.12 96.8 451.92 94.147 452.73C 91.495 453.53 88.79 454.29 86.032 455.01C 88.059 456.27 89.947 457.64 91.693 459.12C 93.439 460.59 94.997 462.2 96.367 463.93L96.367 463.93L89.602 467.88L89.602 467.88L87.723 467.41zM58.595 508.94C 56.27 504.79 53.31 500.83 49.716 497.07C 46.122 493.3 42.317 490.12 38.3 487.52C 39.508 486.6 40.897 485.45 42.469 484.06C 44.041 482.68 45.314 481.48 46.286 480.47C 48.036 481.8 49.822 483.3 51.642 484.99C 53.463 486.68 55.248 488.49 56.998 490.43L56.998 490.43L56.998 482.82L56.998 482.82L114.13 482.82L114.13 482.82L114.13 490.52L114.13 490.52L57.092 490.52L57.092 490.52L60.005 493.81L60.005 493.81L119.76 493.81L119.76 493.81L119.76 501.71L119.76 501.71L65.924 501.71L65.924 501.71L68.367 505.75z" stroke="none" fill="#000000" fill-rule="nonzero" fill-opacity="0.04705882" /></g></g></svg>