<svg xmlns="http://www.w3.org/2000/svg" xmlns:xlink="http://www.w3.org/1999/xlink" id="body_1" preserveAspectRatio="xMinYMin meet" viewBox="0 0 1280 720"><defs><clipPath id="1"><path id="" clip-rule="evenodd" transform="matrix(1 0 0 1 0 0)" d="M0 540L0 0L0 0L960 0L960 0L960 540L960 540L0 540z" /></clipPath><clipPath id="2"><path id="" clip-rule="evenodd" transform="matrix(1 0 0 1 0 0)" d="M0 539.9999L960 539.9999L960 539.9999L960 -0.0001220703L960 -0.0001220703L0 -0.0001220703z" /></clipPath><clipPath id="3"><path id="" clip-rule="evenodd" transform="matrix(1 0 0 1 0 0)" d="M831.22 347.77L920.67 432.89L920.67 432.89L818.75 539.9999L818.75 539.9999L809.83 539.9999L809.83 539.9999L725.06 459.333L725.06 459.333L831.22 347.77z" /></clipPath><clipPath id="4"><path id="" clip-rule="evenodd" transform="matrix(1 0 0 1 0 0)" d="M678.48 379.92L912.48 379.92L912.48 379.92L912.48 240.24L912.48 240.24L678.48 240.24z" /></clipPath><clipPath id="5"><path id="" clip-rule="evenodd" transform="matrix(1 0 0 1 0 0)" d="M53.28 323.04L233.28 323.04L233.28 323.04L233.28 143.04L233.28 143.04L53.28 143.04z" /></clipPath><clipPath id="6"><path id="" clip-rule="evenodd" transform="matrix(1 0 0 1 0 0)" d="M1.4305E-05 540L960 540L960 540L960 0L960 0L1.4305E-05 0z" /></clipPath><clipPath id="7"><path id="" clip-rule="evenodd" transform="matrix(1 0 0 1 0 0)" d="M1.4305E-05 540L960 540L960 540L960 0L960 0L1.4305E-05 0z" /></clipPath><clipPath id="8"><path id="" clip-rule="evenodd" transform="matrix(1 0 0 1 0 0)" d="M1.4305E-05 540L960 540L960 540L960 0L960 0L1.4305E-05 0z" /></clipPath><clipPath id="9"><path id="" clip-rule="evenodd" transform="matrix(1 0 0 1 0 0)" d="M285.36 319.32L609.96 319.32L609.96 319.32L609.96 142.08L609.96 142.08L285.36 142.08z" /></clipPath><clipPath id="10"><path id="" clip-rule="evenodd" transform="matrix(1 0 0 1 0 0)" d="M1.4305E-05 540L960 540L960 540L960 0L960 0L1.4305E-05 0z" /></clipPath><clipPath id="11"><path id="" clip-rule="evenodd" transform="matrix(1 0 0 1 0 0)" d="M1.4305E-05 540L960 540L960 540L960 0L960 0L1.4305E-05 0z" /></clipPath><clipPath id="12"><path id="" clip-rule="evenodd" transform="matrix(1 0 0 1 0 0)" d="M1.4305E-05 540L960 540L960 540L960 0L960 0L1.4305E-05 0z" /></clipPath><clipPath id="13"><path id="" clip-rule="evenodd" transform="matrix(1 0 0 1 0 0)" d="M37.92 524.76L343.8 524.76L343.8 524.76L343.8 369.96L343.8 369.96L37.92 369.96z" /></clipPath><clipPath id="14"><path id="" clip-rule="evenodd" transform="matrix(1 0 0 1 0 0)" d="M715.32 216.84L808.44 216.84L808.44 216.84L808.44 127.44L808.44 127.44L715.32 127.44z" /></clipPath><clipPath id="15"><path id="" clip-rule="evenodd" transform="matrix(1 0 0 1 0 0)" d="M840 194.88L896.16 194.88L896.16 194.88L896.16 167.52L896.16 167.52L840 167.52z" /></clipPath><clipPath id="16"><path id="" clip-rule="evenodd" transform="matrix(1 0 0 1 0 0)" d="M1.4305E-05 540L960 540L960 540L960 0L960 0L1.4305E-05 0z" /></clipPath><clipPath id="17"><path id="" clip-rule="evenodd" transform="matrix(1 0 0 1 0 0)" d="M1.4305E-05 540L960 540L960 540L960 0L960 0L1.4305E-05 0z" /></clipPath><clipPath id="18"><path id="" clip-rule="evenodd" transform="matrix(1 0 0 1 0 0)" d="M1.4305E-05 540L960 540L960 540L960 0L960 0L1.4305E-05 0z" /></clipPath><clipPath id="19"><path id="" clip-rule="evenodd" transform="matrix(1 0 0 1 0 0)" d="M1.4305E-05 540L960 540L960 540L960 0L960 0L1.4305E-05 0z" /></clipPath><clipPath id="20"><path id="" clip-rule="evenodd" transform="matrix(1 0 0 1 0 0)" d="M1.4305E-05 540L960 540L960 540L960 0L960 0L1.4305E-05 0z" /></clipPath><clipPath id="21"><path id="" clip-rule="evenodd" transform="matrix(1 0 0 1 0 0)" d="M1.4305E-05 540L960 540L960 540L960 0L960 0L1.4305E-05 0z" /></clipPath><clipPath id="22"><path id="" clip-rule="evenodd" transform="matrix(1 0 0 1 0 0)" d="M1.4305E-05 540L960 540L960 540L960 0L960 0L1.4305E-05 0z" /></clipPath><clipPath id="23"><path id="" clip-rule="evenodd" transform="matrix(1 0 0 1 0 0)" d="M1.4305E-05 540L960 540L960 540L960 0L960 0L1.4305E-05 0z" /></clipPath><clipPath id="24"><path id="" clip-rule="evenodd" transform="matrix(1 0 0 1 0 0)" d="M1.4305E-05 540L960 540L960 540L960 0L960 0L1.4305E-05 0z" /></clipPath><clipPath id="25"><path id="" clip-rule="evenodd" transform="matrix(1 0 0 1 0 0)" d="M1.4305E-05 540L960 540L960 540L960 0L960 0L1.4305E-05 0z" /></clipPath><clipPath id="26"><path id="" clip-rule="evenodd" transform="matrix(1 0 0 1 0 0)" d="M1.4305E-05 540L960 540L960 540L960 0L960 0L1.4305E-05 0z" /></clipPath><clipPath id="27"><path id="" clip-rule="evenodd" transform="matrix(1 0 0 1 0 0)" d="M664.8 466.2L706.8 466.2L706.8 466.2L706.8 426L706.8 426L664.8 426z" /></clipPath><clipPath id="28"><path id="" clip-rule="evenodd" transform="matrix(1 0 0 1 0 0)" d="M1.4305E-05 540L960 540L960 540L960 0L960 0L1.4305E-05 0z" /></clipPath><clipPath id="29"><path id="" clip-rule="evenodd" transform="matrix(1 0 0 1 0 0)" d="M1.4305E-05 540L960 540L960 540L960 0L960 0L1.4305E-05 0z" /></clipPath><clipPath id="30"><path id="" clip-rule="evenodd" transform="matrix(1 0 0 1 0 0)" d="M1.4305E-05 540L960 540L960 540L960 0L960 0L1.4305E-05 0z" /></clipPath><clipPath id="31"><path id="" clip-rule="evenodd" transform="matrix(1 0 0 1 0 0)" d="M1.4305E-05 540L960 540L960 540L960 0L960 0L1.4305E-05 0z" /></clipPath><clipPath id="32"><path id="" clip-rule="evenodd" transform="matrix(1 0 0 1 0 0)" d="M1.4305E-05 540L960 540L960 540L960 0L960 0L1.4305E-05 0z" /></clipPath><clipPath id="33"><path id="" clip-rule="evenodd" transform="matrix(1 0 0 1 0 0)" d="M1.4305E-05 540L960 540L960 540L960 0L960 0L1.4305E-05 0z" /></clipPath><clipPath id="34"><path id="" clip-rule="evenodd" transform="matrix(1 0 0 1 0 0)" d="M1.4305E-05 540L960 540L960 540L960 0L960 0L1.4305E-05 0z" /></clipPath><clipPath id="35"><path id="" clip-rule="evenodd" transform="matrix(1 0 0 1 0 0)" d="M1.4305E-05 540L960 540L960 540L960 0L960 0L1.4305E-05 0z" /></clipPath><clipPath id="36"><path id="" clip-rule="evenodd" transform="matrix(1 0 0 1 0 0)" d="M1.4305E-05 540L960 540L960 540L960 0L960 0L1.4305E-05 0z" /></clipPath><clipPath id="37"><path id="" clip-rule="evenodd" transform="matrix(1 0 0 1 0 0)" d="M1.4305E-05 540L960 540L960 540L960 0L960 0L1.4305E-05 0z" /></clipPath><clipPath id="38"><path id="" clip-rule="evenodd" transform="matrix(1 0 0 1 0 0)" d="M1.4305E-05 540L960 540L960 540L960 0L960 0L1.4305E-05 0z" /></clipPath><clipPath id="39"><path id="" clip-rule="evenodd" transform="matrix(1 0 0 1 0 0)" d="M1.4305E-05 540L960 540L960 540L960 0L960 0L1.4305E-05 0z" /></clipPath><clipPath id="40"><path id="" clip-rule="evenodd" transform="matrix(1 0 0 1 0 0)" d="M1.4305E-05 540L960 540L960 540L960 0L960 0L1.4305E-05 0z" /></clipPath><clipPath id="41"><path id="" clip-rule="evenodd" transform="matrix(1 0 0 1 0 0)" d="M1.4305E-05 540L960 540L960 540L960 0L960 0L1.4305E-05 0z" /></clipPath></defs><g transform="matrix(1.333333 0 0 1.333333 0 0)"><g clip-path="url(#1)"><g clip-path="url(#2)"><path id="1" transform="matrix(1 0 0 -1 0 540)" d="M0 6.1035E-05L960 6.1035E-05L960 6.1035E-05L960 540.0001L960 540.0001L0 540.0001z" stroke="none" fill="#FFFFFF" fill-rule="evenodd" /></g><g clip-path="url(#3)"><g transform="matrix(0.5178537 -0.5441951 0.5454268 0.5190244 725.06 459.3336)"><g transform="matrix(1 0 0 1 0 0)"><image x="0" y="0" xlink:href="img_01.png" width="205" height="164" /></g></g></g><g clip-path="url(#4)"><g transform="matrix(0.5894206 0 0 0.589367 678.48 240.24)"><g transform="matrix(1 0 0 1 0 0)"><image x="0" y="0" xlink:href="img_02.png" width="397" height="237" /></g></g></g><g clip-path="url(#5)"><g transform="matrix(0.7500001 0 0 0.7500001 53.28 143.04)"><g transform="matrix(1 0 0 1 0 0)"><image x="0" y="0" xlink:href="img_03.png" width="240" height="240" /></g></g></g><path id="5" transform="matrix(1 0 0 -1 0 540)" d="M24 458.88L690.12 458.88L690.12 458.88L690.12 478.44L690.12 478.44L24 478.44z" stroke="none" fill="#FFC000" fill-rule="evenodd" fill-opacity="0.2" /><g clip-path="url(#6)"><g transform="matrix(0.2401803 0 0 0.2400996 35.496 22.63599)"><g transform="matrix(1 0 0 1 0 0)"><image x="0" y="0" xlink:href="img_04.png" width="832" height="241" /></g></g></g><g clip-path="url(#7)"><g transform="matrix(0.24003 0 0 0.2400996 195.36 22.63599)"><g transform="matrix(1 0 0 1 0 0)"><image x="0" y="0" xlink:href="img_05.png" width="999" height="241" /></g></g></g><g clip-path="url(#8)"><g transform="matrix(0.2400225 0 0 0.2400996 395.18 22.63599)"><g transform="matrix(1 0 0 1 0 0)"><image x="0" y="0" xlink:href="img_06.png" width="1332" height="241" /></g></g></g><g clip-path="url(#9)"><g transform="matrix(0.5645218 0 0 0.5644586 285.36 142.08)"><g transform="matrix(1 0 0 1 0 0)"><image x="0" y="0" xlink:href="img_07.png" width="575" height="314" /></g></g></g><g clip-path="url(#10)"></g><g clip-path="url(#11)"></g><g clip-path="url(#12)"></g><g clip-path="url(#13)"><g transform="matrix(0.7515479 0 0 0.7514563 37.92 369.96)"><g transform="matrix(1 0 0 1 0 0)"><image x="0" y="0" xlink:href="img_08.png" width="407" height="206" /></g></g></g><path id="23" transform="matrix(1 0 0 -1 0 540)" d="M743.58 93.72C 743.58 136.5 778.23 171.18 820.98 171.18C 863.73 171.18 898.38 136.5 898.38 93.72C 898.38 50.94 863.73 16.26 820.98 16.26C 778.23 16.26 743.58 50.94 743.58 93.72z" stroke="#FFC000" stroke-width="1.5" stroke-dasharray="4,3" fill="none" /><g clip-path="url(#14)"><g transform="matrix(0.7509677 0 0 0.7512606 715.32 127.44)"><g transform="matrix(1 0 0 1 0 0)"><image x="0" y="0" xlink:href="img_09.png" width="124" height="119" /></g></g></g><g clip-path="url(#15)"><g transform="matrix(0.7589189 0 0 0.7600001 840 167.52)"><g transform="matrix(1 0 0 1 0 0)"><image x="0" y="0" xlink:href="img_10.png" width="74" height="36" /></g></g></g><g clip-path="url(#16)"><g transform="matrix(0.24 0 0 0.24 815.76 161.83)"><g transform="matrix(1 0 0 1 0 0)"><image x="0" y="0" xlink:href="img_11.png" width="118" height="145" /></g></g></g><g clip-path="url(#17)"></g><g clip-path="url(#18)"><g transform="matrix(0.2401634 0 0 0.24 705.19 85.25)"><g transform="matrix(1 0 0 1 0 0)"><image x="0" y="0" xlink:href="img_12.png" width="918" height="121" /></g></g></g><g clip-path="url(#19)"><g transform="matrix(0.24 0 0 0.24 404.74 368.71)"><g transform="matrix(1 0 0 1 0 0)"><image x="0" y="0" xlink:href="img_13.png" width="501" height="121" /></g></g></g><g clip-path="url(#20)"><g transform="matrix(0.2401301 0 0 0.24 504.94 368.71)"><g transform="matrix(1 0 0 1 0 0)"><image x="0" y="0" xlink:href="img_14.png" width="246" height="121" /></g></g></g><g clip-path="url(#21)"><g transform="matrix(0.2402402 0 0 0.24 549.24 368.71)"><g transform="matrix(1 0 0 1 0 0)"><image x="0" y="0" xlink:href="img_15.png" width="333" height="121" /></g></g></g><g clip-path="url(#22)"></g><g clip-path="url(#23)"></g><g clip-path="url(#24)"></g><g clip-path="url(#25)"></g><g clip-path="url(#26)"></g><g clip-path="url(#27)"><g transform="matrix(0.6 0 0 0.6 664.8 426)"><g transform="matrix(1 0 0 1 0 0)"><image x="0" y="0" xlink:href="img_16.png" width="70" height="67" /></g></g></g><g clip-path="url(#28)"><g transform="matrix(0.24 0 0 0.2401655 721.3 425.328)"><g transform="matrix(1 0 0 1 0 0)"><image x="0" y="0" xlink:href="img_11.png" width="118" height="145" /></g></g></g><g clip-path="url(#29)"><g transform="matrix(0.2406349 0 0 0.24125 634.54 474.072)"><g transform="matrix(1 0 0 1 0 0)"><image x="0" y="0" xlink:href="img_17.png" width="378" height="96" /></g></g></g><g clip-path="url(#30)"><g transform="matrix(0.24 0 0 0.24125 716.4 474.072)"><g transform="matrix(1 0 0 1 0 0)"><image x="0" y="0" xlink:href="img_18.png" width="133" height="96" /></g></g></g><g clip-path="url(#31)"><g transform="matrix(0.2400727 0 0 0.24125 634.54 493.272)"><g transform="matrix(1 0 0 1 0 0)"><image x="0" y="0" xlink:href="img_19.png" width="399" height="96" /></g></g></g><path id="79" transform="matrix(1 0 0 -1 0 540)" d="M370.06 87.14L360.06 82.14L370.06 77.14zM627.32 83.14L369.06 83.14L369.06 81.14L627.32 81.14z" stroke="none" fill="#4472C4" fill-rule="nonzero" /><g clip-path="url(#32)"><g transform="matrix(0.2404918 0 0 0.2411111 423.24 400.7)"><g transform="matrix(1 0 0 1 0 0)"><image x="0" y="0" xlink:href="img_20.png" width="244" height="108" /></g></g></g><g clip-path="url(#33)"><g transform="matrix(0.24 0 0 0.2411111 470.18 400.7)"><g transform="matrix(1 0 0 1 0 0)"><image x="0" y="0" xlink:href="img_21.png" width="525" height="108" /></g></g></g><g clip-path="url(#34)"><g transform="matrix(0.24004 0 0 0.2411111 419.64 422.304)"><g transform="matrix(1 0 0 1 0 0)"><image x="0" y="0" xlink:href="img_22.png" width="750" height="108" /></g></g></g><g clip-path="url(#35)"><g transform="matrix(0.2409677 0 0 0.2411111 447.14 458.664)"><g transform="matrix(1 0 0 1 0 0)"><image x="0" y="0" xlink:href="img_23.png" width="124" height="108" /></g></g></g><g clip-path="url(#36)"><g transform="matrix(0.24 0 0 0.2411111 467.06 458.664)"><g transform="matrix(1 0 0 1 0 0)"><image x="0" y="0" xlink:href="img_24.png" width="55" height="108" /></g></g></g><g clip-path="url(#37)"><g transform="matrix(0.240463 0 0 0.2411111 473.66 458.664)"><g transform="matrix(1 0 0 1 0 0)"><image x="0" y="0" xlink:href="img_25.png" width="216" height="108" /></g></g></g><g clip-path="url(#38)"><g transform="matrix(0.24 0 0 0.2411111 518.18 458.664)"><g transform="matrix(1 0 0 1 0 0)"><image x="0" y="0" xlink:href="img_26.png" width="225" height="108" /></g></g></g><g clip-path="url(#39)"><g transform="matrix(0.2400667 0 0 0.2411111 400.68 480.264)"><g transform="matrix(1 0 0 1 0 0)"><image x="0" y="0" xlink:href="img_27.png" width="450" height="108" /></g></g></g><g clip-path="url(#40)"><g transform="matrix(0.24048 0 0 0.2411111 490.7 480.264)"><g transform="matrix(1 0 0 1 0 0)"><image x="0" y="0" xlink:href="img_28.png" width="100" height="108" /></g></g></g><g clip-path="url(#41)"><g transform="matrix(0.24 0 0 0.2411111 510.74 480.264)"><g transform="matrix(1 0 0 1 0 0)"><image x="0" y="0" xlink:href="img_29.png" width="450" height="108" /></g></g></g><path id="90" transform="matrix(1 0 0 -1 0 540)" d="M664.8 165.6L931.68 165.6L931.68 165.6L931.68 454.32L931.68 454.32L664.8 454.32z" stroke="none" fill="#FFC000" fill-rule="evenodd" fill-opacity="0.07450981" /><path id="91" transform="matrix(1 0 0 -1 0 540)" d="M152.18 198.14L147.18 208.14L142.18 198.14zM148.18 186.26L148.18 199.14L146.18 199.14L146.18 186.26z" stroke="none" fill="#4472C4" fill-rule="nonzero" /><path id="92" transform="matrix(1 0 0 -1 0 540)" d="M365.64 16.32L743.52 16.32L743.52 16.32L743.52 177.84L743.52 177.84L365.64 177.84z" stroke="none" fill="#4472C4" fill-rule="evenodd" fill-opacity="0.07450981" /></g></g></svg>