<svg xmlns="http://www.w3.org/2000/svg" xmlns:xlink="http://www.w3.org/1999/xlink" id="body_1" preserveAspectRatio="xMinYMin meet" viewBox="0 0 1280 720"><defs><clipPath id="1"><path id="" clip-rule="evenodd" transform="matrix(1 0 0 1 0 0)" d="M0 540L0 0L0 0L960 0L960 0L960 540L960 540L0 540z" /></clipPath><clipPath id="2"><path id="" clip-rule="evenodd" transform="matrix(1 0 0 1 0 0)" d="M0 539.9999L960 539.9999L960 539.9999L960 -0.0001220703L960 -0.0001220703L0 -0.0001220703z" /></clipPath><clipPath id="3"><path id="" clip-rule="evenodd" transform="matrix(1 0 0 1 0 0)" d="M559.68 345.72L887.4 345.72L887.4 345.72L887.4 40.07999L887.4 40.07999L559.68 40.07999z" /></clipPath><clipPath id="4"><path id="" clip-rule="evenodd" transform="matrix(1 0 0 1 0 0)" d="M1.4305E-05 540L960 540L960 540L960 0L960 0L1.4305E-05 0z" /></clipPath><clipPath id="5"><path id="" clip-rule="evenodd" transform="matrix(1 0 0 1 0 0)" d="M1.4305E-05 540L960 540L960 540L960 0L960 0L1.4305E-05 0z" /></clipPath><clipPath id="6"><path id="" clip-rule="evenodd" transform="matrix(1 0 0 1 0 0)" d="M1.4305E-05 540L960 540L960 540L960 0L960 0L1.4305E-05 0z" /></clipPath><clipPath id="7"><path id="" clip-rule="evenodd" transform="matrix(1 0 0 1 0 0)" d="M1.4305E-05 540L960 540L960 540L960 0L960 0L1.4305E-05 0z" /></clipPath><clipPath id="8"><path id="" clip-rule="evenodd" transform="matrix(1 0 0 1 0 0)" d="M1.4305E-05 540L960 540L960 540L960 0L960 0L1.4305E-05 0z" /></clipPath><clipPath id="9"><path id="" clip-rule="evenodd" transform="matrix(1 0 0 1 0 0)" d="M1.4305E-05 540L960 540L960 540L960 0L960 0L1.4305E-05 0z" /></clipPath><clipPath id="10"><path id="" clip-rule="evenodd" transform="matrix(1 0 0 1 0 0)" d="M1.4305E-05 540L960 540L960 540L960 0L960 0L1.4305E-05 0z" /></clipPath><clipPath id="11"><path id="" clip-rule="evenodd" transform="matrix(1 0 0 1 0 0)" d="M1.4305E-05 540L960 540L960 540L960 0L960 0L1.4305E-05 0z" /></clipPath><clipPath id="12"><path id="" clip-rule="evenodd" transform="matrix(1 0 0 1 0 0)" d="M1.4305E-05 540L960 540L960 540L960 0L960 0L1.4305E-05 0z" /></clipPath><clipPath id="13"><path id="" clip-rule="evenodd" transform="matrix(1 0 0 1 0 0)" d="M1.4305E-05 540L960 540L960 540L960 0L960 0L1.4305E-05 0z" /></clipPath><clipPath id="14"><path id="" clip-rule="evenodd" transform="matrix(1 0 0 1 0 0)" d="M1.4305E-05 540L960 540L960 540L960 0L960 0L1.4305E-05 0z" /></clipPath><clipPath id="15"><path id="" clip-rule="evenodd" transform="matrix(1 0 0 1 0 0)" d="M1.4305E-05 540L960 540L960 540L960 0L960 0L1.4305E-05 0z" /></clipPath><clipPath id="16"><path id="" clip-rule="evenodd" transform="matrix(1 0 0 1 0 0)" d="M1.4305E-05 540L960 540L960 540L960 0L960 0L1.4305E-05 0z" /></clipPath><clipPath id="17"><path id="" clip-rule="evenodd" transform="matrix(1 0 0 1 0 0)" d="M1.4305E-05 540L960 540L960 540L960 0L960 0L1.4305E-05 0z" /></clipPath><clipPath id="18"><path id="" clip-rule="evenodd" transform="matrix(1 0 0 1 0 0)" d="M1.4305E-05 540L960 540L960 540L960 0L960 0L1.4305E-05 0z" /></clipPath><clipPath id="19"><path id="" clip-rule="evenodd" transform="matrix(1 0 0 1 0 0)" d="M1.4305E-05 540L960 540L960 540L960 0L960 0L1.4305E-05 0z" /></clipPath><clipPath id="20"><path id="" clip-rule="evenodd" transform="matrix(1 0 0 1 0 0)" d="M1.4305E-05 540L960 540L960 540L960 0L960 0L1.4305E-05 0z" /></clipPath><clipPath id="21"><path id="" clip-rule="evenodd" transform="matrix(1 0 0 1 0 0)" d="M1.4305E-05 540L960 540L960 540L960 0L960 0L1.4305E-05 0z" /></clipPath><clipPath id="22"><path id="" clip-rule="evenodd" transform="matrix(1 0 0 1 0 0)" d="M1.4305E-05 540L960 540L960 540L960 0L960 0L1.4305E-05 0z" /></clipPath><clipPath id="23"><path id="" clip-rule="evenodd" transform="matrix(1 0 0 1 0 0)" d="M1.4305E-05 540L960 540L960 540L960 0L960 0L1.4305E-05 0z" /></clipPath><clipPath id="24"><path id="" clip-rule="evenodd" transform="matrix(1 0 0 1 0 0)" d="M1.4305E-05 540L960 540L960 540L960 0L960 0L1.4305E-05 0z" /></clipPath><clipPath id="25"><path id="" clip-rule="evenodd" transform="matrix(1 0 0 1 0 0)" d="M1.4305E-05 540L960 540L960 540L960 0L960 0L1.4305E-05 0z" /></clipPath><clipPath id="26"><path id="" clip-rule="evenodd" transform="matrix(1 0 0 1 0 0)" d="M1.4305E-05 540L960 540L960 540L960 0L960 0L1.4305E-05 0z" /></clipPath><clipPath id="27"><path id="" clip-rule="evenodd" transform="matrix(1 0 0 1 0 0)" d="M1.4305E-05 540L960 540L960 540L960 0L960 0L1.4305E-05 0z" /></clipPath><clipPath id="28"><path id="" clip-rule="evenodd" transform="matrix(1 0 0 1 0 0)" d="M1.4305E-05 540L960 540L960 540L960 0L960 0L1.4305E-05 0z" /></clipPath><clipPath id="29"><path id="" clip-rule="evenodd" transform="matrix(1 0 0 1 0 0)" d="M1.4305E-05 540L960 540L960 540L960 0L960 0L1.4305E-05 0z" /></clipPath><clipPath id="30"><path id="" clip-rule="evenodd" transform="matrix(1 0 0 1 0 0)" d="M1.4305E-05 540L960 540L960 540L960 0L960 0L1.4305E-05 0z" /></clipPath><clipPath id="31"><path id="" clip-rule="evenodd" transform="matrix(1 0 0 1 0 0)" d="M1.4305E-05 540L960 540L960 540L960 0L960 0L1.4305E-05 0z" /></clipPath><clipPath id="32"><path id="" clip-rule="evenodd" transform="matrix(1 0 0 1 0 0)" d="M1.4305E-05 540L960 540L960 540L960 0L960 0L1.4305E-05 0z" /></clipPath><clipPath id="33"><path id="" clip-rule="evenodd" transform="matrix(1 0 0 1 0 0)" d="M1.4305E-05 540L960 540L960 540L960 0L960 0L1.4305E-05 0z" /></clipPath><clipPath id="34"><path id="" clip-rule="evenodd" transform="matrix(1 0 0 1 0 0)" d="M1.4305E-05 540L960 540L960 540L960 0L960 0L1.4305E-05 0z" /></clipPath><clipPath id="35"><path id="" clip-rule="evenodd" transform="matrix(1 0 0 1 0 0)" d="M1.4305E-05 540L960 540L960 540L960 0L960 0L1.4305E-05 0z" /></clipPath><clipPath id="36"><path id="" clip-rule="evenodd" transform="matrix(1 0 0 1 0 0)" d="M1.4305E-05 540L960 540L960 540L960 0L960 0L1.4305E-05 0z" /></clipPath><clipPath id="37"><path id="" clip-rule="evenodd" transform="matrix(1 0 0 1 0 0)" d="M1.4305E-05 540L960 540L960 540L960 0L960 0L1.4305E-05 0z" /></clipPath><clipPath id="38"><path id="" clip-rule="evenodd" transform="matrix(1 0 0 1 0 0)" d="M1.4305E-05 540L960 540L960 540L960 0L960 0L1.4305E-05 0z" /></clipPath><clipPath id="39"><path id="" clip-rule="evenodd" transform="matrix(1 0 0 1 0 0)" d="M1.4305E-05 540L960 540L960 540L960 0L960 0L1.4305E-05 0z" /></clipPath><clipPath id="40"><path id="" clip-rule="evenodd" transform="matrix(1 0 0 1 0 0)" d="M1.4305E-05 540L960 540L960 540L960 0L960 0L1.4305E-05 0z" /></clipPath><clipPath id="41"><path id="" clip-rule="evenodd" transform="matrix(1 0 0 1 0 0)" d="M1.4305E-05 540L960 540L960 540L960 0L960 0L1.4305E-05 0z" /></clipPath><clipPath id="42"><path id="" clip-rule="evenodd" transform="matrix(1 0 0 1 0 0)" d="M1.4305E-05 540L960 540L960 540L960 0L960 0L1.4305E-05 0z" /></clipPath><clipPath id="43"><path id="" clip-rule="evenodd" transform="matrix(1 0 0 1 0 0)" d="M1.4305E-05 540L960 540L960 540L960 0L960 0L1.4305E-05 0z" /></clipPath><clipPath id="44"><path id="" clip-rule="evenodd" transform="matrix(1 0 0 1 0 0)" d="M1.4305E-05 540L960 540L960 540L960 0L960 0L1.4305E-05 0z" /></clipPath><clipPath id="45"><path id="" clip-rule="evenodd" transform="matrix(1 0 0 1 0 0)" d="M1.4305E-05 540L960 540L960 540L960 0L960 0L1.4305E-05 0z" /></clipPath><clipPath id="46"><path id="" clip-rule="evenodd" transform="matrix(1 0 0 1 0 0)" d="M1.4305E-05 540L960 540L960 540L960 0L960 0L1.4305E-05 0z" /></clipPath><clipPath id="47"><path id="" clip-rule="evenodd" transform="matrix(1 0 0 1 0 0)" d="M1.4305E-05 540L960 540L960 540L960 0L960 0L1.4305E-05 0z" /></clipPath><clipPath id="48"><path id="" clip-rule="evenodd" transform="matrix(1 0 0 1 0 0)" d="M1.4305E-05 540L960 540L960 540L960 0L960 0L1.4305E-05 0z" /></clipPath><clipPath id="49"><path id="" clip-rule="evenodd" transform="matrix(1 0 0 1 0 0)" d="M1.4305E-05 540L960 540L960 540L960 0L960 0L1.4305E-05 0z" /></clipPath><clipPath id="50"><path id="" clip-rule="evenodd" transform="matrix(1 0 0 1 0 0)" d="M1.4305E-05 540L960 540L960 540L960 0L960 0L1.4305E-05 0z" /></clipPath><clipPath id="51"><path id="" clip-rule="evenodd" transform="matrix(1 0 0 1 0 0)" d="M1.4305E-05 540L960 540L960 540L960 0L960 0L1.4305E-05 0z" /></clipPath><clipPath id="52"><path id="" clip-rule="evenodd" transform="matrix(1 0 0 1 0 0)" d="M1.4305E-05 540L960 540L960 540L960 0L960 0L1.4305E-05 0z" /></clipPath><clipPath id="53"><path id="" clip-rule="evenodd" transform="matrix(1 0 0 1 0 0)" d="M1.4305E-05 540L960 540L960 540L960 0L960 0L1.4305E-05 0z" /></clipPath><clipPath id="54"><path id="" clip-rule="evenodd" transform="matrix(1 0 0 1 0 0)" d="M1.4305E-05 540L960 540L960 540L960 0L960 0L1.4305E-05 0z" /></clipPath><clipPath id="55"><path id="" clip-rule="evenodd" transform="matrix(1 0 0 1 0 0)" d="M1.4305E-05 540L960 540L960 540L960 0L960 0L1.4305E-05 0z" /></clipPath><clipPath id="56"><path id="" clip-rule="evenodd" transform="matrix(1 0 0 1 0 0)" d="M1.4305E-05 540L960 540L960 540L960 0L960 0L1.4305E-05 0z" /></clipPath><clipPath id="57"><path id="" clip-rule="evenodd" transform="matrix(1 0 0 1 0 0)" d="M1.4305E-05 540L960 540L960 540L960 0L960 0L1.4305E-05 0z" /></clipPath><clipPath id="58"><path id="" clip-rule="evenodd" transform="matrix(1 0 0 1 0 0)" d="M1.4305E-05 540L960 540L960 540L960 0L960 0L1.4305E-05 0z" /></clipPath><clipPath id="59"><path id="" clip-rule="evenodd" transform="matrix(1 0 0 1 0 0)" d="M1.4305E-05 540L960 540L960 540L960 0L960 0L1.4305E-05 0z" /></clipPath><clipPath id="60"><path id="" clip-rule="evenodd" transform="matrix(1 0 0 1 0 0)" d="M1.4305E-05 540L960 540L960 540L960 0L960 0L1.4305E-05 0z" /></clipPath><clipPath id="61"><path id="" clip-rule="evenodd" transform="matrix(1 0 0 1 0 0)" d="M1.4305E-05 540L960 540L960 540L960 0L960 0L1.4305E-05 0z" /></clipPath><clipPath id="62"><path id="" clip-rule="evenodd" transform="matrix(1 0 0 1 0 0)" d="M1.4305E-05 540L960 540L960 540L960 0L960 0L1.4305E-05 0z" /></clipPath><clipPath id="63"><path id="" clip-rule="evenodd" transform="matrix(1 0 0 1 0 0)" d="M1.4305E-05 540L960 540L960 540L960 0L960 0L1.4305E-05 0z" /></clipPath><clipPath id="64"><path id="" clip-rule="evenodd" transform="matrix(1 0 0 1 0 0)" d="M1.4305E-05 540L960 540L960 540L960 0L960 0L1.4305E-05 0z" /></clipPath><clipPath id="65"><path id="" clip-rule="evenodd" transform="matrix(1 0 0 1 0 0)" d="M1.4305E-05 540L960 540L960 540L960 0L960 0L1.4305E-05 0z" /></clipPath><clipPath id="66"><path id="" clip-rule="evenodd" transform="matrix(1 0 0 1 0 0)" d="M1.4305E-05 540L960 540L960 540L960 0L960 0L1.4305E-05 0z" /></clipPath></defs><g transform="matrix(1.333333 0 0 1.333333 0 0)"><g clip-path="url(#1)"><g clip-path="url(#2)"><path id="1" transform="matrix(1 0 0 -1 0 540)" d="M0 6.1035E-05L960 6.1035E-05L960 6.1035E-05L960 540.0001L960 540.0001L0 540.0001z" stroke="none" fill="#FFFFFF" fill-rule="evenodd" /></g><g clip-path="url(#3)"><g transform="matrix(0.5251923 0 0 0.5251547 559.68 40.07999)"><g transform="matrix(1 0 0 1 0 0)"><image x="0" y="0" xlink:href="img_01.png" width="624" height="582" /></g></g></g><path id="3" transform="matrix(1 0 0 -1 0 540)" d="M24 458.88L491.76 458.88L491.76 458.88L491.76 478.44L491.76 478.44L24 478.44z" stroke="none" fill="#FFC000" fill-rule="evenodd" fill-opacity="0.2" /><g clip-path="url(#4)"><g transform="matrix(0.2403433 0 0 0.2400996 35.496 22.63599)"><g transform="matrix(1 0 0 1 0 0)"><image x="0" y="0" xlink:href="img_02.png" width="466" height="241" /></g></g></g><g clip-path="url(#5)"><g transform="matrix(0.2403206 0 0 0.2400996 119.5 22.63599)"><g transform="matrix(1 0 0 1 0 0)"><image x="0" y="0" xlink:href="img_03.png" width="499" height="241" /></g></g></g><g clip-path="url(#6)"><g transform="matrix(0.2402405 0 0 0.2400996 199.44 22.63599)"><g transform="matrix(1 0 0 1 0 0)"><image x="0" y="0" xlink:href="img_04.png" width="499" height="241" /></g></g></g><g clip-path="url(#7)"><g transform="matrix(0.24 0 0 0.2400996 279.36 22.63599)"><g transform="matrix(1 0 0 1 0 0)"><image x="0" y="0" xlink:href="img_05.png" width="298" height="241" /></g></g></g><g clip-path="url(#8)"><g transform="matrix(0.2401803 0 0 0.2400996 315.12 22.63599)"><g transform="matrix(1 0 0 1 0 0)"><image x="0" y="0" xlink:href="img_06.png" width="832" height="241" /></g></g></g><g clip-path="url(#9)"><g transform="matrix(0.24 0 0 0.2411111 42.528 108.91)"><g transform="matrix(1 0 0 1 0 0)"><image x="0" y="0" xlink:href="img_07.png" width="150" height="108" /></g></g></g><g clip-path="url(#10)"><g transform="matrix(0.2400667 0 0 0.2411111 64.608 108.91)"><g transform="matrix(1 0 0 1 0 0)"><image x="0" y="0" xlink:href="img_08.png" width="450" height="108" /></g></g></g><g clip-path="url(#11)"><g transform="matrix(0.24 0 0 0.2411111 154.63 108.91)"><g transform="matrix(1 0 0 1 0 0)"><image x="0" y="0" xlink:href="img_09.png" width="450" height="108" /></g></g></g><g clip-path="url(#12)"><g transform="matrix(0.2401429 0 0 0.2411111 248.71 108.91)"><g transform="matrix(1 0 0 1 0 0)"><image x="0" y="0" xlink:href="img_10.png" width="210" height="108" /></g></g></g><g clip-path="url(#13)"><g transform="matrix(0.24 0 0 0.2411111 289.06 108.91)"><g transform="matrix(1 0 0 1 0 0)"><image x="0" y="0" xlink:href="img_11.png" width="525" height="108" /></g></g></g><g clip-path="url(#14)"><g transform="matrix(0.24 0 0 0.2413333 42.528 152.086)"><g transform="matrix(1 0 0 1 0 0)"><image x="0" y="0" xlink:href="img_12.png" width="150" height="108" /></g></g></g><g clip-path="url(#15)"><g transform="matrix(0.24005 0 0 0.2413333 64.608 152.086)"><g transform="matrix(1 0 0 1 0 0)"><image x="0" y="0" xlink:href="img_13.png" width="600" height="108" /></g></g></g><g clip-path="url(#16)"><g transform="matrix(0.2400571 0 0 0.2413333 190.63 152.086)"><g transform="matrix(1 0 0 1 0 0)"><image x="0" y="0" xlink:href="img_14.png" width="525" height="108" /></g></g></g><g clip-path="url(#17)"><g transform="matrix(0.24 0 0 0.2413333 298.66 152.086)"><g transform="matrix(1 0 0 1 0 0)"><image x="0" y="0" xlink:href="img_15.png" width="450" height="108" /></g></g></g><g clip-path="url(#18)"><g transform="matrix(0.24 0 0 0.2413333 388.66 152.086)"><g transform="matrix(1 0 0 1 0 0)"><image x="0" y="0" xlink:href="img_16.png" width="300" height="108" /></g></g></g><g clip-path="url(#19)"><g transform="matrix(0.24 0 0 0.2411111 114.55 184.06)"><g transform="matrix(1 0 0 1 0 0)"><image x="0" y="0" xlink:href="img_17.png" width="525" height="108" /></g></g></g><g clip-path="url(#20)"><g transform="matrix(0.2408421 0 0 0.2411111 114.55 212.14)"><g transform="matrix(1 0 0 1 0 0)"><image x="0" y="0" xlink:href="img_18.png" width="190" height="108" /></g></g></g><g clip-path="url(#21)"><g transform="matrix(0.24 0 0 0.2411111 148.87 212.14)"><g transform="matrix(1 0 0 1 0 0)"><image x="0" y="0" xlink:href="img_19.png" width="225" height="108" /></g></g></g><g clip-path="url(#22)"><g transform="matrix(0.24008 0 0 0.2411111 212.83 212.14)"><g transform="matrix(1 0 0 1 0 0)"><image x="0" y="0" xlink:href="img_20.png" width="375" height="108" /></g></g></g><g clip-path="url(#23)"><g transform="matrix(0.24 0 0 0.2411111 316.9 212.14)"><g transform="matrix(1 0 0 1 0 0)"><image x="0" y="0" xlink:href="img_21.png" width="525" height="108" /></g></g></g><g clip-path="url(#24)"><g transform="matrix(0.24 0 0 0.2413333 42.528 259.636)"><g transform="matrix(1 0 0 1 0 0)"><image x="0" y="0" xlink:href="img_22.png" width="150" height="108" /></g></g></g><g clip-path="url(#25)"><g transform="matrix(0.2400667 0 0 0.2413333 64.608 259.636)"><g transform="matrix(1 0 0 1 0 0)"><image x="0" y="0" xlink:href="img_23.png" width="450" height="108" /></g></g></g><g clip-path="url(#26)"><g transform="matrix(0.24 0 0 0.2413333 158.83 259.636)"><g transform="matrix(1 0 0 1 0 0)"><image x="0" y="0" xlink:href="img_24.png" width="375" height="108" /></g></g></g><g clip-path="url(#27)"><g transform="matrix(0.2400364 0 0 0.2413333 230.83 259.636)"><g transform="matrix(1 0 0 1 0 0)"><image x="0" y="0" xlink:href="img_25.png" width="825" height="108" /></g></g></g><g clip-path="url(#28)"><g transform="matrix(0.2400267 0 0 0.2411111 114.55 294.24)"><g transform="matrix(1 0 0 1 0 0)"><image x="0" y="0" xlink:href="img_26.png" width="1125" height="108" /></g></g></g><g clip-path="url(#29)"><g transform="matrix(0.24 0 0 0.2411111 42.528 341.76)"><g transform="matrix(1 0 0 1 0 0)"><image x="0" y="0" xlink:href="img_27.png" width="150" height="108" /></g></g></g><g clip-path="url(#30)"><g transform="matrix(0.2401067 0 0 0.2411111 64.608 341.76)"><g transform="matrix(1 0 0 1 0 0)"><image x="0" y="0" xlink:href="img_28.png" width="300" height="108" /></g></g></g><g clip-path="url(#31)"><g transform="matrix(0.24 0 0 0.2411111 118.63 341.76)"><g transform="matrix(1 0 0 1 0 0)"><image x="0" y="0" xlink:href="img_29.png" width="375" height="108" /></g></g></g><g clip-path="url(#32)"><g transform="matrix(0.24 0 0 0.2413333 114.55 376.296)"><g transform="matrix(1 0 0 1 0 0)"><image x="0" y="0" xlink:href="img_30.png" width="675" height="108" /></g></g></g><g clip-path="url(#33)"><g transform="matrix(0.24 0 0 0.2413333 290.62 376.296)"><g transform="matrix(1 0 0 1 0 0)"><image x="0" y="0" xlink:href="img_31.png" width="675" height="108" /></g></g></g><g clip-path="url(#34)"><g transform="matrix(0.24 0 0 0.2411111 114.55 404.42)"><g transform="matrix(1 0 0 1 0 0)"><image x="0" y="0" xlink:href="img_32.png" width="600" height="108" /></g></g></g><g clip-path="url(#35)"><g transform="matrix(0.2403502 0 0 0.2411111 240.55 404.42)"><g transform="matrix(1 0 0 1 0 0)"><image x="0" y="0" xlink:href="img_33.png" width="217" height="108" /></g></g></g><g clip-path="url(#36)"><g transform="matrix(0.24 0 0 0.2411111 288.7 404.42)"><g transform="matrix(1 0 0 1 0 0)"><image x="0" y="0" xlink:href="img_34.png" width="600" height="108" /></g></g></g><g clip-path="url(#37)"><g transform="matrix(0.24 0 0 0.2411111 114.55 432.504)"><g transform="matrix(1 0 0 1 0 0)"><image x="0" y="0" xlink:href="img_35.png" width="600" height="108" /></g></g></g><g clip-path="url(#38)"><g transform="matrix(0.24 0 0 0.2413333 42.528 480)"><g transform="matrix(1 0 0 1 0 0)"><image x="0" y="0" xlink:href="img_36.png" width="150" height="108" /></g></g></g><g clip-path="url(#39)"><g transform="matrix(0.24016 0 0 0.2413333 64.608 480)"><g transform="matrix(1 0 0 1 0 0)"><image x="0" y="0" xlink:href="img_37.png" width="225" height="108" /></g></g></g><path id="40" transform="matrix(1 0 0 -1 0 540)" d="M103.38 352.86L103.38 305.9" stroke="#7F7F7F" stroke-width="2" fill="none" /><path id="41" transform="matrix(1 0 0 -1 0 540)" d="M103.38 160.5L103.38 84.065" stroke="#7F7F7F" stroke-width="2" fill="none" /><path id="42" transform="matrix(1 0 0 -1 0 540)" d="M103.38 244.14L103.38 222.23" stroke="#7F7F7F" stroke-width="2" fill="none" /><g clip-path="url(#40)"></g><g clip-path="url(#41)"></g><g clip-path="url(#42)"></g><g clip-path="url(#43)"></g><g clip-path="url(#44)"></g><g clip-path="url(#45)"></g><g clip-path="url(#46)"></g><g clip-path="url(#47)"><g transform="matrix(0.2400333 0 0 0.2411111 509.93 396.67)"><g transform="matrix(1 0 0 1 0 0)"><image x="0" y="0" xlink:href="img_38.png" width="900" height="108" /></g></g></g><g clip-path="url(#48)"><g transform="matrix(0.2401928 0 0 0.2411111 707.95 396.67)"><g transform="matrix(1 0 0 1 0 0)"><image x="0" y="0" xlink:href="img_39.png" width="166" height="108" /></g></g></g><g clip-path="url(#49)"><g transform="matrix(0.24 0 0 0.2411111 737.86 396.67)"><g transform="matrix(1 0 0 1 0 0)"><image x="0" y="0" xlink:href="img_40.png" width="750" height="108" /></g></g></g><g clip-path="url(#50)"><g transform="matrix(0.24 0 0 0.2411111 899.86 396.67)"><g transform="matrix(1 0 0 1 0 0)"><image x="0" y="0" xlink:href="img_41.png" width="83" height="108" /></g></g></g><g clip-path="url(#51)"><g transform="matrix(0.24008 0 0 0.2411111 485.81 429.072)"><g transform="matrix(1 0 0 1 0 0)"><image x="0" y="0" xlink:href="img_42.png" width="375" height="108" /></g></g></g><g clip-path="url(#52)"><g transform="matrix(0.2409677 0 0 0.2411111 561.79 429.072)"><g transform="matrix(1 0 0 1 0 0)"><image x="0" y="0" xlink:href="img_43.png" width="124" height="108" /></g></g></g><g clip-path="url(#53)"><g transform="matrix(0.24 0 0 0.2411111 581.71 429.072)"><g transform="matrix(1 0 0 1 0 0)"><image x="0" y="0" xlink:href="img_44.png" width="55" height="108" /></g></g></g><g clip-path="url(#54)"><g transform="matrix(0.2412371 0 0 0.2411111 588.31 429.072)"><g transform="matrix(1 0 0 1 0 0)"><image x="0" y="0" xlink:href="img_45.png" width="97" height="108" /></g></g></g><g clip-path="url(#55)"><g transform="matrix(0.24 0 0 0.2411111 603.91 429.072)"><g transform="matrix(1 0 0 1 0 0)"><image x="0" y="0" xlink:href="img_46.png" width="300" height="108" /></g></g></g><g clip-path="url(#56)"><g transform="matrix(0.2409677 0 0 0.2411111 661.99 429.072)"><g transform="matrix(1 0 0 1 0 0)"><image x="0" y="0" xlink:href="img_47.png" width="124" height="108" /></g></g></g><g clip-path="url(#57)"><g transform="matrix(0.24 0 0 0.2411111 681.91 429.072)"><g transform="matrix(1 0 0 1 0 0)"><image x="0" y="0" xlink:href="img_44.png" width="55" height="108" /></g></g></g><g clip-path="url(#58)"><g transform="matrix(0.2425263 0 0 0.2411111 688.51 429.072)"><g transform="matrix(1 0 0 1 0 0)"><image x="0" y="0" xlink:href="img_48.png" width="95" height="108" /></g></g></g><g clip-path="url(#59)"><g transform="matrix(0.2400308 0 0 0.2411111 700.03 429.072)"><g transform="matrix(1 0 0 1 0 0)"><image x="0" y="0" xlink:href="img_49.png" width="975" height="108" /></g></g></g><g clip-path="url(#60)"><g transform="matrix(0.24005 0 0 0.2413333 485.81 461.448)"><g transform="matrix(1 0 0 1 0 0)"><image x="0" y="0" xlink:href="img_50.png" width="600" height="108" /></g></g></g><g clip-path="url(#61)"><g transform="matrix(0.24 0 0 0.2413333 611.83 461.448)"><g transform="matrix(1 0 0 1 0 0)"><image x="0" y="0" xlink:href="img_51.png" width="150" height="108" /></g></g></g><g clip-path="url(#62)"><g transform="matrix(0.2400571 0 0 0.2413333 629.83 461.448)"><g transform="matrix(1 0 0 1 0 0)"><image x="0" y="0" xlink:href="img_52.png" width="525" height="108" /></g></g></g><path id="134" transform="matrix(1 0 0 -1 0 540)" d="M469.32 148.2L924.72 148.2L924.72 148.2L924.72 175.2L924.72 175.2L469.32 175.2z" stroke="none" fill="#FFC000" fill-rule="evenodd" fill-opacity="0.1215686" /><g clip-path="url(#63)"><g transform="matrix(0.2402874 0 0 0.24 476.62 362.33)"><g transform="matrix(1 0 0 1 0 0)"><image x="0" y="0" xlink:href="img_53.png" width="167" height="121" /></g></g></g><g clip-path="url(#64)"><g transform="matrix(0.24 0 0 0.24 496.68 362.33)"><g transform="matrix(1 0 0 1 0 0)"><image x="0" y="0" xlink:href="img_54.png" width="334" height="121" /></g></g></g><g clip-path="url(#65)"><g transform="matrix(0.24 0 0 0.24 556.8 362.33)"><g transform="matrix(1 0 0 1 0 0)"><image x="0" y="0" xlink:href="img_55.png" width="167" height="121" /></g></g></g><g clip-path="url(#66)"><g transform="matrix(0.24 0 0 0.24 576.84 362.33)"><g transform="matrix(1 0 0 1 0 0)"><image x="0" y="0" xlink:href="img_56.png" width="334" height="121" /></g></g></g><path id="139" transform="matrix(1 0 0 -1 0 540)" d="M540.31 194.47L532.86 186.14L530.66 197.1zM424.87 271.06L430.15 271L435.43 270.82L440.68 270.53L445.92 270.11L451.1 269.6L456.24 268.97L461.3 268.26L466.3 267.44L471.22 266.53L476.05 265.53L480.77 264.45L485.38 263.28L489.87 262.04L494.22 260.72L498.43 259.34L502.49 257.88L506.38 256.37L508.27 255.58L510.1 254.79L511.9 253.98L513.64 253.16L515.34 252.32L516.98 251.48L518.58 250.62L520.12 249.75L521.61 248.86L523.05 247.97L524.43 247.06L525.76 246.15L527.02 245.22L528.23 244.28L529.37 243.34L530.46 242.39L531.48 241.42L532.43 240.45L533.32 239.46L534.15 238.48L534.9 237.47L535.58 236.46L536.19 235.44L536.73 234.42L537.19 233.38L537.57 232.34L537.87 231.28L538.09 230.23L538.21 229.17L538.26 228.12L538.24 224.16L538.16 220.24L538.04 216.4L537.89 212.64L537.68 209L537.57 207.24L537.45 205.52L537.32 203.85L537.18 202.22L537.04 200.66L536.88 199.14L536.73 197.69L536.55 196.26L536.2 194.61L534.24 195.03L534.59 196.64L534.57 196.54L534.74 197.92L534.74 197.91L534.9 199.35L534.89 199.34L535.04 200.85L535.04 200.84L535.19 202.4L535.33 204.02L535.33 204.01L535.46 205.67L535.45 205.67L535.57 207.38L535.57 207.37L535.69 209.13L535.69 209.12L535.89 212.74L535.89 212.73L536.05 216.48L536.05 216.47L536.17 220.3L536.17 220.29L536.24 224.19L536.24 224.17L536.26 228.1L536.26 228.05L536.22 229.04L536.22 228.97L536.1 229.95L536.12 229.87L535.92 230.84L535.93 230.77L535.66 231.76L535.68 231.68L535.32 232.67L535.34 232.61L534.91 233.58L534.95 233.52L534.44 234.49L534.46 234.44L533.88 235.41L533.91 235.37L533.25 236.34L533.28 236.3L532.56 237.26L532.59 237.21L531.8 238.17L531.83 238.14L530.96 239.09L530.99 239.06L530.06 240L530.08 239.98L529.09 240.93L529.12 240.9L528.07 241.83L528.09 241.81L526.97 242.73L526.99 242.71L525.8 243.64L525.83 243.62L524.59 244.53L524.61 244.51L523.31 245.41L523.33 245.4L521.96 246.29L521.98 246.28L520.56 247.16L520.58 247.15L519.11 248.02L519.13 248.01L517.61 248.87L517.62 248.86L516.04 249.72L516.06 249.71L514.43 250.54L514.45 250.53L512.76 251.37L512.78 251.36L511.05 252.17L511.07 252.16L509.29 252.96L509.3 252.96L507.48 253.74L507.49 253.74L505.62 254.52L505.64 254.51L501.78 256.01L501.8 256L497.77 257.45L497.79 257.44L493.61 258.82L493.63 258.81L489.3 260.12L489.33 260.11L484.86 261.35L484.88 261.34L480.29 262.51L480.32 262.5L475.61 263.58L475.64 263.58L470.83 264.57L470.85 264.56L465.95 265.47L465.97 265.47L460.99 266.28L461.01 266.28L455.97 266.99L455.98 266.99L450.87 267.61L450.89 267.61L445.73 268.12L445.75 268.12L440.54 268.53L440.56 268.53L435.33 268.82L435.35 268.82L430.09 269L430.11 269L424.85 269.06z" stroke="none" fill="#4472C4" fill-rule="nonzero" /></g></g></svg>