<svg xmlns="http://www.w3.org/2000/svg" xmlns:xlink="http://www.w3.org/1999/xlink" id="body_1" preserveAspectRatio="xMinYMin meet" viewBox="0 0 1280 720"><defs><clipPath id="1"><path id="" clip-rule="evenodd" transform="matrix(1 0 0 1 0 0)" d="M0 540L0 0L0 0L960 0L960 0L960 540L960 540L0 540z" /></clipPath><clipPath id="2"><path id="" clip-rule="evenodd" transform="matrix(1 0 0 1 0 0)" d="M0 539.9999L960 539.9999L960 539.9999L960 -0.0001220703L960 -0.0001220703L0 -0.0001220703z" /></clipPath><clipPath id="3"><path id="" clip-rule="evenodd" transform="matrix(1 0 0 1 0 0)" d="M1.4305E-05 540L960 540L960 540L960 0L960 0L1.4305E-05 0z" /></clipPath><clipPath id="4"><path id="" clip-rule="evenodd" transform="matrix(1 0 0 1 0 0)" d="M1.4305E-05 540L960 540L960 540L960 0L960 0L1.4305E-05 0z" /></clipPath><clipPath id="5"><path id="" clip-rule="evenodd" transform="matrix(1 0 0 1 0 0)" d="M1.4305E-05 540L960 540L960 540L960 0L960 0L1.4305E-05 0z" /></clipPath><clipPath id="6"><path id="" clip-rule="evenodd" transform="matrix(1 0 0 1 0 0)" d="M1.4305E-05 540L960 540L960 540L960 0L960 0L1.4305E-05 0z" /></clipPath><clipPath id="7"><path id="" clip-rule="evenodd" transform="matrix(1 0 0 1 0 0)" d="M1.4305E-05 540L960 540L960 540L960 0L960 0L1.4305E-05 0z" /></clipPath><clipPath id="8"><path id="" clip-rule="evenodd" transform="matrix(1 0 0 1 0 0)" d="M1.4305E-05 540L960 540L960 540L960 0L960 0L1.4305E-05 0z" /></clipPath><clipPath id="9"><path id="" clip-rule="evenodd" transform="matrix(1 0 0 1 0 0)" d="M15.24 462.48L197.04 462.48L197.04 462.48L197.04 261.96L197.04 261.96L15.24 261.96z" /></clipPath><clipPath id="10"><path id="" clip-rule="evenodd" transform="matrix(1 0 0 1 0 0)" d="M1.4305E-05 540L960 540L960 540L960 0L960 0L1.4305E-05 0z" /></clipPath><clipPath id="11"><path id="" clip-rule="evenodd" transform="matrix(1 0 0 1 0 0)" d="M1.4305E-05 540L960 540L960 540L960 0L960 0L1.4305E-05 0z" /></clipPath><clipPath id="12"><path id="" clip-rule="evenodd" transform="matrix(1 0 0 1 0 0)" d="M1.4305E-05 540L960 540L960 540L960 0L960 0L1.4305E-05 0z" /></clipPath><clipPath id="13"><path id="" clip-rule="evenodd" transform="matrix(1 0 0 1 0 0)" d="M1.4305E-05 540L960 540L960 540L960 0L960 0L1.4305E-05 0z" /></clipPath><clipPath id="14"><path id="" clip-rule="evenodd" transform="matrix(1 0 0 1 0 0)" d="M1.4305E-05 540L960 540L960 540L960 0L960 0L1.4305E-05 0z" /></clipPath><clipPath id="15"><path id="" clip-rule="evenodd" transform="matrix(1 0 0 1 0 0)" d="M1.4305E-05 540L960 540L960 540L960 0L960 0L1.4305E-05 0z" /></clipPath><clipPath id="16"><path id="" clip-rule="evenodd" transform="matrix(1 0 0 1 0 0)" d="M1.4305E-05 540L960 540L960 540L960 0L960 0L1.4305E-05 0z" /></clipPath><clipPath id="17"><path id="" clip-rule="evenodd" transform="matrix(1 0 0 1 0 0)" d="M1.4305E-05 540L960 540L960 540L960 0L960 0L1.4305E-05 0z" /></clipPath><clipPath id="18"><path id="" clip-rule="evenodd" transform="matrix(1 0 0 1 0 0)" d="M534.36 470.88L703.56 470.88L703.56 470.88L703.56 273.48L703.56 273.48L534.36 273.48z" /></clipPath><clipPath id="19"><path id="" clip-rule="evenodd" transform="matrix(1 0 0 1 0 0)" d="M1.4305E-05 540L960 540L960 540L960 0L960 0L1.4305E-05 0z" /></clipPath><clipPath id="20"><path id="" clip-rule="evenodd" transform="matrix(1 0 0 1 0 0)" d="M1.4305E-05 540L960 540L960 540L960 0L960 0L1.4305E-05 0z" /></clipPath><clipPath id="21"><path id="" clip-rule="evenodd" transform="matrix(1 0 0 1 0 0)" d="M769.56 470.88L943.08 470.88L943.08 470.88L943.08 125.88L943.08 125.88L769.56 125.88z" /></clipPath><clipPath id="22"><path id="" clip-rule="evenodd" transform="matrix(1 0 0 1 0 0)" d="M259.68 481.44L490.2 481.44L490.2 481.44L490.2 245.88L490.2 245.88L259.68 245.88z" /></clipPath><clipPath id="23"><path id="" clip-rule="evenodd" transform="matrix(1 0 0 1 0 0)" d="M1.4305E-05 540L960 540L960 540L960 0L960 0L1.4305E-05 0z" /></clipPath><clipPath id="24"><path id="" clip-rule="evenodd" transform="matrix(1 0 0 1 0 0)" d="M1.4305E-05 540L960 540L960 540L960 0L960 0L1.4305E-05 0z" /></clipPath><clipPath id="25"><path id="" clip-rule="evenodd" transform="matrix(1 0 0 1 0 0)" d="M1.4305E-05 540L960 540L960 540L960 0L960 0L1.4305E-05 0z" /></clipPath><clipPath id="26"><path id="" clip-rule="evenodd" transform="matrix(1 0 0 1 0 0)" d="M1.4305E-05 540L960 540L960 540L960 0L960 0L1.4305E-05 0z" /></clipPath><clipPath id="27"><path id="" clip-rule="evenodd" transform="matrix(1 0 0 1 0 0)" d="M1.4305E-05 540L960 540L960 540L960 0L960 0L1.4305E-05 0z" /></clipPath><clipPath id="28"><path id="" clip-rule="evenodd" transform="matrix(1 0 0 1 0 0)" d="M1.4305E-05 540L960 540L960 540L960 0L960 0L1.4305E-05 0z" /></clipPath><clipPath id="29"><path id="" clip-rule="evenodd" transform="matrix(1 0 0 1 0 0)" d="M1.4305E-05 540L960 540L960 540L960 0L960 0L1.4305E-05 0z" /></clipPath><clipPath id="30"><path id="" clip-rule="evenodd" transform="matrix(1 0 0 1 0 0)" d="M1.4305E-05 540L960 540L960 540L960 0L960 0L1.4305E-05 0z" /></clipPath><clipPath id="31"><path id="" clip-rule="evenodd" transform="matrix(1 0 0 1 0 0)" d="M1.4305E-05 540L960 540L960 540L960 0L960 0L1.4305E-05 0z" /></clipPath><clipPath id="32"><path id="" clip-rule="evenodd" transform="matrix(1 0 0 1 0 0)" d="M1.4305E-05 540L960 540L960 540L960 0L960 0L1.4305E-05 0z" /></clipPath><clipPath id="33"><path id="" clip-rule="evenodd" transform="matrix(1 0 0 1 0 0)" d="M1.4305E-05 540L960 540L960 540L960 0L960 0L1.4305E-05 0z" /></clipPath><clipPath id="34"><path id="" clip-rule="evenodd" transform="matrix(1 0 0 1 0 0)" d="M1.4305E-05 540L960 540L960 540L960 0L960 0L1.4305E-05 0z" /></clipPath><clipPath id="35"><path id="" clip-rule="evenodd" transform="matrix(1 0 0 1 0 0)" d="M1.4305E-05 540L960 540L960 540L960 0L960 0L1.4305E-05 0z" /></clipPath><clipPath id="36"><path id="" clip-rule="evenodd" transform="matrix(1 0 0 1 0 0)" d="M1.4305E-05 540L960 540L960 540L960 0L960 0L1.4305E-05 0z" /></clipPath><clipPath id="37"><path id="" clip-rule="evenodd" transform="matrix(1 0 0 1 0 0)" d="M1.4305E-05 540L960 540L960 540L960 0L960 0L1.4305E-05 0z" /></clipPath><clipPath id="38"><path id="" clip-rule="evenodd" transform="matrix(1 0 0 1 0 0)" d="M1.4305E-05 540L960 540L960 540L960 0L960 0L1.4305E-05 0z" /></clipPath></defs><g transform="matrix(1.333333 0 0 1.333333 0 0)"><g clip-path="url(#1)"><g clip-path="url(#2)"><path id="1" transform="matrix(1 0 0 -1 0 540)" d="M0 6.1035E-05L960 6.1035E-05L960 6.1035E-05L960 540.0001L960 540.0001L0 540.0001z" stroke="none" fill="#FFFFFF" fill-rule="evenodd" /></g><path id="2" transform="matrix(1 0 0 -1 0 540)" d="M24 458.88L684.48 458.88L684.48 458.88L684.48 478.44L684.48 478.44L24 478.44z" stroke="none" fill="#FFC000" fill-rule="evenodd" fill-opacity="0.2" /><g clip-path="url(#3)"><g transform="matrix(0.2401288 0 0 0.2400996 35.496 22.63599)"><g transform="matrix(1 0 0 1 0 0)"><image x="0" y="0" xlink:href="img_01.png" width="1165" height="241" /></g></g></g><g clip-path="url(#4)"><g transform="matrix(0.24 0 0 0.2400996 275.28 22.63599)"><g transform="matrix(1 0 0 1 0 0)"><image x="0" y="0" xlink:href="img_02.png" width="333" height="241" /></g></g></g><g clip-path="url(#5)"><g transform="matrix(0.240067 0 0 0.2400996 315.24 22.63599)"><g transform="matrix(1 0 0 1 0 0)"><image x="0" y="0" xlink:href="img_03.png" width="448" height="241" /></g></g></g><g clip-path="url(#6)"><g transform="matrix(0.2402405 0 0 0.2400996 395.9 22.63599)"><g transform="matrix(1 0 0 1 0 0)"><image x="0" y="0" xlink:href="img_04.png" width="499" height="241" /></g></g></g><g clip-path="url(#7)"><g transform="matrix(0.24 0 0 0.2400996 475.82 22.63599)"><g transform="matrix(1 0 0 1 0 0)"><image x="0" y="0" xlink:href="img_05.png" width="298" height="241" /></g></g></g><g clip-path="url(#8)"><g transform="matrix(0.2401803 0 0 0.2400996 511.58 22.63599)"><g transform="matrix(1 0 0 1 0 0)"><image x="0" y="0" xlink:href="img_06.png" width="832" height="241" /></g></g></g><g clip-path="url(#9)"><g transform="matrix(0.6 0 0 0.6003593 15.24 261.96)"><g transform="matrix(1 0 0 1 0 0)"><image x="0" y="0" xlink:href="img_07.png" width="303" height="334" /></g></g></g><g clip-path="url(#10)"><g transform="matrix(0.24 0 0 0.2411111 62.04 471.432)"><g transform="matrix(1 0 0 1 0 0)"><image x="0" y="0" xlink:href="img_08.png" width="51" height="108" /></g></g></g><g clip-path="url(#11)"><g transform="matrix(0.24 0 0 0.2411111 68.16 471.432)"><g transform="matrix(1 0 0 1 0 0)"><image x="0" y="0" xlink:href="img_09.png" width="150" height="108" /></g></g></g><g clip-path="url(#12)"><g transform="matrix(0.24 0 0 0.2411111 86.16 471.432)"><g transform="matrix(1 0 0 1 0 0)"><image x="0" y="0" xlink:href="img_10.png" width="63" height="108" /></g></g></g><g clip-path="url(#13)"><g transform="matrix(0.24 0 0 0.2411111 96.24 471.432)"><g transform="matrix(1 0 0 1 0 0)"><image x="0" y="0" xlink:href="img_11.png" width="300" height="108" /></g></g></g><path id="14" transform="matrix(1 0 0 -1 0 540)" d="M247.98 172.82L257.98 167.82L247.98 162.82zM177.18 168.82L248.98 168.82L248.98 166.82L177.18 166.82z" stroke="none" fill="#FFC000" fill-rule="nonzero" /><g clip-path="url(#14)"><g transform="matrix(0.24 0 0 0.2413333 190.49 342.556)"><g transform="matrix(1 0 0 1 0 0)"><image x="0" y="0" xlink:href="img_12.png" width="300" height="108" /></g></g></g><g clip-path="url(#15)"><g transform="matrix(0.24 0 0 0.2411111 199.49 375)"><g transform="matrix(1 0 0 1 0 0)"><image x="0" y="0" xlink:href="img_13.png" width="225" height="108" /></g></g></g><g clip-path="url(#16)"><g transform="matrix(0.2400303 0 0 0.2413333 57.048 104.236)"><g transform="matrix(1 0 0 1 0 0)"><image x="0" y="0" xlink:href="img_14.png" width="1650" height="108" /></g></g></g><g clip-path="url(#17)"><g transform="matrix(0.2400238 0 0 0.2411111 57.048 136.68)"><g transform="matrix(1 0 0 1 0 0)"><image x="0" y="0" xlink:href="img_15.png" width="2100" height="108" /></g></g></g><g clip-path="url(#18)"><g transform="matrix(0.6 0 0 0.6 534.36 273.48)"><g transform="matrix(1 0 0 1 0 0)"><image x="0" y="0" xlink:href="img_16.png" width="282" height="329" /></g></g></g><path id="20" transform="matrix(1 0 0 -1 0 540)" d="M630.36 81.6L692.76 81.6L692.76 81.6L692.76 117.84L692.76 117.84L630.36 117.84z" stroke="none" fill="#FFFFFF" fill-rule="evenodd" /><g clip-path="url(#19)"><g transform="matrix(0.24 0 0 0.2415 637.68 427.536)"><g transform="matrix(1 0 0 1 0 0)"><image x="0" y="0" xlink:href="img_17.png" width="266" height="96" /></g></g></g><path id="22" transform="matrix(1 0 0 -1 0 540)" d="M544.8 124.56L642.6 124.56L642.6 124.56L642.6 141.36L642.6 141.36L544.8 141.36z" stroke="none" fill="#FFFFFF" fill-rule="evenodd" /><g clip-path="url(#20)"><g transform="matrix(0.24 0 0 0.2415 553.87 394.276)"><g transform="matrix(1 0 0 1 0 0)"><image x="0" y="0" xlink:href="img_18.png" width="399" height="96" /></g></g></g><g clip-path="url(#21)"><g transform="matrix(0.7511688 0 0 0.7516339 769.56 125.88)"><g transform="matrix(1 0 0 1 0 0)"><image x="0" y="0" xlink:href="img_19.png" width="231" height="459" /></g></g></g><g clip-path="url(#22)"><g transform="matrix(0.7508795 0 0 0.7501911 259.68 245.88)"><g transform="matrix(1 0 0 1 0 0)"><image x="0" y="0" xlink:href="img_20.png" width="307" height="314" /></g></g></g><g clip-path="url(#23)"><g transform="matrix(0.24008 0 0 0.2413333 338.93 487.488)"><g transform="matrix(1 0 0 1 0 0)"><image x="0" y="0" xlink:href="img_21.png" width="375" height="108" /></g></g></g><g clip-path="url(#24)"><g transform="matrix(0.24 0 0 0.24125 366.22 238.54)"><g transform="matrix(1 0 0 1 0 0)"><image x="0" y="0" xlink:href="img_22.png" width="399" height="96" /></g></g></g><g clip-path="url(#25)"><g transform="matrix(0.2408602 0 0 0.24125 261 287.95)"><g transform="matrix(1 0 0 1 0 0)"><image x="0" y="0" xlink:href="img_23.png" width="186" height="96" /></g></g></g><g clip-path="url(#26)"><g transform="matrix(0.240603 0 0 0.24125 294.6 287.95)"><g transform="matrix(1 0 0 1 0 0)"><image x="0" y="0" xlink:href="img_24.png" width="199" height="96" /></g></g></g><g clip-path="url(#27)"><g transform="matrix(0.2404518 0 0 0.24125 442.3 402.55)"><g transform="matrix(1 0 0 1 0 0)"><image x="0" y="0" xlink:href="img_25.png" width="332" height="96" /></g></g></g><g clip-path="url(#28)"><g transform="matrix(0.2402581 0 0 0.24125 290.45 458.352)"><g transform="matrix(1 0 0 1 0 0)"><image x="0" y="0" xlink:href="img_26.png" width="465" height="96" /></g></g></g><path id="32" transform="matrix(1 0 0 -1 0 540)" d="M796.08 238.22L806.08 233.22L796.08 228.22zM708.3 234.22L797.08 234.22L797.08 232.22L708.3 232.22z" stroke="none" fill="#FFC000" fill-rule="nonzero" /><g clip-path="url(#29)"><g transform="matrix(0.24 0 0 0.2413333 721.15 277.296)"><g transform="matrix(1 0 0 1 0 0)"><image x="0" y="0" xlink:href="img_27.png" width="375" height="108" /></g></g></g><path id="34" transform="matrix(1 0 0 -1 0 540)" d="M551.04 182.42L561.04 177.42L551.04 172.42zM463.26 178.42L552.04 178.42L552.04 176.42L463.26 176.42z" stroke="none" fill="#FFC000" fill-rule="nonzero" /><g clip-path="url(#30)"><g transform="matrix(0.24 0 0 0.2411111 476.11 332.18)"><g transform="matrix(1 0 0 1 0 0)"><image x="0" y="0" xlink:href="img_28.png" width="375" height="108" /></g></g></g><g clip-path="url(#31)"><g transform="matrix(0.24 0 0 0.2411111 485.11 364.58)"><g transform="matrix(1 0 0 1 0 0)"><image x="0" y="0" xlink:href="img_29.png" width="300" height="108" /></g></g></g><g clip-path="url(#32)"><g transform="matrix(0.2400513 0 0 0.2411111 179.11 180.79)"><g transform="matrix(1 0 0 1 0 0)"><image x="0" y="0" xlink:href="img_30.png" width="975" height="108" /></g></g></g><g clip-path="url(#33)"><g transform="matrix(0.2400444 0 0 0.2411111 179.11 213.19)"><g transform="matrix(1 0 0 1 0 0)"><image x="0" y="0" xlink:href="img_31.png" width="675" height="108" /></g></g></g><g clip-path="url(#34)"><g transform="matrix(0.24 0 0 0.2411111 59.496 196.85)"><g transform="matrix(1 0 0 1 0 0)"><image x="0" y="0" xlink:href="img_32.png" width="225" height="108" /></g></g></g><g clip-path="url(#35)"><g transform="matrix(0.24 0 0 0.2411111 99.576 196.85)"><g transform="matrix(1 0 0 1 0 0)"><image x="0" y="0" xlink:href="img_33.png" width="69" height="108" /></g></g></g><g clip-path="url(#36)"><g transform="matrix(0.2405334 0 0 0.2411111 110.62 196.85)"><g transform="matrix(1 0 0 1 0 0)"><image x="0" y="0" xlink:href="img_34.png" width="300" height="108" /></g></g></g><path id="42" transform="matrix(1 0 0 -1 0 540)" d="M169.62 356.1L169.62 302.65" stroke="#FFC000" stroke-width="2" fill="none" /><g clip-path="url(#37)"><g transform="matrix(0.24 0 0 0.2411111 728.3 316.97)"><g transform="matrix(1 0 0 1 0 0)"><image x="0" y="0" xlink:href="img_35.png" width="300" height="108" /></g></g></g><g clip-path="url(#38)"><g transform="matrix(0.24 0 0 0.2411111 701.3 338.57)"><g transform="matrix(1 0 0 1 0 0)"><image x="0" y="0" xlink:href="img_36.png" width="525" height="108" /></g></g></g></g></g></svg>