<svg xmlns="http://www.w3.org/2000/svg" xmlns:xlink="http://www.w3.org/1999/xlink" id="body_1" preserveAspectRatio="xMinYMin meet" viewBox="0 0 1280 720"><defs><clipPath id="1"><path id="" clip-rule="evenodd" transform="matrix(1 0 0 1 0 0)" d="M0 540L0 0L0 0L960 0L960 0L960 540L960 540L0 540z" /></clipPath><clipPath id="2"><path id="" clip-rule="evenodd" transform="matrix(1 0 0 1 0 0)" d="M0 539.9999L960 539.9999L960 539.9999L960 -0.0001220703L960 -0.0001220703L0 -0.0001220703z" /></clipPath><clipPath id="3"><path id="" clip-rule="evenodd" transform="matrix(1 0 0 1 0 0)" d="M676.32 312.96L903.6 312.96L903.6 312.96L903.6 72.60001L903.6 72.60001L676.32 72.60001z" /></clipPath><clipPath id="4"><path id="" clip-rule="evenodd" transform="matrix(1 0 0 1 0 0)" d="M1.4305E-05 540L960 540L960 540L960 0L960 0L1.4305E-05 0z" /></clipPath><clipPath id="5"><path id="" clip-rule="evenodd" transform="matrix(1 0 0 1 0 0)" d="M1.4305E-05 540L960 540L960 540L960 0L960 0L1.4305E-05 0z" /></clipPath><clipPath id="6"><path id="" clip-rule="evenodd" transform="matrix(1 0 0 1 0 0)" d="M1.4305E-05 540L960 540L960 540L960 0L960 0L1.4305E-05 0z" /></clipPath><clipPath id="7"><path id="" clip-rule="evenodd" transform="matrix(1 0 0 1 0 0)" d="M1.4305E-05 540L960 540L960 540L960 0L960 0L1.4305E-05 0z" /></clipPath><clipPath id="8"><path id="" clip-rule="evenodd" transform="matrix(1 0 0 1 0 0)" d="M1.4305E-05 540L960 540L960 540L960 0L960 0L1.4305E-05 0z" /></clipPath><clipPath id="9"><path id="" clip-rule="evenodd" transform="matrix(1 0 0 1 0 0)" d="M1.4305E-05 540L960 540L960 540L960 0L960 0L1.4305E-05 0z" /></clipPath><clipPath id="10"><path id="" clip-rule="evenodd" transform="matrix(1 0 0 1 0 0)" d="M1.4305E-05 540L960 540L960 540L960 0L960 0L1.4305E-05 0z" /></clipPath><clipPath id="11"><path id="" clip-rule="evenodd" transform="matrix(1 0 0 1 0 0)" d="M1.4305E-05 540L960 540L960 540L960 0L960 0L1.4305E-05 0z" /></clipPath><clipPath id="12"><path id="" clip-rule="evenodd" transform="matrix(1 0 0 1 0 0)" d="M1.4305E-05 540L960 540L960 540L960 0L960 0L1.4305E-05 0z" /></clipPath><clipPath id="13"><path id="" clip-rule="evenodd" transform="matrix(1 0 0 1 0 0)" d="M1.4305E-05 540L960 540L960 540L960 0L960 0L1.4305E-05 0z" /></clipPath><clipPath id="14"><path id="" clip-rule="evenodd" transform="matrix(1 0 0 1 0 0)" d="M1.4305E-05 540L960 540L960 540L960 0L960 0L1.4305E-05 0z" /></clipPath><clipPath id="15"><path id="" clip-rule="evenodd" transform="matrix(1 0 0 1 0 0)" d="M1.4305E-05 540L960 540L960 540L960 0L960 0L1.4305E-05 0z" /></clipPath><clipPath id="16"><path id="" clip-rule="evenodd" transform="matrix(1 0 0 1 0 0)" d="M1.4305E-05 540L960 540L960 540L960 0L960 0L1.4305E-05 0z" /></clipPath><clipPath id="17"><path id="" clip-rule="evenodd" transform="matrix(1 0 0 1 0 0)" d="M1.4305E-05 540L960 540L960 540L960 0L960 0L1.4305E-05 0z" /></clipPath><clipPath id="18"><path id="" clip-rule="evenodd" transform="matrix(1 0 0 1 0 0)" d="M1.4305E-05 540L960 540L960 540L960 0L960 0L1.4305E-05 0z" /></clipPath><clipPath id="19"><path id="" clip-rule="evenodd" transform="matrix(1 0 0 1 0 0)" d="M1.4305E-05 540L960 540L960 540L960 0L960 0L1.4305E-05 0z" /></clipPath><clipPath id="20"><path id="" clip-rule="evenodd" transform="matrix(1 0 0 1 0 0)" d="M1.4305E-05 540L960 540L960 540L960 0L960 0L1.4305E-05 0z" /></clipPath><clipPath id="21"><path id="" clip-rule="evenodd" transform="matrix(1 0 0 1 0 0)" d="M1.4305E-05 540L960 540L960 540L960 0L960 0L1.4305E-05 0z" /></clipPath><clipPath id="22"><path id="" clip-rule="evenodd" transform="matrix(1 0 0 1 0 0)" d="M1.4305E-05 540L960 540L960 540L960 0L960 0L1.4305E-05 0z" /></clipPath><clipPath id="23"><path id="" clip-rule="evenodd" transform="matrix(1 0 0 1 0 0)" d="M1.4305E-05 540L960 540L960 540L960 0L960 0L1.4305E-05 0z" /></clipPath><clipPath id="24"><path id="" clip-rule="evenodd" transform="matrix(1 0 0 1 0 0)" d="M1.4305E-05 540L960 540L960 540L960 0L960 0L1.4305E-05 0z" /></clipPath><clipPath id="25"><path id="" clip-rule="evenodd" transform="matrix(1 0 0 1 0 0)" d="M1.4305E-05 540L960 540L960 540L960 0L960 0L1.4305E-05 0z" /></clipPath><clipPath id="26"><path id="" clip-rule="evenodd" transform="matrix(1 0 0 1 0 0)" d="M449.4 189.72L490.92 189.72L490.92 189.72L490.92 128.4L490.92 128.4L449.4 128.4z" /></clipPath><clipPath id="27"><path id="" clip-rule="evenodd" transform="matrix(1 0 0 1 0 0)" d="M1.4305E-05 540L960 540L960 540L960 0L960 0L1.4305E-05 0z" /></clipPath><clipPath id="28"><path id="" clip-rule="evenodd" transform="matrix(1 0 0 1 0 0)" d="M1.4305E-05 540L960 540L960 540L960 0L960 0L1.4305E-05 0z" /></clipPath><clipPath id="29"><path id="" clip-rule="evenodd" transform="matrix(1 0 0 1 0 0)" d="M1.4305E-05 540L960 540L960 540L960 0L960 0L1.4305E-05 0z" /></clipPath><clipPath id="30"><path id="" clip-rule="evenodd" transform="matrix(1 0 0 1 0 0)" d="M1.4305E-05 540L960 540L960 540L960 0L960 0L1.4305E-05 0z" /></clipPath><clipPath id="31"><path id="" clip-rule="evenodd" transform="matrix(1 0 0 1 0 0)" d="M1.4305E-05 540L960 540L960 540L960 0L960 0L1.4305E-05 0z" /></clipPath><clipPath id="32"><path id="" clip-rule="evenodd" transform="matrix(1 0 0 1 0 0)" d="M1.4305E-05 540L960 540L960 540L960 0L960 0L1.4305E-05 0z" /></clipPath><clipPath id="33"><path id="" clip-rule="evenodd" transform="matrix(1 0 0 1 0 0)" d="M1.4305E-05 540L960 540L960 540L960 0L960 0L1.4305E-05 0z" /></clipPath><clipPath id="34"><path id="" clip-rule="evenodd" transform="matrix(1 0 0 1 0 0)" d="M1.4305E-05 540L960 540L960 540L960 0L960 0L1.4305E-05 0z" /></clipPath><clipPath id="35"><path id="" clip-rule="evenodd" transform="matrix(1 0 0 1 0 0)" d="M1.4305E-05 540L960 540L960 540L960 0L960 0L1.4305E-05 0z" /></clipPath><clipPath id="36"><path id="" clip-rule="evenodd" transform="matrix(1 0 0 1 0 0)" d="M1.4305E-05 540L960 540L960 540L960 0L960 0L1.4305E-05 0z" /></clipPath><clipPath id="37"><path id="" clip-rule="evenodd" transform="matrix(1 0 0 1 0 0)" d="M1.4305E-05 540L960 540L960 540L960 0L960 0L1.4305E-05 0z" /></clipPath><clipPath id="38"><path id="" clip-rule="evenodd" transform="matrix(1 0 0 1 0 0)" d="M1.4305E-05 540L960 540L960 540L960 0L960 0L1.4305E-05 0z" /></clipPath><clipPath id="39"><path id="" clip-rule="evenodd" transform="matrix(1 0 0 1 0 0)" d="M1.4305E-05 540L960 540L960 540L960 0L960 0L1.4305E-05 0z" /></clipPath><clipPath id="40"><path id="" clip-rule="evenodd" transform="matrix(1 0 0 1 0 0)" d="M1.4305E-05 540L960 540L960 540L960 0L960 0L1.4305E-05 0z" /></clipPath><clipPath id="41"><path id="" clip-rule="evenodd" transform="matrix(1 0 0 1 0 0)" d="M1.4305E-05 540L960 540L960 540L960 0L960 0L1.4305E-05 0z" /></clipPath><clipPath id="42"><path id="" clip-rule="evenodd" transform="matrix(1 0 0 1 0 0)" d="M1.4305E-05 540L960 540L960 540L960 0L960 0L1.4305E-05 0z" /></clipPath><clipPath id="43"><path id="" clip-rule="evenodd" transform="matrix(1 0 0 1 0 0)" d="M1.4305E-05 540L960 540L960 540L960 0L960 0L1.4305E-05 0z" /></clipPath><clipPath id="44"><path id="" clip-rule="evenodd" transform="matrix(1 0 0 1 0 0)" d="M1.4305E-05 540L960 540L960 540L960 0L960 0L1.4305E-05 0z" /></clipPath><clipPath id="45"><path id="" clip-rule="evenodd" transform="matrix(1 0 0 1 0 0)" d="M1.4305E-05 540L960 540L960 540L960 0L960 0L1.4305E-05 0z" /></clipPath><clipPath id="46"><path id="" clip-rule="evenodd" transform="matrix(1 0 0 1 0 0)" d="M855.12 134.04L952.2 134.04L952.2 134.04L952.2 67.67999L952.2 67.67999L855.12 67.67999z" /></clipPath><clipPath id="47"><path id="" clip-rule="evenodd" transform="matrix(1 0 0 1 0 0)" d="M56.4 223.68L363 223.68L363 223.68L363 109.68L363 109.68L56.4 109.68z" /></clipPath><clipPath id="48"><path id="" clip-rule="evenodd" transform="matrix(1 0 0 1 0 0)" d="M645.24 460.08L767.52 460.08L767.52 460.08L767.52 379.2L767.52 379.2L645.24 379.2z" /></clipPath><clipPath id="49"><path id="" clip-rule="evenodd" transform="matrix(1 0 0 1 0 0)" d="M1.4305E-05 540L960 540L960 540L960 0L960 0L1.4305E-05 0z" /></clipPath><clipPath id="50"><path id="" clip-rule="evenodd" transform="matrix(1 0 0 1 0 0)" d="M1.4305E-05 540L960 540L960 540L960 0L960 0L1.4305E-05 0z" /></clipPath><clipPath id="51"><path id="" clip-rule="evenodd" transform="matrix(1 0 0 1 0 0)" d="M1.4305E-05 540L960 540L960 540L960 0L960 0L1.4305E-05 0z" /></clipPath><clipPath id="52"><path id="" clip-rule="evenodd" transform="matrix(1 0 0 1 0 0)" d="M1.4305E-05 540L960 540L960 540L960 0L960 0L1.4305E-05 0z" /></clipPath><clipPath id="53"><path id="" clip-rule="evenodd" transform="matrix(1 0 0 1 0 0)" d="M1.4305E-05 540L960 540L960 540L960 0L960 0L1.4305E-05 0z" /></clipPath><clipPath id="54"><path id="" clip-rule="evenodd" transform="matrix(1 0 0 1 0 0)" d="M1.4305E-05 540L960 540L960 540L960 0L960 0L1.4305E-05 0z" /></clipPath><clipPath id="55"><path id="" clip-rule="evenodd" transform="matrix(1 0 0 1 0 0)" d="M1.4305E-05 540L960 540L960 540L960 0L960 0L1.4305E-05 0z" /></clipPath><clipPath id="56"><path id="" clip-rule="evenodd" transform="matrix(1 0 0 1 0 0)" d="M1.4305E-05 540L960 540L960 540L960 0L960 0L1.4305E-05 0z" /></clipPath><clipPath id="57"><path id="" clip-rule="evenodd" transform="matrix(1 0 0 1 0 0)" d="M60.6 486L294 486L294 486L294 287.28L294 287.28L60.6 287.28z" /></clipPath><clipPath id="58"><path id="" clip-rule="evenodd" transform="matrix(1 0 0 1 0 0)" d="M1.4305E-05 540L960 540L960 540L960 0L960 0L1.4305E-05 0z" /></clipPath><clipPath id="59"><path id="" clip-rule="evenodd" transform="matrix(1 0 0 1 0 0)" d="M1.4305E-05 540L960 540L960 540L960 0L960 0L1.4305E-05 0z" /></clipPath><clipPath id="60"><path id="" clip-rule="evenodd" transform="matrix(1 0 0 1 0 0)" d="M1.4305E-05 540L960 540L960 540L960 0L960 0L1.4305E-05 0z" /></clipPath><clipPath id="61"><path id="" clip-rule="evenodd" transform="matrix(1 0 0 1 0 0)" d="M318.84 490.8L522.72 490.8L522.72 490.8L522.72 284.52L522.72 284.52L318.84 284.52z" /></clipPath><clipPath id="62"><path id="" clip-rule="evenodd" transform="matrix(1 0 0 1 0 0)" d="M1.4305E-05 540L960 540L960 540L960 0L960 0L1.4305E-05 0z" /></clipPath><clipPath id="63"><path id="" clip-rule="evenodd" transform="matrix(1 0 0 1 0 0)" d="M1.4305E-05 540L960 540L960 540L960 0L960 0L1.4305E-05 0z" /></clipPath><clipPath id="64"><path id="" clip-rule="evenodd" transform="matrix(1 0 0 1 0 0)" d="M1.4305E-05 540L960 540L960 540L960 0L960 0L1.4305E-05 0z" /></clipPath><clipPath id="65"><path id="" clip-rule="evenodd" transform="matrix(1 0 0 1 0 0)" d="M1.4305E-05 540L960 540L960 540L960 0L960 0L1.4305E-05 0z" /></clipPath><clipPath id="66"><path id="" clip-rule="evenodd" transform="matrix(1 0 0 1 0 0)" d="M1.4305E-05 540L960 540L960 540L960 0L960 0L1.4305E-05 0z" /></clipPath><clipPath id="67"><path id="" clip-rule="evenodd" transform="matrix(1 0 0 1 0 0)" d="M1.4305E-05 540L960 540L960 540L960 0L960 0L1.4305E-05 0z" /></clipPath><clipPath id="68"><path id="" clip-rule="evenodd" transform="matrix(1 0 0 1 0 0)" d="M1.4305E-05 540L960 540L960 540L960 0L960 0L1.4305E-05 0z" /></clipPath><clipPath id="69"><path id="" clip-rule="evenodd" transform="matrix(1 0 0 1 0 0)" d="M1.4305E-05 540L960 540L960 540L960 0L960 0L1.4305E-05 0z" /></clipPath><clipPath id="70"><path id="" clip-rule="evenodd" transform="matrix(1 0 0 1 0 0)" d="M1.4305E-05 540L960 540L960 540L960 0L960 0L1.4305E-05 0z" /></clipPath><clipPath id="71"><path id="" clip-rule="evenodd" transform="matrix(1 0 0 1 0 0)" d="M1.4305E-05 540L960 540L960 540L960 0L960 0L1.4305E-05 0z" /></clipPath><clipPath id="72"><path id="" clip-rule="evenodd" transform="matrix(1 0 0 1 0 0)" d="M1.4305E-05 540L960 540L960 540L960 0L960 0L1.4305E-05 0z" /></clipPath><clipPath id="73"><path id="" clip-rule="evenodd" transform="matrix(1 0 0 1 0 0)" d="M1.4305E-05 540L960 540L960 540L960 0L960 0L1.4305E-05 0z" /></clipPath><clipPath id="74"><path id="" clip-rule="evenodd" transform="matrix(1 0 0 1 0 0)" d="M1.4305E-05 540L960 540L960 540L960 0L960 0L1.4305E-05 0z" /></clipPath><clipPath id="75"><path id="" clip-rule="evenodd" transform="matrix(1 0 0 1 0 0)" d="M1.4305E-05 540L960 540L960 540L960 0L960 0L1.4305E-05 0z" /></clipPath></defs><g transform="matrix(1.333333 0 0 1.333333 0 0)"><g clip-path="url(#1)"><g clip-path="url(#2)"><path id="1" transform="matrix(1 0 0 -1 0 540)" d="M0 6.1035E-05L960 6.1035E-05L960 6.1035E-05L960 540.0001L960 540.0001L0 540.0001z" stroke="none" fill="#FFFFFF" fill-rule="evenodd" /></g><g clip-path="url(#3)"><g transform="matrix(0.5696241 0 0 0.5695735 676.32 72.60001)"><g transform="matrix(1 0 0 1 0 0)"><image x="0" y="0" xlink:href="img_01.png" width="399" height="422" /></g></g></g><g clip-path="url(#4)"></g><g clip-path="url(#5)"></g><g clip-path="url(#6)"><g transform="matrix(0.2404518 0 0 0.24125 135.74 219.1)"><g transform="matrix(1 0 0 1 0 0)"><image x="0" y="0" xlink:href="img_02.png" width="332" height="96" /></g></g></g><g clip-path="url(#7)"><g transform="matrix(0.240603 0 0 0.2415 68.184 238.276)"><g transform="matrix(1 0 0 1 0 0)"><image x="0" y="0" xlink:href="img_03.png" width="199" height="96" /></g></g></g><g clip-path="url(#8)"></g><g clip-path="url(#9)"><g transform="matrix(0.2403615 0 0 0.2415 104.78 238.276)"><g transform="matrix(1 0 0 1 0 0)"><image x="0" y="0" xlink:href="img_04.png" width="332" height="96" /></g></g></g><g clip-path="url(#10)"></g><g clip-path="url(#11)"></g><g clip-path="url(#12)"></g><g clip-path="url(#13)"><g transform="matrix(0.24 0 0 0.24125 287.59 219.22)"><g transform="matrix(1 0 0 1 0 0)"><image x="0" y="0" xlink:href="img_05.png" width="133" height="96" /></g></g></g><g clip-path="url(#14)"></g><g clip-path="url(#15)"></g><g clip-path="url(#16)"><g transform="matrix(0.2407839 0 0 0.24125 324.67 219.22)"><g transform="matrix(1 0 0 1 0 0)"><image x="0" y="0" xlink:href="img_06.png" width="199" height="96" /></g></g></g><g clip-path="url(#17)"><g transform="matrix(0.24 0 0 0.24125 251.59 238.42)"><g transform="matrix(1 0 0 1 0 0)"><image x="0" y="0" xlink:href="img_07.png" width="133" height="96" /></g></g></g><g clip-path="url(#18)"></g><g clip-path="url(#19)"></g><g clip-path="url(#20)"></g><g clip-path="url(#21)"></g><g clip-path="url(#22)"><g transform="matrix(0.2407839 0 0 0.24125 320.47 238.42)"><g transform="matrix(1 0 0 1 0 0)"><image x="0" y="0" xlink:href="img_08.png" width="199" height="96" /></g></g></g><path id="43" transform="matrix(1 0 0 -1 0 540)" d="M372.84 270.24L664.8 270.24L664.8 270.24L664.8 446.76L664.8 446.76L372.84 446.76z" stroke="none" fill="#FFC000" fill-rule="evenodd" fill-opacity="0.07450981" /><g clip-path="url(#23)"><g transform="matrix(0.24 0 0 0.24125 503.06 141.79)"><g transform="matrix(1 0 0 1 0 0)"><image x="0" y="0" xlink:href="img_09.png" width="74" height="96" /></g></g></g><g clip-path="url(#24)"><g transform="matrix(0.24 0 0 0.24125 511.94 141.79)"><g transform="matrix(1 0 0 1 0 0)"><image x="0" y="0" xlink:href="img_10.png" width="46" height="96" /></g></g></g><g clip-path="url(#25)"><g transform="matrix(0.2400727 0 0 0.24125 517.46 141.79)"><g transform="matrix(1 0 0 1 0 0)"><image x="0" y="0" xlink:href="img_11.png" width="399" height="96" /></g></g></g><g clip-path="url(#26)"><g transform="matrix(0.6387692 0 0 0.63875 449.4 128.4)"><g transform="matrix(1 0 0 1 0 0)"><image x="0" y="0" xlink:href="img_12.png" width="65" height="96" /></g></g></g><g clip-path="url(#27)"><g transform="matrix(0.2400359 0 0 0.24 427.8 95.81)"><g transform="matrix(1 0 0 1 0 0)"><image x="0" y="0" xlink:href="img_13.png" width="835" height="121" /></g></g></g><path id="49" transform="matrix(1 0 0 -1 0 540)" d="M654.82 354.38L664.82 349.38L654.82 344.38zM371.1 350.38L655.82 350.38L655.82 348.38L371.1 348.38z" stroke="none" fill="#FFC000" fill-rule="nonzero" /><g clip-path="url(#28)"><g transform="matrix(0.24 0 0 0.2413333 430.37 191.186)"><g transform="matrix(1 0 0 1 0 0)"><image x="0" y="0" xlink:href="img_14.png" width="300" height="108" /></g></g></g><g clip-path="url(#29)"><g transform="matrix(0.24 0 0 0.2413333 496.37 191.186)"><g transform="matrix(1 0 0 1 0 0)"><image x="0" y="0" xlink:href="img_15.png" width="166" height="108" /></g></g></g><g clip-path="url(#30)"><g transform="matrix(0.24 0 0 0.2413333 526.25 191.186)"><g transform="matrix(1 0 0 1 0 0)"><image x="0" y="0" xlink:href="img_16.png" width="55" height="108" /></g></g></g><g clip-path="url(#31)"><g transform="matrix(0.2412371 0 0 0.2413333 532.85 191.186)"><g transform="matrix(1 0 0 1 0 0)"><image x="0" y="0" xlink:href="img_17.png" width="97" height="108" /></g></g></g><g clip-path="url(#32)"><g transform="matrix(0.24 0 0 0.2413333 548.45 191.186)"><g transform="matrix(1 0 0 1 0 0)"><image x="0" y="0" xlink:href="img_18.png" width="225" height="108" /></g></g></g><g clip-path="url(#33)"><g transform="matrix(0.2405783 0 0 0.2413333 588.53 191.186)"><g transform="matrix(1 0 0 1 0 0)"><image x="0" y="0" xlink:href="img_19.png" width="83" height="108" /></g></g></g><g clip-path="url(#34)"><g transform="matrix(0.24032 0 0 0.2413333 598.49 191.186)"><g transform="matrix(1 0 0 1 0 0)"><image x="0" y="0" xlink:href="img_20.png" width="150" height="108" /></g></g></g><g clip-path="url(#35)"><g transform="matrix(0.24 0 0 0.2411111 454.37 214.97)"><g transform="matrix(1 0 0 1 0 0)"><image x="0" y="0" xlink:href="img_21.png" width="375" height="108" /></g></g></g><g clip-path="url(#36)"><g transform="matrix(0.2424242 0 0 0.2411111 526.37 214.97)"><g transform="matrix(1 0 0 1 0 0)"><image x="0" y="0" xlink:href="img_22.png" width="66" height="108" /></g></g></g><g clip-path="url(#37)"><g transform="matrix(0.24 0 0 0.2411111 538.37 214.97)"><g transform="matrix(1 0 0 1 0 0)"><image x="0" y="0" xlink:href="img_23.png" width="300" height="108" /></g></g></g><g clip-path="url(#38)"><g transform="matrix(0.24 0 0 0.2411111 445.37 238.73)"><g transform="matrix(1 0 0 1 0 0)"><image x="0" y="0" xlink:href="img_24.png" width="375" height="108" /></g></g></g><g clip-path="url(#39)"><g transform="matrix(0.2424242 0 0 0.2411111 517.37 238.73)"><g transform="matrix(1 0 0 1 0 0)"><image x="0" y="0" xlink:href="img_22.png" width="66" height="108" /></g></g></g><g clip-path="url(#40)"><g transform="matrix(0.24008 0 0 0.2411111 529.37 238.73)"><g transform="matrix(1 0 0 1 0 0)"><image x="0" y="0" xlink:href="img_25.png" width="375" height="108" /></g></g></g><path id="63" transform="matrix(1 0 0 -1 0 540)" d="M24 458.88L503.04 458.88L503.04 458.88L503.04 478.44L503.04 478.44L24 478.44z" stroke="none" fill="#FFC000" fill-rule="evenodd" fill-opacity="0.2" /><g clip-path="url(#41)"><g transform="matrix(0.2402405 0 0 0.2400996 35.496 22.63599)"><g transform="matrix(1 0 0 1 0 0)"><image x="0" y="0" xlink:href="img_26.png" width="499" height="241" /></g></g></g><g clip-path="url(#42)"><g transform="matrix(0.24 0 0 0.2400996 115.42 22.63599)"><g transform="matrix(1 0 0 1 0 0)"><image x="0" y="0" xlink:href="img_27.png" width="123" height="241" /></g></g></g><g clip-path="url(#43)"><g transform="matrix(0.24003 0 0 0.2400996 130.18 22.63599)"><g transform="matrix(1 0 0 1 0 0)"><image x="0" y="0" xlink:href="img_28.png" width="999" height="241" /></g></g></g><g clip-path="url(#44)"><g transform="matrix(0.2401803 0 0 0.2400996 330 22.63599)"><g transform="matrix(1 0 0 1 0 0)"><image x="0" y="0" xlink:href="img_29.png" width="832" height="241" /></g></g></g><g clip-path="url(#45)"><g transform="matrix(0.2404518 0 0 0.24125 850.44 242.98)"><g transform="matrix(1 0 0 1 0 0)"><image x="0" y="0" xlink:href="img_30.png" width="332" height="96" /></g></g></g><g clip-path="url(#46)"><g transform="matrix(0.8090001 0 0 0.8092683 855.12 67.67999)"><g transform="matrix(1 0 0 1 0 0)"><image x="0" y="0" xlink:href="img_31.png" width="120" height="82" /></g></g></g><path id="70" transform="matrix(1 0 0 -1 0 540)" d="M876.3 352.14C 876.3 360.56 883.1 367.38 891.48 367.38C 899.86 367.38 906.66 360.56 906.66 352.14C 906.66 343.72 899.86 336.9 891.48 336.9C 883.1 336.9 876.3 343.72 876.3 352.14z" stroke="#FFC000" stroke-width="2.25" stroke-dasharray="4,3" fill="none" /><path id="71" transform="matrix(1 0 0 -1 0 540)" d="M903.04 392.57L900.67 403.5L893.35 395.05zM899.33 394.21L899.41 394.53L897.47 395.03L897.39 394.7zM895.86 380.64L897.84 388.39L895.9 388.89L893.92 381.14zM892.39 367.08L894.37 374.83L892.43 375.33L890.45 367.58z" stroke="none" fill="#FFC000" fill-rule="nonzero" /><g clip-path="url(#47)"><g transform="matrix(0.6 0 0 0.6 56.4 109.68)"><g transform="matrix(1 0 0 1 0 0)"><image x="0" y="0" xlink:href="img_32.png" width="511" height="190" /></g></g></g><path id="73" transform="matrix(1 0 0 -1 0 540)" d="M576.24 14.16L796.32 14.16L796.32 14.16L796.32 227.04L796.32 227.04L576.24 227.04z" stroke="none" fill="#4472C4" fill-rule="evenodd" fill-opacity="0.07450981" /><path id="74" transform="matrix(1 0 0 -1 0 540)" d="M539.86 172.58L529.86 167.58L539.86 162.58zM812.11 168.58L538.86 168.58L538.86 166.58L812.11 166.58z" stroke="none" fill="#4472C4" fill-rule="nonzero" /><g clip-path="url(#48)"><g transform="matrix(0.750184 0 0 0.7558878 645.24 379.2)"><g transform="matrix(1 0 0 1 0 0)"><image x="0" y="0" xlink:href="img_33.png" width="163" height="107" /></g></g></g><g clip-path="url(#49)"><g transform="matrix(0.2415484 0 0 0.24 600.34 408.5)"><g transform="matrix(1 0 0 1 0 0)"><image x="0" y="0" xlink:href="img_34.png" width="155" height="121" /></g></g></g><g clip-path="url(#50)"><g transform="matrix(0.2402581 0 0 0.2415 657.17 461.208)"><g transform="matrix(1 0 0 1 0 0)"><image x="0" y="0" xlink:href="img_35.png" width="465" height="96" /></g></g></g><g clip-path="url(#51)"><g transform="matrix(0.24 0 0 0.2411111 695.95 315.34)"><g transform="matrix(1 0 0 1 0 0)"><image x="0" y="0" xlink:href="img_14.png" width="300" height="108" /></g></g></g><g clip-path="url(#52)"><g transform="matrix(0.2405926 0 0 0.2413333 615.07 336.916)"><g transform="matrix(1 0 0 1 0 0)"><image x="0" y="0" xlink:href="img_36.png" width="243" height="108" /></g></g></g><g clip-path="url(#53)"><g transform="matrix(0.24 0 0 0.2413333 667.99 336.916)"><g transform="matrix(1 0 0 1 0 0)"><image x="0" y="0" xlink:href="img_18.png" width="225" height="108" /></g></g></g><g clip-path="url(#54)"><g transform="matrix(0.24 0 0 0.2413333 703.99 336.916)"><g transform="matrix(1 0 0 1 0 0)"><image x="0" y="0" xlink:href="img_37.png" width="83" height="108" /></g></g></g><g clip-path="url(#55)"><g transform="matrix(0.24 0 0 0.2413333 713.95 336.916)"><g transform="matrix(1 0 0 1 0 0)"><image x="0" y="0" xlink:href="img_38.png" width="225" height="108" /></g></g></g><g clip-path="url(#56)"><g transform="matrix(0.2401997 0 0 0.24 597.46 490.512)"><g transform="matrix(1 0 0 1 0 0)"><image x="0" y="0" xlink:href="img_39.png" width="751" height="121" /></g></g></g><g clip-path="url(#57)"><g transform="matrix(0.6 0 0 0.6003625 60.6 287.28)"><g transform="matrix(1 0 0 1 0 0)"><image x="0" y="0" xlink:href="img_40.png" width="389" height="331" /></g></g></g><g clip-path="url(#58)"><g transform="matrix(0.2400308 0 0 0.2411111 74.784 482.952)"><g transform="matrix(1 0 0 1 0 0)"><image x="0" y="0" xlink:href="img_41.png" width="975" height="108" /></g></g></g><g clip-path="url(#59)"><g transform="matrix(0.240594 0 0 0.2411111 84.744 504.552)"><g transform="matrix(1 0 0 1 0 0)"><image x="0" y="0" xlink:href="img_42.png" width="101" height="108" /></g></g></g><g clip-path="url(#60)"><g transform="matrix(0.2400364 0 0 0.2411111 100.94 504.552)"><g transform="matrix(1 0 0 1 0 0)"><image x="0" y="0" xlink:href="img_43.png" width="825" height="108" /></g></g></g><path id="88" transform="matrix(1 0 0 -1 0 540)" d="M812.1 217.14L812.1 166.25" stroke="#4472C4" stroke-width="2" fill="none" /><g clip-path="url(#61)"><g transform="matrix(0.7523248 0 0 0.7501091 318.84 284.52)"><g transform="matrix(1 0 0 1 0 0)"><image x="0" y="0" xlink:href="img_44.png" width="271" height="275" /></g></g></g><g clip-path="url(#62)"><g transform="matrix(0.2400444 0 0 0.2411111 348.79 498.624)"><g transform="matrix(1 0 0 1 0 0)"><image x="0" y="0" xlink:href="img_45.png" width="675" height="108" /></g></g></g><path id="91" transform="matrix(1 0 0 -1 0 540)" d="M293.62 171.26L283.62 166.26L293.62 161.26zM310.4 167.26L292.62 167.26L292.62 165.26L310.4 165.26z" stroke="none" fill="#4472C4" fill-rule="nonzero" /><g clip-path="url(#63)"><g transform="matrix(0.2404713 0 0 0.2414286 469.15 2.949951)"><g transform="matrix(1 0 0 1 0 0)"><image x="0" y="0" xlink:href="img_46.png" width="331" height="84" /></g></g></g><g clip-path="url(#64)"><g transform="matrix(0.2412371 0 0 0.2414286 544.39 2.949951)"><g transform="matrix(1 0 0 1 0 0)"><image x="0" y="0" xlink:href="img_47.png" width="97" height="84" /></g></g></g><g clip-path="url(#65)"><g transform="matrix(0.2412715 0 0 0.2414286 559.99 2.949951)"><g transform="matrix(1 0 0 1 0 0)"><image x="0" y="0" xlink:href="img_48.png" width="151" height="84" /></g></g></g><g clip-path="url(#66)"><g transform="matrix(0.24 0 0 0.2414286 590.35 2.949951)"><g transform="matrix(1 0 0 1 0 0)"><image x="0" y="0" xlink:href="img_49.png" width="63" height="84" /></g></g></g><g clip-path="url(#67)"><g transform="matrix(0.2412468 0 0 0.2414286 597.91 2.949951)"><g transform="matrix(1 0 0 1 0 0)"><image x="0" y="0" xlink:href="img_50.png" width="154" height="84" /></g></g></g><g clip-path="url(#68)"><g transform="matrix(0.2408721 0 0 0.2414286 628.87 2.949951)"><g transform="matrix(1 0 0 1 0 0)"><image x="0" y="0" xlink:href="img_51.png" width="172" height="84" /></g></g></g><g clip-path="url(#69)"><g transform="matrix(0.2401527 0 0 0.2414286 662.02 2.949951)"><g transform="matrix(1 0 0 1 0 0)"><image x="0" y="0" xlink:href="img_52.png" width="917" height="84" /></g></g></g><g clip-path="url(#70)"><g transform="matrix(0.24 0 0 0.2414286 875.76 2.949951)"><g transform="matrix(1 0 0 1 0 0)"><image x="0" y="0" xlink:href="img_53.png" width="41" height="84" /></g></g></g><g clip-path="url(#71)"><g transform="matrix(0.2406202 0 0 0.2414286 880.68 2.949951)"><g transform="matrix(1 0 0 1 0 0)"><image x="0" y="0" xlink:href="img_54.png" width="129" height="84" /></g></g></g><g clip-path="url(#72)"><g transform="matrix(0.24 0 0 0.2414286 903.96 2.949951)"><g transform="matrix(1 0 0 1 0 0)"><image x="0" y="0" xlink:href="img_55.png" width="40" height="84" /></g></g></g><g clip-path="url(#73)"><g transform="matrix(0.2413043 0 0 0.2414286 908.76 2.949951)"><g transform="matrix(1 0 0 1 0 0)"><image x="0" y="0" xlink:href="img_56.png" width="161" height="84" /></g></g></g><g clip-path="url(#74)"><g transform="matrix(0.24 0 0 0.2414286 939.84 2.949951)"><g transform="matrix(1 0 0 1 0 0)"><image x="0" y="0" xlink:href="img_55.png" width="40" height="84" /></g></g></g><g clip-path="url(#75)"><g transform="matrix(0.24 0 0 0.2414286 944.64 2.949951)"><g transform="matrix(1 0 0 1 0 0)"><image x="0" y="0" xlink:href="img_57.png" width="61" height="84" /></g></g></g></g></g></svg>