<svg xmlns="http://www.w3.org/2000/svg" xmlns:xlink="http://www.w3.org/1999/xlink" id="body_1" preserveAspectRatio="xMinYMin meet" viewBox="0 0 1280 720"><defs><clipPath id="1"><path id="" clip-rule="evenodd" transform="matrix(1 0 0 1 0 0)" d="M0 540L0 0L0 0L960 0L960 0L960 540L960 540L0 540z" /></clipPath><clipPath id="2"><path id="" clip-rule="evenodd" transform="matrix(1 0 0 1 0 0)" d="M0 539.9999L960 539.9999L960 539.9999L960 -0.0001220703L960 -0.0001220703L0 -0.0001220703z" /></clipPath><clipPath id="3"><path id="" clip-rule="evenodd" transform="matrix(1 0 0 1 0 0)" d="M1.4305E-05 540L960 540L960 540L960 0L960 0L1.4305E-05 0z" /></clipPath><clipPath id="4"><path id="" clip-rule="evenodd" transform="matrix(1 0 0 1 0 0)" d="M1.4305E-05 540L960 540L960 540L960 0L960 0L1.4305E-05 0z" /></clipPath><clipPath id="5"><path id="" clip-rule="evenodd" transform="matrix(1 0 0 1 0 0)" d="M1.4305E-05 540L960 540L960 540L960 0L960 0L1.4305E-05 0z" /></clipPath><clipPath id="6"><path id="" clip-rule="evenodd" transform="matrix(1 0 0 1 0 0)" d="M1.4305E-05 540L960 540L960 540L960 0L960 0L1.4305E-05 0z" /></clipPath><clipPath id="7"><path id="" clip-rule="evenodd" transform="matrix(1 0 0 1 0 0)" d="M1.4305E-05 540L960 540L960 540L960 0L960 0L1.4305E-05 0z" /></clipPath><clipPath id="8"><path id="" clip-rule="evenodd" transform="matrix(1 0 0 1 0 0)" d="M1.4305E-05 540L960 540L960 540L960 0L960 0L1.4305E-05 0z" /></clipPath><clipPath id="9"><path id="" clip-rule="evenodd" transform="matrix(1 0 0 1 0 0)" d="M1.4305E-05 540L960 540L960 540L960 0L960 0L1.4305E-05 0z" /></clipPath><clipPath id="10"><path id="" clip-rule="evenodd" transform="matrix(1 0 0 1 0 0)" d="M1.4305E-05 540L960 540L960 540L960 0L960 0L1.4305E-05 0z" /></clipPath><clipPath id="11"><path id="" clip-rule="evenodd" transform="matrix(1 0 0 1 0 0)" d="M1.4305E-05 540L960 540L960 540L960 0L960 0L1.4305E-05 0z" /></clipPath><clipPath id="12"><path id="" clip-rule="evenodd" transform="matrix(1 0 0 1 0 0)" d="M1.4305E-05 540L960 540L960 540L960 0L960 0L1.4305E-05 0z" /></clipPath><clipPath id="13"><path id="" clip-rule="evenodd" transform="matrix(1 0 0 1 0 0)" d="M1.4305E-05 540L960 540L960 540L960 0L960 0L1.4305E-05 0z" /></clipPath><clipPath id="14"><path id="" clip-rule="evenodd" transform="matrix(1 0 0 1 0 0)" d="M1.4305E-05 540L960 540L960 540L960 0L960 0L1.4305E-05 0z" /></clipPath><clipPath id="15"><path id="" clip-rule="evenodd" transform="matrix(1 0 0 1 0 0)" d="M1.4305E-05 540L960 540L960 540L960 0L960 0L1.4305E-05 0z" /></clipPath><clipPath id="16"><path id="" clip-rule="evenodd" transform="matrix(1 0 0 1 0 0)" d="M1.4305E-05 540L960 540L960 540L960 0L960 0L1.4305E-05 0z" /></clipPath><clipPath id="17"><path id="" clip-rule="evenodd" transform="matrix(1 0 0 1 0 0)" d="M1.4305E-05 540L960 540L960 540L960 0L960 0L1.4305E-05 0z" /></clipPath><clipPath id="18"><path id="" clip-rule="evenodd" transform="matrix(1 0 0 1 0 0)" d="M1.4305E-05 540L960 540L960 540L960 0L960 0L1.4305E-05 0z" /></clipPath><clipPath id="19"><path id="" clip-rule="evenodd" transform="matrix(1 0 0 1 0 0)" d="M1.4305E-05 540L960 540L960 540L960 0L960 0L1.4305E-05 0z" /></clipPath><clipPath id="20"><path id="" clip-rule="evenodd" transform="matrix(1 0 0 1 0 0)" d="M1.4305E-05 540L960 540L960 540L960 0L960 0L1.4305E-05 0z" /></clipPath><clipPath id="21"><path id="" clip-rule="evenodd" transform="matrix(1 0 0 1 0 0)" d="M1.4305E-05 540L960 540L960 540L960 0L960 0L1.4305E-05 0z" /></clipPath><clipPath id="22"><path id="" clip-rule="evenodd" transform="matrix(1 0 0 1 0 0)" d="M1.4305E-05 540L960 540L960 540L960 0L960 0L1.4305E-05 0z" /></clipPath><clipPath id="23"><path id="" clip-rule="evenodd" transform="matrix(1 0 0 1 0 0)" d="M1.4305E-05 540L960 540L960 540L960 0L960 0L1.4305E-05 0z" /></clipPath><clipPath id="24"><path id="" clip-rule="evenodd" transform="matrix(1 0 0 1 0 0)" d="M1.4305E-05 540L960 540L960 540L960 0L960 0L1.4305E-05 0z" /></clipPath><clipPath id="25"><path id="" clip-rule="evenodd" transform="matrix(1 0 0 1 0 0)" d="M1.4305E-05 540L960 540L960 540L960 0L960 0L1.4305E-05 0z" /></clipPath><clipPath id="26"><path id="" clip-rule="evenodd" transform="matrix(1 0 0 1 0 0)" d="M1.4305E-05 540L960 540L960 540L960 0L960 0L1.4305E-05 0z" /></clipPath><clipPath id="27"><path id="" clip-rule="evenodd" transform="matrix(1 0 0 1 0 0)" d="M1.4305E-05 540L960 540L960 540L960 0L960 0L1.4305E-05 0z" /></clipPath><clipPath id="28"><path id="" clip-rule="evenodd" transform="matrix(1 0 0 1 0 0)" d="M1.4305E-05 540L960 540L960 540L960 0L960 0L1.4305E-05 0z" /></clipPath><clipPath id="29"><path id="" clip-rule="evenodd" transform="matrix(1 0 0 1 0 0)" d="M1.4305E-05 540L960 540L960 540L960 0L960 0L1.4305E-05 0z" /></clipPath><clipPath id="30"><path id="" clip-rule="evenodd" transform="matrix(1 0 0 1 0 0)" d="M1.4305E-05 540L960 540L960 540L960 0L960 0L1.4305E-05 0z" /></clipPath><clipPath id="31"><path id="" clip-rule="evenodd" transform="matrix(1 0 0 1 0 0)" d="M1.4305E-05 540L960 540L960 540L960 0L960 0L1.4305E-05 0z" /></clipPath><clipPath id="32"><path id="" clip-rule="evenodd" transform="matrix(1 0 0 1 0 0)" d="M1.4305E-05 540L960 540L960 540L960 0L960 0L1.4305E-05 0z" /></clipPath><clipPath id="33"><path id="" clip-rule="evenodd" transform="matrix(1 0 0 1 0 0)" d="M1.4305E-05 540L960 540L960 540L960 0L960 0L1.4305E-05 0z" /></clipPath><clipPath id="34"><path id="" clip-rule="evenodd" transform="matrix(1 0 0 1 0 0)" d="M1.4305E-05 540L960 540L960 540L960 0L960 0L1.4305E-05 0z" /></clipPath><clipPath id="35"><path id="" clip-rule="evenodd" transform="matrix(1 0 0 1 0 0)" d="M1.4305E-05 540L960 540L960 540L960 0L960 0L1.4305E-05 0z" /></clipPath><clipPath id="36"><path id="" clip-rule="evenodd" transform="matrix(1 0 0 1 0 0)" d="M1.4305E-05 540L960 540L960 540L960 0L960 0L1.4305E-05 0z" /></clipPath><clipPath id="37"><path id="" clip-rule="evenodd" transform="matrix(1 0 0 1 0 0)" d="M1.4305E-05 540L960 540L960 540L960 0L960 0L1.4305E-05 0z" /></clipPath><clipPath id="38"><path id="" clip-rule="evenodd" transform="matrix(1 0 0 1 0 0)" d="M1.4305E-05 540L960 540L960 540L960 0L960 0L1.4305E-05 0z" /></clipPath><clipPath id="39"><path id="" clip-rule="evenodd" transform="matrix(1 0 0 1 0 0)" d="M1.4305E-05 540L960 540L960 540L960 0L960 0L1.4305E-05 0z" /></clipPath><clipPath id="40"><path id="" clip-rule="evenodd" transform="matrix(1 0 0 1 0 0)" d="M1.4305E-05 540L960 540L960 540L960 0L960 0L1.4305E-05 0z" /></clipPath><clipPath id="41"><path id="" clip-rule="evenodd" transform="matrix(1 0 0 1 0 0)" d="M1.4305E-05 540L960 540L960 540L960 0L960 0L1.4305E-05 0z" /></clipPath><clipPath id="42"><path id="" clip-rule="evenodd" transform="matrix(1 0 0 1 0 0)" d="M1.4305E-05 540L960 540L960 540L960 0L960 0L1.4305E-05 0z" /></clipPath><clipPath id="43"><path id="" clip-rule="evenodd" transform="matrix(1 0 0 1 0 0)" d="M1.4305E-05 540L960 540L960 540L960 0L960 0L1.4305E-05 0z" /></clipPath><clipPath id="44"><path id="" clip-rule="evenodd" transform="matrix(1 0 0 1 0 0)" d="M1.4305E-05 540L960 540L960 540L960 0L960 0L1.4305E-05 0z" /></clipPath><clipPath id="45"><path id="" clip-rule="evenodd" transform="matrix(1 0 0 1 0 0)" d="M1.4305E-05 540L960 540L960 540L960 0L960 0L1.4305E-05 0z" /></clipPath><clipPath id="46"><path id="" clip-rule="evenodd" transform="matrix(1 0 0 1 0 0)" d="M1.4305E-05 540L960 540L960 540L960 0L960 0L1.4305E-05 0z" /></clipPath><clipPath id="47"><path id="" clip-rule="evenodd" transform="matrix(1 0 0 1 0 0)" d="M1.4305E-05 540L960 540L960 540L960 0L960 0L1.4305E-05 0z" /></clipPath><clipPath id="48"><path id="" clip-rule="evenodd" transform="matrix(1 0 0 1 0 0)" d="M1.4305E-05 540L960 540L960 540L960 0L960 0L1.4305E-05 0z" /></clipPath><clipPath id="49"><path id="" clip-rule="evenodd" transform="matrix(1 0 0 1 0 0)" d="M1.4305E-05 540L960 540L960 540L960 0L960 0L1.4305E-05 0z" /></clipPath><clipPath id="50"><path id="" clip-rule="evenodd" transform="matrix(1 0 0 1 0 0)" d="M1.4305E-05 540L960 540L960 540L960 0L960 0L1.4305E-05 0z" /></clipPath><clipPath id="51"><path id="" clip-rule="evenodd" transform="matrix(1 0 0 1 0 0)" d="M1.4305E-05 540L960 540L960 540L960 0L960 0L1.4305E-05 0z" /></clipPath><clipPath id="52"><path id="" clip-rule="evenodd" transform="matrix(1 0 0 1 0 0)" d="M1.4305E-05 540L960 540L960 540L960 0L960 0L1.4305E-05 0z" /></clipPath><clipPath id="53"><path id="" clip-rule="evenodd" transform="matrix(1 0 0 1 0 0)" d="M1.4305E-05 540L960 540L960 540L960 0L960 0L1.4305E-05 0z" /></clipPath><clipPath id="54"><path id="" clip-rule="evenodd" transform="matrix(1 0 0 1 0 0)" d="M1.4305E-05 540L960 540L960 540L960 0L960 0L1.4305E-05 0z" /></clipPath><clipPath id="55"><path id="" clip-rule="evenodd" transform="matrix(1 0 0 1 0 0)" d="M1.4305E-05 540L960 540L960 540L960 0L960 0L1.4305E-05 0z" /></clipPath><clipPath id="56"><path id="" clip-rule="evenodd" transform="matrix(1 0 0 1 0 0)" d="M1.4305E-05 540L960 540L960 540L960 0L960 0L1.4305E-05 0z" /></clipPath><clipPath id="57"><path id="" clip-rule="evenodd" transform="matrix(1 0 0 1 0 0)" d="M1.4305E-05 540L960 540L960 540L960 0L960 0L1.4305E-05 0z" /></clipPath><clipPath id="58"><path id="" clip-rule="evenodd" transform="matrix(1 0 0 1 0 0)" d="M1.4305E-05 540L960 540L960 540L960 0L960 0L1.4305E-05 0z" /></clipPath><clipPath id="59"><path id="" clip-rule="evenodd" transform="matrix(1 0 0 1 0 0)" d="M1.4305E-05 540L960 540L960 540L960 0L960 0L1.4305E-05 0z" /></clipPath><clipPath id="60"><path id="" clip-rule="evenodd" transform="matrix(1 0 0 1 0 0)" d="M1.4305E-05 540L960 540L960 540L960 0L960 0L1.4305E-05 0z" /></clipPath><clipPath id="61"><path id="" clip-rule="evenodd" transform="matrix(1 0 0 1 0 0)" d="M1.4305E-05 540L960 540L960 540L960 0L960 0L1.4305E-05 0z" /></clipPath><clipPath id="62"><path id="" clip-rule="evenodd" transform="matrix(1 0 0 1 0 0)" d="M1.4305E-05 540L960 540L960 540L960 0L960 0L1.4305E-05 0z" /></clipPath><clipPath id="63"><path id="" clip-rule="evenodd" transform="matrix(1 0 0 1 0 0)" d="M1.4305E-05 540L960 540L960 540L960 0L960 0L1.4305E-05 0z" /></clipPath><clipPath id="64"><path id="" clip-rule="evenodd" transform="matrix(1 0 0 1 0 0)" d="M1.4305E-05 540L960 540L960 540L960 0L960 0L1.4305E-05 0z" /></clipPath><clipPath id="65"><path id="" clip-rule="evenodd" transform="matrix(1 0 0 1 0 0)" d="M1.4305E-05 540L960 540L960 540L960 0L960 0L1.4305E-05 0z" /></clipPath><clipPath id="66"><path id="" clip-rule="evenodd" transform="matrix(1 0 0 1 0 0)" d="M1.4305E-05 540L960 540L960 540L960 0L960 0L1.4305E-05 0z" /></clipPath><clipPath id="67"><path id="" clip-rule="evenodd" transform="matrix(1 0 0 1 0 0)" d="M1.4305E-05 540L960 540L960 540L960 0L960 0L1.4305E-05 0z" /></clipPath><clipPath id="68"><path id="" clip-rule="evenodd" transform="matrix(1 0 0 1 0 0)" d="M1.4305E-05 540L960 540L960 540L960 0L960 0L1.4305E-05 0z" /></clipPath><clipPath id="69"><path id="" clip-rule="evenodd" transform="matrix(1 0 0 1 0 0)" d="M1.4305E-05 540L960 540L960 540L960 0L960 0L1.4305E-05 0z" /></clipPath><clipPath id="70"><path id="" clip-rule="evenodd" transform="matrix(1 0 0 1 0 0)" d="M482.28 183.24L854.88 183.24L854.88 183.24L854.88 20.52002L854.88 20.52002L482.28 20.52002z" /></clipPath><clipPath id="71"><path id="" clip-rule="evenodd" transform="matrix(1 0 0 1 0 0)" d="M-9.1553E-05 0L960 0L960 0L960 540L960 540L-6.1035E-05 539.9999" /></clipPath><clipPath id="72"><path id="" clip-rule="evenodd" transform="matrix(1 0 0 1 0 0)" d="M0 0L960 0L960 0L960 539.9998L960 539.9998L6.1035E-05 539.9998" /></clipPath></defs><g transform="matrix(1.333333 0 0 1.333333 0 0)"><g clip-path="url(#1)"><g clip-path="url(#2)"><path id="1" transform="matrix(1 0 0 -1 0 540)" d="M0 6.1035E-05L960 6.1035E-05L960 6.1035E-05L960 540.0001L960 540.0001L0 540.0001z" stroke="none" fill="#FFFFFF" fill-rule="evenodd" /></g><g clip-path="url(#3)"><g transform="matrix(0.24 0 0 0.2413333 59.496 112.536)"><g transform="matrix(1 0 0 1 0 0)"><image x="0" y="0" xlink:href="img_01.png" width="525" height="108" /></g></g></g><g clip-path="url(#4)"><g transform="matrix(0.2412565 0 0 0.2411111 59.496 150.38)"><g transform="matrix(1 0 0 1 0 0)"><image x="0" y="0" xlink:href="img_02.png" width="191" height="108" /></g></g></g><g clip-path="url(#5)"><g transform="matrix(0.2403238 0 0 0.2411111 94.056 150.38)"><g transform="matrix(1 0 0 1 0 0)"><image x="0" y="0" xlink:href="img_03.png" width="525" height="108" /></g></g></g><g clip-path="url(#6)"><g transform="matrix(0.24 0 0 0.2411111 202.2 150.38)"><g transform="matrix(1 0 0 1 0 0)"><image x="0" y="0" xlink:href="img_04.png" width="375" height="108" /></g></g></g><path id="6" transform="matrix(1 0 0 -1 0 540)" d="M202.17 366.5L274.29 366.5L274.29 366.5L346.41 366.5L346.41 366.5L346.41 365.54L346.41 365.54L274.29 365.54L274.29 365.54L202.17 365.54z" stroke="none" fill="#000000" fill-rule="evenodd" /><g clip-path="url(#7)"><g transform="matrix(0.240398 0 0 0.2411111 274.2 150.38)"><g transform="matrix(1 0 0 1 0 0)"><image x="0" y="0" xlink:href="img_05.png" width="201" height="108" /></g></g></g><g clip-path="url(#8)"><g transform="matrix(0.24 0 0 0.2411111 310.44 150.38)"><g transform="matrix(1 0 0 1 0 0)"><image x="0" y="0" xlink:href="img_06.png" width="225" height="108" /></g></g></g><g clip-path="url(#9)"><g transform="matrix(0.2416 0 0 0.2411111 346.44 150.38)"><g transform="matrix(1 0 0 1 0 0)"><image x="0" y="0" xlink:href="img_07.png" width="150" height="108" /></g></g></g><g clip-path="url(#10)"><g transform="matrix(0.24 0 0 0.2411111 59.496 182.78)"><g transform="matrix(1 0 0 1 0 0)"><image x="0" y="0" xlink:href="img_08.png" width="150" height="108" /></g></g></g><g clip-path="url(#11)"><g transform="matrix(0.2405797 0 0 0.2411111 77.496 182.78)"><g transform="matrix(1 0 0 1 0 0)"><image x="0" y="0" xlink:href="img_09.png" width="207" height="108" /></g></g></g><g clip-path="url(#12)"><g transform="matrix(0.2400667 0 0 0.2411111 117.34 182.78)"><g transform="matrix(1 0 0 1 0 0)"><image x="0" y="0" xlink:href="img_10.png" width="450" height="108" /></g></g></g><g clip-path="url(#13)"><g transform="matrix(0.24 0 0 0.2413333 59.496 223.196)"><g transform="matrix(1 0 0 1 0 0)"><image x="0" y="0" xlink:href="img_11.png" width="150" height="108" /></g></g></g><g clip-path="url(#14)"><g transform="matrix(0.2408421 0 0 0.2413333 81.456 223.196)"><g transform="matrix(1 0 0 1 0 0)"><image x="0" y="0" xlink:href="img_12.png" width="190" height="108" /></g></g></g><g clip-path="url(#15)"><g transform="matrix(0.2400444 0 0 0.2413333 115.78 223.196)"><g transform="matrix(1 0 0 1 0 0)"><image x="0" y="0" xlink:href="img_13.png" width="675" height="108" /></g></g></g><g clip-path="url(#16)"><g transform="matrix(0.24 0 0 0.2411111 59.496 258.41)"><g transform="matrix(1 0 0 1 0 0)"><image x="0" y="0" xlink:href="img_14.png" width="150" height="108" /></g></g></g><g clip-path="url(#17)"><g transform="matrix(0.24004 0 0 0.2411111 81.456 258.41)"><g transform="matrix(1 0 0 1 0 0)"><image x="0" y="0" xlink:href="img_15.png" width="750" height="108" /></g></g></g><g clip-path="url(#18)"><g transform="matrix(0.24 0 0 0.2411111 243.48 258.41)"><g transform="matrix(1 0 0 1 0 0)"><image x="0" y="0" xlink:href="img_16.png" width="225" height="108" /></g></g></g><g clip-path="url(#19)"><g transform="matrix(0.2412565 0 0 0.2411111 279.48 258.41)"><g transform="matrix(1 0 0 1 0 0)"><image x="0" y="0" xlink:href="img_17.png" width="191" height="108" /></g></g></g><g clip-path="url(#20)"><g transform="matrix(0.24 0 0 0.2411111 314.04 258.41)"><g transform="matrix(1 0 0 1 0 0)"><image x="0" y="0" xlink:href="img_18.png" width="225" height="108" /></g></g></g><g clip-path="url(#21)"><g transform="matrix(0.2400235 0 0 0.2411111 59.496 290.81)"><g transform="matrix(1 0 0 1 0 0)"><image x="0" y="0" xlink:href="img_19.png" width="1275" height="108" /></g></g></g><g clip-path="url(#22)"><g transform="matrix(0.24 0 0 0.2413333 59.496 323.186)"><g transform="matrix(1 0 0 1 0 0)"><image x="0" y="0" xlink:href="img_20.png" width="225" height="108" /></g></g></g><g clip-path="url(#23)"><g transform="matrix(0.240398 0 0 0.2413333 95.496 323.186)"><g transform="matrix(1 0 0 1 0 0)"><image x="0" y="0" xlink:href="img_21.png" width="201" height="108" /></g></g></g><g clip-path="url(#24)"><g transform="matrix(0.24 0 0 0.2413333 131.74 323.186)"><g transform="matrix(1 0 0 1 0 0)"><image x="0" y="0" xlink:href="img_22.png" width="150" height="108" /></g></g></g><g clip-path="url(#25)"><g transform="matrix(0.24 0 0 0.2413333 59.496 383.156)"><g transform="matrix(1 0 0 1 0 0)"><image x="0" y="0" xlink:href="img_23.png" width="300" height="108" /></g></g></g><g clip-path="url(#26)"><g transform="matrix(0.2400364 0 0 0.2411111 131.5 415.584)"><g transform="matrix(1 0 0 1 0 0)"><image x="0" y="0" xlink:href="img_24.png" width="825" height="108" /></g></g></g><path id="27" transform="matrix(1 0 0 -1 0 540)" d="M24 458.88L287.64 458.88L287.64 458.88L287.64 478.44L287.64 478.44L24 478.44z" stroke="none" fill="#FFC000" fill-rule="evenodd" fill-opacity="0.2" /><g clip-path="url(#27)"><g transform="matrix(0.2402405 0 0 0.2400996 35.496 22.63599)"><g transform="matrix(1 0 0 1 0 0)"><image x="0" y="0" xlink:href="img_25.png" width="499" height="241" /></g></g></g><g clip-path="url(#28)"><g transform="matrix(0.2403206 0 0 0.2400996 115.42 22.63599)"><g transform="matrix(1 0 0 1 0 0)"><image x="0" y="0" xlink:href="img_26.png" width="499" height="241" /></g></g></g><g clip-path="url(#29)"><g transform="matrix(0.2402405 0 0 0.2400996 195.36 22.63599)"><g transform="matrix(1 0 0 1 0 0)"><image x="0" y="0" xlink:href="img_27.png" width="499" height="241" /></g></g></g><g clip-path="url(#30)"><g transform="matrix(0.2400333 0 0 0.2411111 411.05 217.32)"><g transform="matrix(1 0 0 1 0 0)"><image x="0" y="0" xlink:href="img_28.png" width="1500" height="108" /></g></g></g><g clip-path="url(#31)"><g transform="matrix(0.24004 0 0 0.2411111 411.05 255.12)"><g transform="matrix(1 0 0 1 0 0)"><image x="0" y="0" xlink:href="img_29.png" width="750" height="108" /></g></g></g><g clip-path="url(#32)"><g transform="matrix(0.2403 0 0 0.2411111 573.07 255.12)"><g transform="matrix(1 0 0 1 0 0)"><image x="0" y="0" xlink:href="img_30.png" width="150" height="108" /></g></g></g><g clip-path="url(#33)"><g transform="matrix(0.24 0 0 0.2411111 605.11 255.12)"><g transform="matrix(1 0 0 1 0 0)"><image x="0" y="0" xlink:href="img_31.png" width="600" height="108" /></g></g></g><g clip-path="url(#34)"><g transform="matrix(0.2401067 0 0 0.2411111 731.11 255.12)"><g transform="matrix(1 0 0 1 0 0)"><image x="0" y="0" xlink:href="img_32.png" width="300" height="108" /></g></g></g><g clip-path="url(#35)"><g transform="matrix(0.24 0 0 0.2411111 785.14 255.12)"><g transform="matrix(1 0 0 1 0 0)"><image x="0" y="0" xlink:href="img_33.png" width="450" height="108" /></g></g></g><g clip-path="url(#36)"><g transform="matrix(0.24 0 0 0.2413333 411.05 287.496)"><g transform="matrix(1 0 0 1 0 0)"><image x="0" y="0" xlink:href="img_11.png" width="150" height="108" /></g></g></g><g clip-path="url(#37)"><g transform="matrix(0.24004 0 0 0.2413333 433.01 287.496)"><g transform="matrix(1 0 0 1 0 0)"><image x="0" y="0" xlink:href="img_34.png" width="750" height="108" /></g></g></g><g clip-path="url(#38)"><g transform="matrix(0.24 0 0 0.2413333 595.03 287.496)"><g transform="matrix(1 0 0 1 0 0)"><image x="0" y="0" xlink:href="img_35.png" width="450" height="108" /></g></g></g><g clip-path="url(#39)"><g transform="matrix(0.2400571 0 0 0.2413333 685.03 287.496)"><g transform="matrix(1 0 0 1 0 0)"><image x="0" y="0" xlink:href="img_36.png" width="525" height="108" /></g></g></g><g clip-path="url(#40)"><g transform="matrix(0.24 0 0 0.2411111 483.05 319.94)"><g transform="matrix(1 0 0 1 0 0)"><image x="0" y="0" xlink:href="img_37.png" width="300" height="108" /></g></g></g><g clip-path="url(#41)"><g transform="matrix(0.24 0 0 0.2411111 537.07 319.94)"><g transform="matrix(1 0 0 1 0 0)"><image x="0" y="0" xlink:href="img_38.png" width="166" height="108" /></g></g></g><g clip-path="url(#42)"><g transform="matrix(0.24 0 0 0.2411111 566.95 319.94)"><g transform="matrix(1 0 0 1 0 0)"><image x="0" y="0" xlink:href="img_39.png" width="450" height="108" /></g></g></g><g clip-path="url(#43)"><g transform="matrix(0.240398 0 0 0.2411111 656.95 319.94)"><g transform="matrix(1 0 0 1 0 0)"><image x="0" y="0" xlink:href="img_05.png" width="201" height="108" /></g></g></g><g clip-path="url(#44)"><g transform="matrix(0.2400667 0 0 0.2411111 693.19 319.94)"><g transform="matrix(1 0 0 1 0 0)"><image x="0" y="0" xlink:href="img_40.png" width="450" height="108" /></g></g></g><g clip-path="url(#45)"><g transform="matrix(0.2404286 0 0 0.2411111 787.42 319.94)"><g transform="matrix(1 0 0 1 0 0)"><image x="0" y="0" xlink:href="img_41.png" width="224" height="108" /></g></g></g><g clip-path="url(#46)"><g transform="matrix(0.24 0 0 0.2411111 832.3 319.94)"><g transform="matrix(1 0 0 1 0 0)"><image x="0" y="0" xlink:href="img_42.png" width="150" height="108" /></g></g></g><g clip-path="url(#47)"><g transform="matrix(0.2408823 0 0 0.2411111 854.5 319.94)"><g transform="matrix(1 0 0 1 0 0)"><image x="0" y="0" xlink:href="img_43.png" width="68" height="108" /></g></g></g><g clip-path="url(#48)"><g transform="matrix(0.24 0 0 0.2411111 865.42 319.94)"><g transform="matrix(1 0 0 1 0 0)"><image x="0" y="0" xlink:href="img_44.png" width="150" height="108" /></g></g></g><g clip-path="url(#49)"><g transform="matrix(0.24 0 0 0.2411111 411.05 352.34)"><g transform="matrix(1 0 0 1 0 0)"><image x="0" y="0" xlink:href="img_14.png" width="150" height="108" /></g></g></g><g clip-path="url(#50)"><g transform="matrix(0.2400267 0 0 0.2411111 433.01 352.34)"><g transform="matrix(1 0 0 1 0 0)"><image x="0" y="0" xlink:href="img_45.png" width="1875" height="108" /></g></g></g><g clip-path="url(#51)"><g transform="matrix(0.24 0 0 0.2413333 483.05 384.746)"><g transform="matrix(1 0 0 1 0 0)"><image x="0" y="0" xlink:href="img_46.png" width="300" height="108" /></g></g></g><g clip-path="url(#52)"><g transform="matrix(0.24 0 0 0.2413333 537.07 384.746)"><g transform="matrix(1 0 0 1 0 0)"><image x="0" y="0" xlink:href="img_47.png" width="51" height="108" /></g></g></g><g clip-path="url(#53)"><g transform="matrix(0.24 0 0 0.2413333 543.19 384.746)"><g transform="matrix(1 0 0 1 0 0)"><image x="0" y="0" xlink:href="img_48.png" width="375" height="108" /></g></g></g><g clip-path="url(#54)"><g transform="matrix(0.24 0 0 0.2413333 615.19 384.746)"><g transform="matrix(1 0 0 1 0 0)"><image x="0" y="0" xlink:href="img_49.png" width="51" height="108" /></g></g></g><g clip-path="url(#55)"><g transform="matrix(0.2431169 0 0 0.2413333 621.31 384.746)"><g transform="matrix(1 0 0 1 0 0)"><image x="0" y="0" xlink:href="img_50.png" width="77" height="108" /></g></g></g><g clip-path="url(#56)"><g transform="matrix(0.24 0 0 0.2413333 633.79 384.746)"><g transform="matrix(1 0 0 1 0 0)"><image x="0" y="0" xlink:href="img_51.png" width="225" height="108" /></g></g></g><g clip-path="url(#57)"><g transform="matrix(0.24 0 0 0.2413333 669.79 384.746)"><g transform="matrix(1 0 0 1 0 0)"><image x="0" y="0" xlink:href="img_52.png" width="42" height="108" /></g></g></g><g clip-path="url(#58)"><g transform="matrix(0.24 0 0 0.2413333 674.83 384.746)"><g transform="matrix(1 0 0 1 0 0)"><image x="0" y="0" xlink:href="img_53.png" width="300" height="108" /></g></g></g><g clip-path="url(#59)"><g transform="matrix(0.24 0 0 0.2413333 728.83 384.746)"><g transform="matrix(1 0 0 1 0 0)"><image x="0" y="0" xlink:href="img_52.png" width="42" height="108" /></g></g></g><g clip-path="url(#60)"><g transform="matrix(0.24 0 0 0.2413333 733.9 384.746)"><g transform="matrix(1 0 0 1 0 0)"><image x="0" y="0" xlink:href="img_54.png" width="225" height="108" /></g></g></g><g clip-path="url(#61)"><g transform="matrix(0.2414545 0 0 0.2413333 769.9 384.746)"><g transform="matrix(1 0 0 1 0 0)"><image x="0" y="0" xlink:href="img_55.png" width="99" height="108" /></g></g></g><g clip-path="url(#62)"><g transform="matrix(0.24 0 0 0.2411111 483.05 417.168)"><g transform="matrix(1 0 0 1 0 0)"><image x="0" y="0" xlink:href="img_56.png" width="300" height="108" /></g></g></g><g clip-path="url(#63)"><g transform="matrix(0.2431169 0 0 0.2411111 537.07 417.168)"><g transform="matrix(1 0 0 1 0 0)"><image x="0" y="0" xlink:href="img_50.png" width="77" height="108" /></g></g></g><g clip-path="url(#64)"><g transform="matrix(0.24 0 0 0.2411111 549.55 417.168)"><g transform="matrix(1 0 0 1 0 0)"><image x="0" y="0" xlink:href="img_51.png" width="225" height="108" /></g></g></g><g clip-path="url(#65)"><g transform="matrix(0.24 0 0 0.2411111 585.55 417.168)"><g transform="matrix(1 0 0 1 0 0)"><image x="0" y="0" xlink:href="img_52.png" width="42" height="108" /></g></g></g><g clip-path="url(#66)"><g transform="matrix(0.24 0 0 0.2411111 590.59 417.168)"><g transform="matrix(1 0 0 1 0 0)"><image x="0" y="0" xlink:href="img_53.png" width="300" height="108" /></g></g></g><g clip-path="url(#67)"><g transform="matrix(0.24 0 0 0.2411111 644.59 417.168)"><g transform="matrix(1 0 0 1 0 0)"><image x="0" y="0" xlink:href="img_52.png" width="42" height="108" /></g></g></g><g clip-path="url(#68)"><g transform="matrix(0.24 0 0 0.2411111 649.63 417.168)"><g transform="matrix(1 0 0 1 0 0)"><image x="0" y="0" xlink:href="img_54.png" width="225" height="108" /></g></g></g><g clip-path="url(#69)"><g transform="matrix(0.24004 0 0 0.2411111 483.05 449.568)"><g transform="matrix(1 0 0 1 0 0)"><image x="0" y="0" xlink:href="img_57.png" width="750" height="108" /></g></g></g><g clip-path="url(#70)"><g transform="matrix(0.4813954 0 0 0.4814201 482.28 20.52002)"><g transform="matrix(1 0 0 1 0 0)"><image x="0" y="0" xlink:href="img_58.png" width="774" height="338" /></g></g></g><g clip-path="url(#71)"><path id="72" transform="matrix(1 0 0 -1 0 540)" d="M494.71 425.5L367.38 389.88L367.38 389.88L369.03 384L369.03 384L355.35 389.32L355.35 389.32L364.28 400.96L364.28 400.96L365.93 395.08L365.93 395.08L493.25 430.7z" stroke="none" fill="#BFBFBF" fill-rule="evenodd" /></g><g clip-path="url(#72)"><path id="73" transform="matrix(1 0 0 -1 0 540)" d="M634.65 463.32L634.65 336.95L634.65 336.95L639.96 336.95L639.96 336.95L632.76 325.2L632.76 325.2L625.56 336.95L625.56 336.95L630.87 336.95L630.87 336.95L630.87 463.32z" stroke="none" fill="#7DB0D0" fill-rule="evenodd" /></g></g></g></svg>