<svg xmlns="http://www.w3.org/2000/svg" xmlns:xlink="http://www.w3.org/1999/xlink" id="body_1" preserveAspectRatio="xMinYMin meet" viewBox="0 0 1280 720"><defs><clipPath id="1"><path id="" clip-rule="evenodd" transform="matrix(1 0 0 1 0 0)" d="M0 540L0 0L0 0L960 0L960 0L960 540L960 540L0 540z" /></clipPath><clipPath id="2"><path id="" clip-rule="evenodd" transform="matrix(1 0 0 1 0 0)" d="M0 539.9999L960 539.9999L960 539.9999L960 -0.0001220703L960 -0.0001220703L0 -0.0001220703z" /></clipPath><clipPath id="3"><path id="" clip-rule="evenodd" transform="matrix(1 0 0 1 0 0)" d="M0 539.9998L960 539.9998L960 539.9998L960 -0.0002441406L960 -0.0002441406L0 -0.0002441406z" /></clipPath><clipPath id="4"><path id="" clip-rule="evenodd" transform="matrix(1 0 0 1 0 0)" d="M0 539.9997L960 539.9997L960 539.9997L960 -0.0003051758L960 -0.0003051758L0 -0.0003051758z" /></clipPath><clipPath id="5"><path id="" clip-rule="evenodd" transform="matrix(1 0 0 1 0 0)" d="M-3.58E-07 539.9997L960 539.9997L960 539.9997L960 -0.0003051758L960 -0.0003051758L-3.58E-07 -0.0003051758z" /></clipPath><clipPath id="6"><path id="" clip-rule="evenodd" transform="matrix(1 0 0 1 0 0)" d="M-6.1035E-05 539.9999L959.9999 539.9999L959.9999 539.9999L959.9999 -6.103516E-05L959.9999 -6.103516E-05L-6.1035E-05 -6.103516E-05z" /></clipPath><clipPath id="7"><path id="" clip-rule="evenodd" transform="matrix(1 0 0 1 0 0)" d="M-6.1035E-05 539.9999L959.9999 539.9999L959.9999 539.9999L959.9999 -0.0001220703L959.9999 -0.0001220703L-6.1035E-05 -0.0001220703z" /></clipPath><clipPath id="8"><path id="" clip-rule="evenodd" transform="matrix(1 0 0 1 0 0)" d="M1.4305E-05 540L960 540L960 540L960 0L960 0L1.4305E-05 0z" /></clipPath><clipPath id="9"><path id="" clip-rule="evenodd" transform="matrix(1 0 0 1 0 0)" d="M1.4305E-05 540L960 540L960 540L960 0L960 0L1.4305E-05 0z" /></clipPath><clipPath id="10"><path id="" clip-rule="evenodd" transform="matrix(1 0 0 1 0 0)" d="M1.4305E-05 540L960 540L960 540L960 0L960 0L1.4305E-05 0z" /></clipPath><clipPath id="11"><path id="" clip-rule="evenodd" transform="matrix(1 0 0 1 0 0)" d="M2.861E-05 0L960 0L960 0L960 539.9998L960 539.9998L2.861E-05 539.9998L2.861E-05 539.9998L2.861E-05 0zM120.9 366C 109.33 366 99.679 374.21 97.446 385.12L97.446 385.12L96.96 389.94L96.96 389.94L97.446 394.76C 99.679 405.67 109.33 413.88 120.9 413.88L120.9 413.88L177.18 413.88C 190.4 413.88 201.12 403.16 201.12 389.94L201.12 389.94L201.12 389.94C 201.12 376.72 190.4 366 177.18 366L177.18 366L120.9 366z" /></clipPath><clipPath id="12"><path id="" clip-rule="evenodd" transform="matrix(1 0 0 1 0 0)" d="M1.4305E-05 540L960 540L960 540L960 0L960 0L1.4305E-05 0z" /></clipPath><clipPath id="13"><path id="" clip-rule="evenodd" transform="matrix(1 0 0 1 0 0)" d="M112.08 403.8L140.4 403.8L140.4 403.8L140.4 375.6L140.4 375.6L112.08 375.6z" /></clipPath><clipPath id="14"><path id="" clip-rule="evenodd" transform="matrix(1 0 0 1 0 0)" d="M112.08 403.8L140.4001 403.8L140.4001 403.8L140.4001 375.6009L140.4001 375.6009L112.08 375.6009z" /></clipPath></defs><g transform="matrix(1.333333 0 0 1.333333 0 0)"><g clip-path="url(#1)"><g clip-path="url(#2)"><path id="1" transform="matrix(1 0 0 -1 0 540)" d="M0 6.1035E-05L960 6.1035E-05L960 6.1035E-05L960 540.0001L960 540.0001L0 540.0001z" stroke="none" fill="#FFFFFF" fill-rule="evenodd" /></g><g clip-path="url(#3)"><path id="2" transform="matrix(1 0 0 -1 0 540)" d="M779.82 207.6C 849.74 207.6 913.38 180.7 960.96 136.69L960.96 136.69L961.68 135.96L961.68 135.96L961.68 -0.95996L961.68 -0.95996L519.48 -0.95996L519.48 -0.95996L521.44 7.543C 551.05 122.59 655.5 207.6 779.82 207.6z" stroke="none" fill="#FFC000" fill-rule="evenodd" /></g><g clip-path="url(#4)"><path id="3" transform="matrix(1 0 0 -1 0 540)" d="M743.75 540.72L961.68 540.72L961.68 540.72L961.68 349.62L961.68 349.62L958.55 348.47C 942.77 343.56 926 340.92 908.6 340.92C 815.84 340.92 740.64 416.11 740.64 508.85C 740.64 514.65 740.93 520.38 741.51 526.02L741.51 526.02L743.75 540.72z" stroke="none" fill="#FFC000" fill-rule="evenodd" /></g><g clip-path="url(#5)"><path id="4" transform="matrix(1 0 0 -1 0 540)" d="M-1.92 540.72L317.88 540.72L317.88 540.72L309.26 526.53C 265.87 462.33 192.41 420.12 109.08 420.12C 72.622 420.12 38.053 428.2 7.0655 442.66L7.0655 442.66L-1.92 447.2L-1.92 447.2L-1.92 540.72z" stroke="none" fill="#FFC000" fill-rule="evenodd" /></g><path id="5" transform="matrix(1 0 0 -1 0 540)" d="M882.36 480.84L906.84 480.84L906.84 480.84L906.84 483.96L906.84 483.96L882.36 483.96z" stroke="none" fill="#FFFFFF" fill-rule="evenodd" /><path id="6" transform="matrix(1 0 0 -1 0 540)" d="M882.36 471.48L906.84 471.48L906.84 471.48L906.84 474.6L906.84 474.6L882.36 474.6z" stroke="none" fill="#FFFFFF" fill-rule="evenodd" /><path id="7" transform="matrix(1 0 0 -1 0 540)" d="M882.36 462.24L906.84 462.24L906.84 462.24L906.84 465.24L906.84 465.24L882.36 465.24z" stroke="none" fill="#FFFFFF" fill-rule="evenodd" /><path id="8" transform="matrix(1 0 0 -1 0 540)" d="M301.17 137.88L-3.0518E-05 137.88L-3.0518E-05 137.88L-3.0518E-05 219.96L-3.0518E-05 219.96L353.04 219.96L353.04 219.96L301.17 137.88z" stroke="none" fill="#ED7D31" fill-rule="evenodd" fill-opacity="0.04705882" /><g clip-path="url(#6)"><path id="9" transform="matrix(1 0 0 -1 0 540)" d="M445.96 275.88L-0.36005 275.88L-0.36005 275.88L-0.36005 357.84L-0.36005 357.84L522.84 357.84L522.84 357.84L445.96 275.88z" stroke="none" fill="#ED7D31" fill-rule="evenodd" fill-opacity="0.04705882" /></g><g clip-path="url(#7)"><path id="10" transform="matrix(1 0 0 -1 0 540)" d="M570.02 413.76L-0.48004 413.76L-0.48004 413.76L-0.48004 495.84L-0.48004 495.84L668.28 495.84L668.28 495.84L570.02 413.76z" stroke="none" fill="#ED7D31" fill-rule="evenodd" fill-opacity="0.04705882" /></g><path id="11" transform="matrix(1 0 0 -1 0 540)" d="M245.38 6.1035E-05L-3.0518E-05 6.1035E-05L-3.0518E-05 6.1035E-05L-3.0518E-05 82.08L-3.0518E-05 82.08L287.64 82.08L287.64 82.08L245.38 6.1035E-05z" stroke="none" fill="#ED7D31" fill-rule="evenodd" fill-opacity="0.04705882" /><path id="12" transform="matrix(1 0 0 -1 0 540)" d="M306.36 151.68C 306.36 165.13 317.27 176.04 330.72 176.04L330.72 176.04L518.04 176.04C 531.49 176.04 542.4 165.13 542.4 151.68L542.4 151.68L542.4 151.68C 542.4 138.23 531.49 127.32 518.04 127.32L518.04 127.32L330.72 127.32C 317.27 127.32 306.36 138.23 306.36 151.68z" stroke="none" fill="#ED7D31" fill-rule="evenodd" /><path id="13" transform="matrix(1 0 0 -1 0 540)" d="M306.72 151.8C 306.72 165.05 317.47 175.8 330.72 175.8L330.72 175.8L386.88 175.8C 400.13 175.8 410.88 165.05 410.88 151.8L410.88 151.8L410.88 151.8C 410.88 138.55 400.13 127.8 386.88 127.8L386.88 127.8L330.72 127.8C 317.47 127.8 306.72 138.55 306.72 151.8z" stroke="none" fill="#FFC000" fill-rule="evenodd" /><g clip-path="url(#8)"></g><g clip-path="url(#9)"></g><path id="26" transform="matrix(1 0 0 -1 0 540)" d="M53.76 51.78C 53.76 54.53 56.016 56.76 58.8 56.76C 61.584 56.76 63.84 54.53 63.84 51.78C 63.84 49.03 61.584 46.8 58.8 46.8C 56.016 46.8 53.76 49.03 53.76 51.78z" stroke="none" fill="#5B9BD5" fill-rule="evenodd" /><path id="27" transform="matrix(1 0 0 -1 0 540)" d="M78.24 51.78C 78.24 54.53 80.496 56.76 83.28 56.76C 86.064 56.76 88.32 54.53 88.32 51.78C 88.32 49.03 86.064 46.8 83.28 46.8C 80.496 46.8 78.24 49.03 78.24 51.78z" stroke="none" fill="#ED7D31" fill-rule="evenodd" /><path id="28" transform="matrix(1 0 0 -1 0 540)" d="M102.84 51.78C 102.84 54.53 105.1 56.76 107.88 56.76C 110.66 56.76 112.92 54.53 112.92 51.78C 112.92 49.03 110.66 46.8 107.88 46.8C 105.1 46.8 102.84 49.03 102.84 51.78z" stroke="none" fill="#5B9BD5" fill-rule="evenodd" /><path id="29" transform="matrix(1 0 0 -1 0 540)" d="M127.32 51.78C 127.32 54.53 129.58 56.76 132.36 56.76C 135.14 56.76 137.4 54.53 137.4 51.78C 137.4 49.03 135.14 46.8 132.36 46.8C 129.58 46.8 127.32 49.03 127.32 51.78z" stroke="none" fill="#ED7D31" fill-rule="evenodd" /><path id="30" transform="matrix(1 0 0 -1 0 540)" d="M151.92 51.78C 151.92 54.53 154.18 56.76 156.96 56.76C 159.74 56.76 162 54.53 162 51.78C 162 49.03 159.74 46.8 156.96 46.8C 154.18 46.8 151.92 49.03 151.92 51.78z" stroke="none" fill="#5B9BD5" fill-rule="evenodd" /><path id="31" transform="matrix(1 0 0 -1 0 540)" d="M176.52 51.78C 176.52 54.53 178.78 56.76 181.56 56.76C 184.34 56.76 186.6 54.53 186.6 51.78C 186.6 49.03 184.34 46.8 181.56 46.8C 178.78 46.8 176.52 49.03 176.52 51.78z" stroke="none" fill="#ED7D31" fill-rule="evenodd" /><g clip-path="url(#10)"></g><path id="37" transform="matrix(1 0 0 -1 0 540)" d="M647.52 171.6C 647.52 171.6 649.68 177.36 649.68 177.36C 649.92 177.36 649.92 177.36 649.92 177.36C 655.2 175.44 655.2 175.44 655.2 175.44C 654.96 175.44 654.96 175.44 654.96 175.44C 655.2 175.44 655.2 175.44 655.2 175.44C 655.2 175.44 655.2 175.44 655.2 175.44C 655.2 175.44 655.44 175.44 655.92 175.44C 656.4 175.2 656.88 174.72 656.88 174.72C 657.36 172.32 655.68 170.88 653.76 170.16C 653.52 170.4 653.28 170.4 653.28 170.4C 653.28 170.4 647.76 171.6 647.52 171.6z" stroke="none" fill="#FFFFFF" fill-rule="evenodd" /><path id="38" transform="matrix(1 0 0 -1 0 540)" d="M656.76 174.72C 656.76 174.72 656.28 175.44 655.8 175.68C 657.96 175.68 664.92 175.92 666.36 174.96C 668.04 173.76 668.76 172.8 668.76 171.84C 668.76 170.88 667.8 167.52 662.04 168.24C 657.72 168.72 653.16 169.68 653.64 170.4C 655.56 171.12 657.24 172.56 656.76 174.72z" stroke="none" fill="#5E2D00" fill-rule="evenodd" /><path id="39" transform="matrix(1 0 0 -1 0 540)" d="M653.64 170.24C 654.6 170.71 655.32 171.19 656.04 171.66C 658.68 170.71 660.84 170.95 663.48 170.95C 663.72 171.42 664.2 173.31 663.72 173.55C 662.28 174.5 658.44 174.26 656.76 174.73C 656.76 174.73 656.28 175.21 655.8 175.44C 657.96 175.44 664.92 175.68 666.36 174.73C 668.04 173.79 668.76 172.84 668.76 171.66C 668.76 170.71 667.8 167.4 662.04 168.11C 657.72 168.82 653.16 169.53 653.64 170.24z" stroke="none" fill="#6B3500" fill-rule="evenodd" /><path id="40" transform="matrix(1 0 0 -1 0 540)" d="M666.12 174.96C 666.36 174.72 666.36 174.72 666.36 174.72C 668.04 173.78 668.76 172.84 668.76 171.66C 668.76 170.95 668.28 169.07 665.64 168.36C 665.64 170.48 665.4 172.6 666.12 174.96z" stroke="none" fill="#F1F2F2" fill-rule="evenodd" /><path id="41" transform="matrix(1 0 0 -1 0 540)" d="M657.36 174.72C 658.95 170.4 658.95 170.4 658.95 170.4C 658.95 170.4 659.17 170.4 659.17 170.4C 659.4 170.4 659.4 170.64 659.4 170.64C 657.81 174.96 657.81 174.96 657.81 174.96C 657.59 174.96 657.59 174.96 657.36 174.96C 657.36 174.96 657.36 174.96 657.36 174.72" stroke="none" fill="#FFFFFF" fill-rule="evenodd" /><path id="42" transform="matrix(1 0 0 -1 0 540)" d="M658.68 174.48C 660.36 170.64 660.36 170.64 660.36 170.64C 660.36 170.64 660.6 170.4 660.6 170.64C 660.84 170.64 660.84 170.64 660.84 170.88C 659.16 174.72 659.16 174.72 659.16 174.72C 659.16 174.72 658.92 174.72 658.92 174.72C 658.68 174.72 658.68 174.72 658.68 174.48" stroke="none" fill="#FFFFFF" fill-rule="evenodd" /><path id="43" transform="matrix(1 0 0 -1 0 540)" d="M660.72 174.13C 661.83 170.4 661.83 170.4 661.83 170.4C 662.06 170.4 662.06 170.4 662.06 170.4C 662.28 170.4 662.28 170.63 662.28 170.63C 660.94 174.36 660.94 174.36 660.94 174.36C 660.94 174.36 660.94 174.36 660.72 174.36C 660.72 174.36 660.72 174.36 660.72 174.13" stroke="none" fill="#FFFFFF" fill-rule="evenodd" /><path id="44" transform="matrix(1 0 0 -1 0 540)" d="M662.64 174.13C 663.52 170.4 663.52 170.4 663.52 170.4C 663.52 170.4 663.74 170.4 663.74 170.4C 663.96 170.4 663.96 170.4 663.96 170.63C 662.86 174.36 662.86 174.36 662.86 174.36C 662.86 174.36 662.86 174.36 662.64 174.36C 662.64 174.36 662.64 174.36 662.64 174.13" stroke="none" fill="#FFFFFF" fill-rule="evenodd" /><path id="45" transform="matrix(1 0 0 -1 0 540)" d="M656.76 170.64C 659.4 174.48 659.4 174.48 659.4 174.48C 659.4 174.72 659.4 174.72 659.16 174.96C 659.16 174.96 659.16 174.96 658.92 174.72C 656.52 170.88 656.52 170.88 656.52 170.88C 656.52 170.64 656.52 170.64 656.52 170.64C 656.76 170.4 656.76 170.64 656.76 170.64" stroke="none" fill="#FFFFFF" fill-rule="evenodd" /><path id="46" transform="matrix(1 0 0 -1 0 540)" d="M658.54 170.64C 660.61 174.13 660.61 174.13 660.61 174.13C 660.84 174.13 660.84 174.36 660.61 174.36C 660.61 174.36 660.38 174.36 660.38 174.36C 658.31 170.87 658.31 170.87 658.31 170.87C 658.08 170.87 658.08 170.64 658.31 170.64C 658.31 170.64 658.54 170.64 658.54 170.64" stroke="none" fill="#FFFFFF" fill-rule="evenodd" /><path id="47" transform="matrix(1 0 0 -1 0 540)" d="M660.23 170.63C 662.28 174.13 662.28 174.13 662.28 174.13C 662.28 174.13 662.28 174.13 662.05 174.36C 662.05 174.36 661.82 174.36 661.82 174.13C 660 170.87 660 170.87 660 170.87C 660 170.63 660 170.63 660 170.4C 660.23 170.4 660.23 170.4 660.23 170.63" stroke="none" fill="#FFFFFF" fill-rule="evenodd" /><path id="48" transform="matrix(1 0 0 -1 0 540)" d="M662.04 170.4C 663.72 173.76 663.72 173.76 663.72 173.76C 663.96 174 663.72 174 663.72 174.24C 663.72 174.24 663.48 174.24 663.48 174C 661.8 170.4 661.8 170.4 661.8 170.4C 661.8 170.4 661.8 170.16 661.8 170.16C 662.04 170.16 662.04 170.16 662.04 170.4" stroke="none" fill="#FFFFFF" fill-rule="evenodd" /><path id="49" transform="matrix(1 0 0 -1 0 540)" d="M634.32 187.08C 634.32 187.08 630 183 631.44 181.8C 632.16 181.08 639.36 174.6 639.36 174.6C 639.36 174.6 644.88 177.24 648.72 174.84C 652.08 174.36 657.36 178.2 659.28 181.56C 660 183 657.6 186.12 656.4 187.08C 654.48 187.32 654.48 187.32 654.48 187.32C 634.56 187.56 634.56 187.56 634.56 187.56L634.56 187.56L634.32 187.08z" stroke="none" fill="#000000" fill-rule="evenodd" /><path id="50" transform="matrix(1 0 0 -1 0 540)" d="M641 223.13C 641 223.13 641 223.13 641 223.37C 641 223.37 641.24 223.37 641.24 223.61C 641.24 223.84 641.24 223.84 641.24 223.84C 641.72 225.27 641.48 227.89 641.48 228.6C 641.48 228.6 643.39 228.6 645.06 228.6C 646.97 228.6 648.64 228.6 648.64 228.6C 648.64 227.89 648.64 225.27 648.88 223.84C 649.12 223.61 649.12 223.61 649.12 223.61C 649.12 223.37 649.12 223.37 649.12 223.37C 649.12 223.13 649.12 223.13 649.36 223.13C 649.84 222.42 657 220.28 657.72 218.61C 657 215.52 633.36 215.52 632.64 218.61C 633.36 220.28 640.28 222.42 641 223.13" stroke="none" fill="#E8BAA0" fill-rule="evenodd" /><path id="51" transform="matrix(1 0 0 -1 0 540)" d="M635.52 220.44C 634.08 219.96 632.88 219.24 632.64 218.52C 632.64 218.28 632.88 217.56 633.36 217.56C 633.36 217.56 633.36 217.56 633.36 217.56C 632.88 217.8 632.64 218.04 632.64 218.52C 632.88 219.24 634.08 219.96 635.52 220.44" stroke="none" fill="#FAE1D6" fill-rule="evenodd" /><path id="52" transform="matrix(1 0 0 -1 0 540)" d="M648.72 228.6C 648.72 228.6 646.8 228.36 645.12 228.36C 643.44 228.36 641.76 228.6 641.76 228.6C 641.52 227.64 641.76 225 641.28 223.56C 641.28 223.32 641.28 223.32 641.28 223.32C 641.28 223.32 641.28 223.32 641.04 223.08C 641.04 223.08 641.04 223.08 641.04 222.84C 640.56 222.36 637.92 221.64 635.52 220.44C 634.08 219.96 632.88 219.24 632.64 218.52C 632.64 218.04 632.88 217.8 633.36 217.56C 633.36 217.56 633.36 217.56 633.36 217.56C 648.72 221.4 648.72 224.04 648.96 224.28C 648.72 225.72 648.72 227.64 648.72 228.6" stroke="none" fill="#E3A586" fill-rule="evenodd" /><path id="53" transform="matrix(1 0 0 -1 0 540)" d="M644.88 212.28C 648.72 212.28 651.84 216.65 651.84 220.78C 651.84 221.26 651.84 221.75 651.84 222.23C 651.36 222.48 650.88 222.48 650.16 222.72C 648.72 220.78 647.04 220.05 645.6 219.81C 645.36 219.81 645.12 218.84 645.12 217.38C 645.12 218.35 644.64 219.81 644.64 219.81C 641.52 219.81 639.84 222.72 639.84 222.72C 639.84 222.72 639.36 222.48 638.4 222.23C 638.4 221.75 638.16 221.26 638.16 220.78C 638.16 216.65 641.04 212.28 644.88 212.28z" stroke="none" fill="#F1F1F2" fill-rule="evenodd" /><path id="54" transform="matrix(1 0 0 -1 0 540)" d="M664.44 200.19C 664.44 201.38 661.34 216.64 658.47 219.5C 658.24 219.74 656.57 220.45 656.33 220.69C 656.33 220.69 656.33 220.69 656.33 220.69C 656.09 220.69 656.09 220.69 656.09 220.69C 655.37 221.17 654.18 221.64 652.75 222.12C 652.27 222.12 652.03 222.12 651.79 222.12C 651.79 221.64 648.93 216.88 645.11 216.88C 641.3 216.88 638.43 221.64 638.43 222.12C 638.19 222.12 637.95 221.88 637.72 221.88C 636.52 221.4 635.09 220.93 634.14 220.45C 634.14 220.45 634.14 220.45 634.14 220.45C 633.66 220.45 633.42 220.21 633.18 220.21C 632.71 219.97 631.99 219.5 631.99 219.5C 629.13 216.4 625.07 201.14 625.07 201.14C 623.4 197.33 635.33 189.94 636.05 190.9C 637.48 193.04 636.52 196.62 631.51 200.91C 632.47 202.34 634.61 208.77 634.61 208.77C 634.61 208.06 633.66 196.14 633.9 192.33C 634.14 188.27 634.61 187.56 634.61 187.56C 634.61 187.56 650.12 187.32 654.42 187.32C 655.85 188.51 656.33 204.24 655.85 208.77C 657.04 203.53 658.24 201.14 658.24 201.14C 651.32 191.13 651.32 191.13 651.32 191.13C 652.27 189.94 653.23 190.18 655.13 190.18C 661.1 194.95 664.44 199.48 664.44 200.19z" stroke="none" fill="#EAA444" fill-rule="evenodd" /><path id="55" transform="matrix(1 0 0 -1 0 540)" d="M649.2 224.04C 649.2 224.04 649.44 220.96 645.6 219.78C 647.28 219.07 648.96 215.28 648.96 215.28C 648.96 215.28 651.6 219.07 651.12 222.38C 650.64 223.09 649.2 224.04 649.2 224.04z" stroke="none" fill="#FFFFFF" fill-rule="evenodd" /><path id="56" transform="matrix(1 0 0 -1 0 540)" d="M641.04 224.04C 641.04 224.04 640.8 220.92 644.64 219.72C 642.96 219 642.72 214.68 642.72 214.68C 642.72 214.68 638.16 218.76 639.36 222.36C 639.84 223.08 641.04 224.04 641.04 224.04z" stroke="none" fill="#FFFFFF" fill-rule="evenodd" /><path id="57" transform="matrix(1 0 0 -1 0 540)" d="M645.07 182.8C 645.07 182.8 627.41 189 621.68 187.09C 615.95 185.42 614.76 174.93 634.57 172.3C 654.37 169.44 653.42 169.68 653.42 169.68C 653.42 169.68 656.76 176.6 653.9 179.94C 649.12 181.84 645.07 182.8 645.07 182.8z" stroke="none" fill="#1E1713" fill-rule="evenodd" /><path id="58" transform="matrix(1 0 0 -1 0 540)" d="M652.08 236.69C 652.08 231.91 653.52 235.5 652.08 230C 650.64 224.74 648.96 223.31 647.28 222.59C 644.88 221.4 642.24 223.07 640.8 224.98C 639.84 226.42 639.36 226.66 638.4 231.91C 635.28 247.92 637.68 233.58 637.92 236.45C 638.16 242.9 642.48 246.01 645.84 246.01C 649.44 246.01 652.08 243.14 652.08 236.69z" stroke="none" fill="#E8BAA0" fill-rule="evenodd" /><path id="59" transform="matrix(1 0 0 -1 0 540)" d="M651.28 231.93C 651.05 232.17 650.1 231.93 649.86 231.93C 648.68 231.7 647.73 231.46 646.79 231.22C 645.36 230.98 644.18 230.98 642.76 230.98C 642.29 230.98 641.81 230.98 641.58 231.22C 641.1 231.22 640.63 231.22 640.39 231.22C 639.92 231.22 639.68 230.98 639.44 230.74C 639.21 230.5 639.21 230.03 639.21 229.79C 639.21 229.31 639.21 228.83 639.21 228.6C 638.5 229.79 637.79 231.22 637.55 232.65C 637.08 234.08 636.84 235.51 636.84 236.94C 636.84 238.14 636.84 239.57 637.08 240.76C 637.31 241.71 638.26 242.67 638.73 243.15C 640.16 244.58 641.58 245.53 643.23 246.01C 644.65 246.72 646.79 247.2 648.21 246.72C 648.68 246.48 649.15 246.25 649.39 246.01C 649.39 245.77 650.34 244.81 650.1 244.58C 651.05 245.05 652 244.58 652.71 244.1C 653.18 243.62 653.65 242.67 654.13 241.71C 654.6 240.04 654.36 237.66 654.13 235.99C 654.13 234.56 653.89 233.13 653.42 231.7C 653.42 231.46 653.18 230.98 653.18 230.74C 652.94 230.5 652.71 230.27 652.71 230.03C 652.23 229.31 651.76 228.6 651.52 227.88C 651.28 228.36 651.52 229.07 651.52 229.55C 651.76 230.5 651.76 231.22 651.28 231.93z" stroke="none" fill="#5F4544" fill-rule="evenodd" /><path id="60" transform="matrix(1 0 0 -1 0 540)" d="M638.4 171.6C 638.64 171.6 636.24 177.36 636.24 177.36C 636 177.36 636 177.36 636 177.36C 630.96 175.44 630.96 175.44 630.96 175.44C 631.2 175.44 631.2 175.44 631.2 175.44C 630.96 175.44 630.96 175.44 630.96 175.44C 630.72 175.44 630.72 175.44 630.72 175.44C 630.72 175.44 630.48 175.44 630.24 175.44C 629.76 175.2 629.28 174.72 629.28 174.72C 628.8 172.32 630.48 170.88 632.4 170.16C 632.64 170.4 632.88 170.4 632.88 170.4C 632.88 170.4 638.4 171.6 638.4 171.6z" stroke="none" fill="#FFFFFF" fill-rule="evenodd" /><path id="61" transform="matrix(1 0 0 -1 0 540)" d="M629.43 174.72C 629.43 174.72 629.9 175.44 630.38 175.68C 628.24 175.68 621.09 175.92 619.9 174.96C 618.23 173.76 617.28 172.8 617.52 171.84C 617.52 170.88 618.47 167.52 623.95 168.24C 628.47 168.72 633 169.68 632.52 170.4C 630.62 171.12 628.95 172.56 629.43 174.72z" stroke="none" fill="#5E2D00" fill-rule="evenodd" /><path id="62" transform="matrix(1 0 0 -1 0 540)" d="M632.52 170.24C 631.57 170.71 630.62 171.19 630.14 171.66C 627.52 170.71 625.38 170.95 622.76 170.95C 622.52 171.42 622.04 173.31 622.52 173.55C 623.95 174.5 627.76 174.26 629.43 174.73C 629.43 174.73 629.9 175.21 630.38 175.44C 628.24 175.44 621.09 175.68 619.9 174.73C 618.23 173.79 617.28 172.84 617.52 171.66C 617.52 170.71 618.47 167.4 623.95 168.11C 628.47 168.82 633 169.53 632.52 170.24z" stroke="none" fill="#6B3500" fill-rule="evenodd" /><path id="63" transform="matrix(1 0 0 -1 0 540)" d="M620.06 174.96C 619.83 174.72 619.83 174.72 619.83 174.72C 618.21 173.78 617.28 172.84 617.51 171.66C 617.51 170.95 617.98 169.07 620.3 168.36C 620.53 170.48 620.76 172.6 620.06 174.96z" stroke="none" fill="#F1F2F2" fill-rule="evenodd" /><path id="64" transform="matrix(1 0 0 -1 0 540)" d="M628.35 174.96C 626.76 170.64 626.76 170.64 626.76 170.64C 626.76 170.64 626.76 170.4 626.76 170.4C 626.99 170.4 626.99 170.4 626.99 170.4C 628.8 174.72 628.8 174.72 628.8 174.72C 628.8 174.96 628.8 174.96 628.57 174.96C 628.57 174.96 628.35 174.96 628.35 174.96" stroke="none" fill="#FFFFFF" fill-rule="evenodd" /><path id="65" transform="matrix(1 0 0 -1 0 540)" d="M626.88 174.72C 625.2 170.88 625.2 170.88 625.2 170.88C 625.2 170.64 625.2 170.64 625.2 170.64C 625.44 170.4 625.44 170.64 625.44 170.64C 627.12 174.48 627.12 174.48 627.12 174.48C 627.12 174.72 627.12 174.72 627.12 174.72C 626.88 174.72 626.88 174.72 626.88 174.72" stroke="none" fill="#FFFFFF" fill-rule="evenodd" /><path id="66" transform="matrix(1 0 0 -1 0 540)" d="M625.08 174.36C 623.88 170.63 623.88 170.63 623.88 170.63C 623.88 170.63 623.88 170.4 623.88 170.4C 624.12 170.4 624.12 170.4 624.12 170.4C 625.56 174.13 625.56 174.13 625.56 174.13C 625.56 174.36 625.56 174.36 625.32 174.36C 625.32 174.36 625.08 174.36 625.08 174.36" stroke="none" fill="#FFFFFF" fill-rule="evenodd" /><path id="67" transform="matrix(1 0 0 -1 0 540)" d="M623.08 174.36C 622.2 170.63 622.2 170.63 622.2 170.63C 622.2 170.4 622.2 170.4 622.2 170.4C 622.42 170.4 622.42 170.4 622.42 170.4C 623.52 174.13 623.52 174.13 623.52 174.13C 623.52 174.36 623.52 174.36 623.3 174.36C 623.3 174.36 623.08 174.36 623.08 174.36" stroke="none" fill="#FFFFFF" fill-rule="evenodd" /><path id="68" transform="matrix(1 0 0 -1 0 540)" d="M629.64 170.88C 627 174.72 627 174.72 627 174.72C 627 174.96 627 174.96 626.76 174.96C 626.76 174.72 626.76 174.72 626.76 174.48C 629.16 170.64 629.16 170.64 629.16 170.64C 629.4 170.64 629.4 170.4 629.4 170.64C 629.64 170.64 629.64 170.64 629.64 170.88" stroke="none" fill="#FFFFFF" fill-rule="evenodd" /><path id="69" transform="matrix(1 0 0 -1 0 540)" d="M627.96 170.87C 625.7 174.36 625.7 174.36 625.7 174.36C 625.45 174.36 625.45 174.36 625.2 174.36C 625.2 174.36 625.2 174.13 625.2 174.13C 627.71 170.64 627.71 170.64 627.71 170.64C 627.71 170.64 627.96 170.64 627.96 170.64C 627.96 170.64 627.96 170.87 627.96 170.87" stroke="none" fill="#FFFFFF" fill-rule="evenodd" /><path id="70" transform="matrix(1 0 0 -1 0 540)" d="M626.16 170.87C 624.11 174.13 624.11 174.13 624.11 174.13C 624.11 174.36 624.11 174.36 623.88 174.36C 623.88 174.13 623.88 174.13 623.88 174.13C 625.7 170.63 625.7 170.63 625.7 170.63C 625.93 170.4 625.93 170.4 625.93 170.4C 626.16 170.63 626.16 170.63 626.16 170.87" stroke="none" fill="#FFFFFF" fill-rule="evenodd" /><path id="71" transform="matrix(1 0 0 -1 0 540)" d="M624.36 170.4C 622.68 174 622.68 174 622.68 174C 622.44 174.24 622.44 174.24 622.44 174.24C 622.2 174 622.2 174 622.2 173.76C 623.88 170.4 623.88 170.4 623.88 170.4C 624.12 170.16 624.12 170.16 624.12 170.16C 624.36 170.16 624.36 170.4 624.36 170.4" stroke="none" fill="#FFFFFF" fill-rule="evenodd" /><path id="72" transform="matrix(1 0 0 -1 0 540)" d="M644.09 183.12C 644.09 183.12 661.75 189.36 667.48 187.44C 673.21 185.76 674.4 175.2 654.59 172.56C 635.02 169.68 635.74 169.92 635.74 169.92C 635.74 169.92 632.4 176.88 635.26 180.24C 640.27 182.16 644.09 183.12 644.09 183.12z" stroke="none" fill="#2B221E" fill-rule="evenodd" /><path id="73" transform="matrix(1 0 0 -1 0 540)" d="M658.68 184.2C 630.36 184.2 630.36 184.2 630.36 184.2C 630.36 197.07 630.36 197.07 630.36 197.07C 630.36 199.21 632.03 200.88 634.17 200.88C 654.87 200.88 654.87 200.88 654.87 200.88C 657.01 200.88 658.68 199.21 658.68 197.07L658.68 197.07L658.68 184.2z" stroke="none" fill="#BCBEC0" fill-rule="evenodd" /><path id="74" transform="matrix(1 0 0 -1 0 540)" d="M642.48 192.66C 642.48 193.75 643.39 194.64 644.52 194.64C 645.65 194.64 646.56 193.75 646.56 192.66C 646.56 191.57 645.65 190.68 644.52 190.68C 643.39 190.68 642.48 191.57 642.48 192.66z" stroke="none" fill="#FFFFFF" fill-rule="evenodd" /><path id="75" transform="matrix(1 0 0 -1 0 540)" d="M773.04 398.4C 773.04 398.4 765.12 397.23 765.12 397.23C 765.12 397.23 764.16 395.13 766.8 393.96C 772.56 395.83 773.04 396.3 773.04 396.3L773.04 396.3L773.04 398.4z" stroke="none" fill="#FFFFFF" fill-rule="evenodd" /><path id="76" transform="matrix(1 0 0 -1 0 540)" d="M779.64 359.1C 779.64 359.1 779.17 360.76 776.82 364.82C 774.71 368.87 773.76 370.77 773.76 370.77C 773.76 370.77 776.12 381.26 775.88 394.6C 779.88 397.46 777.76 398.42 777.76 398.42C 777.76 398.42 778.7 399.85 777.06 400.32C 775.41 400.8 770 399.85 772.59 395.08C 770.47 387.93 769.06 378.4 768.12 372.2C 768.12 364.82 771.65 353.38 772.59 350.04C 775.88 350.75 779.64 359.1 779.64 359.1" stroke="none" fill="#E8BAA0" fill-rule="evenodd" /><path id="77" transform="matrix(1 0 0 -1 0 540)" d="M777.6 399.36C 777.36 398.16 777.36 398.16 777.36 398.16C 777.36 398.16 777.83 397.44 778.07 397.44C 780.45 397.68 786.62 397.92 786.62 397.92C 786.62 397.92 788.04 401.52 785.43 402C 781.63 401.04 777.6 399.36 777.6 399.36z" stroke="none" fill="#FFFFFF" fill-rule="evenodd" /><path id="78" transform="matrix(1 0 0 -1 0 540)" d="M775.24 371.74C 775.24 371.74 776.67 378.18 777.14 388.44C 775.48 387.96 768.57 385.58 767.14 384.86C 765.95 380.8 765.47 373.41 764.76 369.35C 764.76 361.95 770.95 350.98 771.9 347.4C 775 348.35 780.24 360.76 780.24 360.76C 780.24 360.76 779.53 361.72 777.62 364.58C 774.76 369.11 775.24 371.74 775.24 371.74" stroke="none" fill="#30587C" fill-rule="evenodd" /><path id="79" transform="matrix(1 0 0 -1 0 540)" d="M786.64 366.72C 786.64 366.72 787.82 361.51 789 359.85C 785.69 357.96 781.2 360.56 781.2 360.56C 781.67 365.3 781.67 365.3 781.67 365.3L781.67 365.3L786.64 366.72z" stroke="none" fill="#E8BAA0" fill-rule="evenodd" /><path id="80" transform="matrix(1 0 0 -1 0 540)" d="M798.13 309.86C 798.13 309.86 799.8 288.19 799.56 286.29C 799.32 284.62 789.31 258.19 787.64 255.34C 785.73 252.48 783.34 253.91 783.34 253.91C 783.34 253.91 785.97 279.86 789.31 286.77C 781.91 302.72 780.72 312.48 780.72 312.48L780.72 312.48L798.13 309.86z" stroke="none" fill="#E8BAA0" fill-rule="evenodd" /><path id="81" transform="matrix(1 0 0 -1 0 540)" d="M798.13 309.86C 780.72 312.48 780.72 312.48 780.72 312.48C 780.72 312.48 781.91 302.7 789.31 286.72C 786.92 281.72 783.58 267.89 782.63 260.02C 783.82 258.82 787.64 256.68 789.31 256.2C 792.17 262.4 799.56 284.58 799.56 286.25C 799.8 288.16 798.13 309.86 798.13 309.86z" stroke="none" fill="#2B221E" fill-rule="evenodd" /><path id="82" transform="matrix(1 0 0 -1 0 540)" d="M792.24 317.28C 792.24 317.28 785.79 289.61 785.31 287.95C 784.59 286.28 770.73 264.81 768.58 262.66C 766.43 260.28 764.52 262.43 764.52 262.43C 764.52 262.43 772.41 285.32 775.99 290.57C 773.6 304.64 774.32 314.42 774.32 314.42L774.32 314.42L792.24 317.28z" stroke="none" fill="#D8A084" fill-rule="evenodd" /><path id="83" transform="matrix(1 0 0 -1 0 540)" d="M792.24 317.28C 774.32 314.42 774.32 314.42 774.32 314.42C 774.32 314.42 773.6 304.65 775.99 290.58C 773.36 287.01 768.11 276.04 765.48 268.89C 766.91 268.18 770.26 265.55 771.45 264.6C 775.99 271.04 784.83 286.53 785.31 287.96C 785.79 289.63 792.24 317.28 792.24 317.28z" stroke="none" fill="#2B221E" fill-rule="evenodd" /><path id="84" transform="matrix(1 0 0 -1 0 540)" d="M791.95 361.33C 794.34 361.33 795.77 359.18 796.24 357.04C 797.2 354.18 797.92 351.32 798.87 348.22C 801.5 338.45 801.02 327.72 802.21 317.71C 802.93 311.52 803.88 305.32 803.88 298.89C 803.88 294.6 804.36 290.31 804.36 286.02C 804.36 280.53 804.36 275.05 804.12 269.57C 804.12 266.71 804.12 263.61 803.64 260.52C 799.11 259.8 795.05 262.9 791.47 265.76C 791.47 266.71 785.5 269.57 784.55 270.29C 782.16 271.48 779.54 272.67 777.15 273.86C 771.66 275.77 766.41 276.48 760.92 277.2C 765.45 289.59 769.51 302.22 770.94 315.33C 771.66 321.29 771.66 326.77 771.18 332.73C 770.47 339.16 770.23 344.41 770.47 351.08C 770.71 354.66 771.66 360.85 775.96 362.04C 777.39 362.52 779.3 362.52 780.73 362.04C 780.73 362.04 784.07 359.42 788.37 361.57C 789.56 361.33 790.99 361.33 791.95 361.33z" stroke="none" fill="#354D6F" fill-rule="evenodd" /><path id="85" transform="matrix(1 0 0 -1 0 540)" d="M790.43 359.54C 790.91 360.49 791.86 360.97 792.81 360.97C 794.25 360.73 796.39 359.78 797.59 355.73C 797.59 355.02 798.06 353.83 798.3 353.12C 798.54 352.16 798.54 351.45 798.78 350.74C 799.26 349.07 799.74 347.4 800.21 345.74C 801.17 348.12 802.12 350.26 802.84 352.4C 803.08 353.35 804.03 354.78 804.03 355.73C 803.79 356.69 803.32 357.64 803.08 358.35C 802.84 358.59 802.84 358.59 802.84 358.83C 802.84 359.07 802.84 359.07 802.84 359.3C 803.08 359.78 803.08 360.26 803.08 360.49C 803.32 360.73 803.32 360.73 803.32 360.97C 803.32 360.97 803.55 360.97 803.55 360.97C 804.03 361.21 804.51 360.97 804.75 361.21C 804.99 361.21 805.22 361.68 805.7 361.92C 805.94 362.16 806.42 362.16 806.89 362.16C 807.61 362.16 807.85 361.45 808.33 360.73C 808.57 360.26 809.04 359.54 809.28 358.83C 809.52 358.11 809.52 357.16 809.04 356.69C 808.8 356.21 808.57 355.97 808.33 355.5C 807.37 354.31 807.37 352.88 807.13 351.45C 806.89 350.02 806.66 348.59 806.42 347.17C 805.94 344.31 805.22 341.45 804.03 338.6C 803.79 337.65 803.08 336.46 802.6 335.74C 802.12 335.27 800.93 333.6 800.45 333.6C 795.44 334.31 794.01 341.45 792.81 344.55C 791.62 348.12 788.28 354.07 790.43 359.54z" stroke="none" fill="#E8BAA0" fill-rule="evenodd" /><path id="86" transform="matrix(1 0 0 -1 0 540)" d="M802.84 353.91C 801.89 351.04 801.41 349.6 800.69 346.97C 799.98 350.56 800.93 349.6 798.31 355.82C 796.87 360.12 794.25 360.84 792.82 361.08C 791.86 361.08 790.91 360.6 790.43 359.65C 788.28 354.15 790.19 345.3 791.62 341.71C 792.82 338.61 795.92 330.48 800.93 329.76C 804.28 331.91 810.25 337.65 811.2 343.39C 810.01 345.06 804.28 352.71 802.84 353.91z" stroke="none" fill="#30587C" fill-rule="evenodd" /><path id="87" transform="matrix(1 0 0 -1 0 540)" d="M787.12 380.08C 787.12 380.08 789.03 378.42 791.17 373.45C 793.56 368.71 791.17 365.39 789.98 365.15C 788.79 364.92 783.06 364.68 779.72 368C 776.38 371.08 773.76 383.16 787.12 380.08" stroke="none" fill="#E8BAA0" fill-rule="evenodd" /><path id="88" transform="matrix(1 0 0 -1 0 540)" d="M790.8 378.63C 791.52 376.72 789.85 374.82 788.42 374.1C 786.51 373.15 785.56 371 786.27 369.09C 786.04 369.33 785.8 369.57 785.32 369.81C 785.08 370.04 784.6 370.28 784.37 370.04C 783.41 369.57 783.65 368.14 783.89 367.66C 784.13 366.94 784.6 366.23 784.84 365.75C 784.84 365.51 784.84 365.27 784.84 365.03C 784.6 365.03 784.6 365.03 784.6 365.03C 782.94 364.08 780.79 365.03 779.12 365.27C 777.69 365.75 776.5 366.7 775.3 367.66C 774.11 368.85 773.64 370.04 773.4 371.71C 773.16 372.67 772.92 373.86 773.16 375.05C 773.64 376.01 773.87 377.2 774.59 378.16C 775.07 379.11 776.02 380.06 776.97 380.78C 777.93 381.26 779.12 381.73 780.07 381.97C 781.5 382.69 788.42 384.12 790.8 378.63" stroke="none" fill="#181944" fill-rule="evenodd" /><path id="89" transform="matrix(1 0 0 -1 0 540)" d="M784 387.48C 772.55 383.68 772.55 383.68 772.55 383.68C 772.08 382.01 771.36 379.4 772.55 376.07C 772.79 374.88 772.79 374.88 772.79 374.88C 789.72 380.35 789.72 380.35 789.72 380.35C 789.48 381.3 789.48 381.3 789.48 381.3C 788.29 384.63 785.67 386.77 784 387.48" stroke="none" fill="#354D6F" fill-rule="evenodd" /><path id="90" transform="matrix(1 0 0 -1 0 540)" d="M782.86 387C 782.62 387 782.15 387 781.91 386.76C 781.2 386.53 781.2 386.53 781.2 386.53C 782.86 387 782.86 387 782.86 387M789.48 381.34C 789.48 381.34 789.48 381.34 789.48 381.34C 789.72 380.4 789.72 380.4 789.72 380.4C 789.48 381.34 789.48 381.34 789.48 381.34C 789.48 381.34 789.48 381.34 789.48 381.34M789.72 380.4C 789.72 380.16 789.72 380.16 789.72 380.16C 789.72 380.16 789.72 380.16 789.72 380.16C 789.72 380.4 789.72 380.4 789.72 380.4" stroke="none" fill="#A09FA1" fill-rule="evenodd" /><path id="91" transform="matrix(1 0 0 -1 0 540)" d="M789.72 380.16C 788.04 379.56 788.04 379.56 788.04 379.56C 788.04 379.56 788.04 379.56 788.04 379.56C 789.72 380.16 789.72 380.16 789.72 380.16C 789.72 380.16 789.72 380.16 789.72 380.16" stroke="none" fill="#0F0F2B" fill-rule="evenodd" /><path id="92" transform="matrix(1 0 0 -1 0 540)" d="M783.05 387C 783.05 387 783.05 387 782.81 387C 781.14 386.52 781.14 386.52 781.14 386.52C 776.61 383.88 776.61 383.88 776.61 383.88C 774.94 383.4 773.27 383.4 772.56 382.2C 774.47 382.68 776.61 383.16 778.99 383.16C 782.33 383.16 785.67 382.2 788.05 379.56C 789.72 380.04 789.72 380.04 789.72 380.04C 789.72 380.28 789.72 380.28 789.72 380.28C 789.48 381.24 789.48 381.24 789.48 381.24C 789.48 381.24 789.48 381.24 789.48 381.24C 788.53 384.36 785.91 387 783.05 387" stroke="none" fill="#213046" fill-rule="evenodd" /><path id="93" transform="matrix(1 0 0 -1 0 540)" d="M790.8 390.6C 766.08 382.77 766.08 382.77 766.08 382.77C 765.36 382.53 765.12 382.06 765.36 381.58C 765.6 380.87 765.6 380.87 765.6 380.87C 765.6 380.4 766.32 380.16 766.8 380.4C 791.76 388.23 791.76 388.23 791.76 388.23C 792.24 388.47 792.48 388.94 792.24 389.42C 792 389.89 792 389.89 792 389.89C 792 390.6 791.52 390.84 790.8 390.6z" stroke="none" fill="#3A6687" fill-rule="evenodd" /><path id="94" transform="matrix(1 0 0 -1 0 540)" d="M792.48 384.36L792.48 384.36L792.48 384.36L792.48 384.36L792.48 384.36L790.92 388.68L790.92 388.68L790.92 388.68L790.92 388.68L790.92 388.68L790.92 388.68L791.2 388.68L791.2 388.68L792.48 384.36L792.48 384.36L792.48 384.36z" stroke="none" fill="#FEA200" fill-rule="evenodd" /><path id="95" transform="matrix(1 0 0 -1 0 540)" d="M795.12 378.36C 793.87 377.88 793.87 377.88 793.87 377.88C 791.88 384.12 791.88 384.12 791.88 384.12C 791.88 384.36 791.88 384.6 792.13 384.6C 792.38 384.84 792.38 384.84 792.38 384.84C 792.63 384.84 792.88 384.84 793.13 384.6L793.13 384.6L795.12 378.36z" stroke="none" fill="#FFB602" fill-rule="evenodd" /><path id="96" transform="matrix(1 0 0 -1 0 540)" d="M794.16 378.24L794.16 378.24L794.16 378.24L792.48 383.13L792.48 383.13L792.48 383.4L792.48 383.4L794.16 378.24z" stroke="none" fill="#FEA200" fill-rule="evenodd" /><path id="97" transform="matrix(1 0 0 -1 0 540)" d="M794.52 378.24L794.25 378.24L794.25 378.24L792.6 383.4L792.6 383.4L792.87 383.4L792.87 383.4L794.52 378.24z" stroke="none" fill="#FEA200" fill-rule="evenodd" /><path id="98" transform="matrix(1 0 0 -1 0 540)" d="M794.76 378.48L794.5 378.48L794.5 378.48L793.2 383.4L793.2 383.4L793.2 383.4L793.2 383.4L794.76 378.48z" stroke="none" fill="#FEA200" fill-rule="evenodd" /><path id="99" transform="matrix(1 0 0 -1 0 540)" d="M787.32 255.01C 787.32 255.01 784.48 254.77 783.76 257.64C 780.92 257.64 777.84 256.68 777.84 256.68C 778.79 251.43 778.79 251.43 778.79 251.43C 779.97 251.43 779.97 251.43 779.97 251.43C 779.97 251.43 779.5 246.17 779.5 245.94C 779.5 245.7 780.92 232.8 781.87 232.32C 784.48 232.32 784.71 241.87 785.42 244.98C 785.9 248.09 787.32 255.01 787.32 255.01z" stroke="none" fill="#354D6F" fill-rule="evenodd" /><path id="100" transform="matrix(1 0 0 -1 0 540)" d="M769.68 263.79C 769.68 263.79 766.6 263.55 766.12 266.4C 763.04 266.64 760.2 265.45 760.2 265.45C 760.91 260.22 760.91 260.22 760.91 260.22C 762.1 260.22 762.1 260.22 762.1 260.22C 762.1 260.22 761.62 255.23 761.62 254.75C 761.62 254.51 763.28 241.68 764.23 241.2C 766.84 241.44 767.07 250.95 767.78 253.8C 768.26 256.89 769.68 263.79 769.68 263.79z" stroke="none" fill="#354D6F" fill-rule="evenodd" /><path id="101" transform="matrix(1 0 0 -1 0 540)" d="M891.24 122.35C 891.24 122.35 890.28 123.06 890.76 124.7C 889.8 125.64 886.44 125.41 886.44 125.41C 886.44 125.41 885.72 121.18 885.48 120.47C 885.48 120.47 885.48 120.24 885.48 120C 888.12 120.24 890.76 120.71 893.4 121.65C 892.2 122.12 891.24 122.35 891.24 122.35z" stroke="none" fill="#E8BAA0" fill-rule="evenodd" /><path id="102" transform="matrix(1 0 0 -1 0 540)" d="M891.91 122.28C 891.91 122.28 891.19 122.52 890.95 123.24C 889.29 122.52 887.86 121.8 885.72 121.8C 885.48 121.08 885.48 120.6 885.24 120.36C 885.24 119.64 885.24 117.72 885.24 117.72C 890 117.72 890 117.72 890 117.72C 890 118.68 890 118.68 890 118.68C 890 118.68 893.81 117.72 894.29 117.72C 894.76 117.72 898.57 117.48 900.24 117.72C 899.53 120.12 891.91 122.28 891.91 122.28z" stroke="none" fill="#424043" fill-rule="evenodd" /><path id="103" transform="matrix(1 0 0 -1 0 540)" d="M870 124.2C 870 124.2 869.52 125.4 870.48 126.6C 870.24 127.56 867.12 128.76 867.12 128.76C 867.12 128.76 864.96 125.4 864.72 124.92C 864.48 124.92 864.48 124.68 864.48 124.68C 866.64 123.72 869.04 123.24 871.44 123C 870.72 123.72 870 124.2 870 124.2z" stroke="none" fill="#E8BAA0" fill-rule="evenodd" /><path id="104" transform="matrix(1 0 0 -1 0 540)" d="M870.53 124.2C 870.53 124.2 870.29 124.68 870.06 125.16C 868.63 125.16 867.2 125.4 865.3 126.12C 865.06 125.64 864.59 125.16 864.59 125.16C 864.11 124.68 863.4 123 863.4 123C 867.44 121.08 867.44 121.08 867.44 121.08C 867.68 121.8 867.68 121.8 867.68 121.8C 867.68 121.8 870.29 119.64 870.77 119.4C 871.25 119.16 874.1 117.48 875.76 117C 876 119.4 870.53 124.2 870.53 124.2z" stroke="none" fill="#424043" fill-rule="evenodd" /><path id="105" transform="matrix(1 0 0 -1 0 540)" d="M904.15 242.64C 904.15 242.64 904.62 238.8 907.68 235.92C 906.74 234.48 904.62 234.24 904.62 234.24C 904.62 234.24 902.27 237.6 901.56 242.16C 902.5 243.36 904.15 242.64 904.15 242.64z" stroke="none" fill="#9B8579" fill-rule="evenodd" /><path id="106" transform="matrix(1 0 0 -1 0 540)" d="M918.48 239.52L900.24 244.07L900.24 244.07L915.99 254.28L915.99 254.28L918.48 239.52z" stroke="none" fill="#F7941E" fill-rule="evenodd" /><path id="107" transform="matrix(1 0 0 -1 0 540)" d="M904.56 242.4C 900.96 241.92 900.96 241.92 900.96 241.92C 900.48 241.68 900 242.16 900 242.4C 899.52 245.76 899.52 245.76 899.52 245.76C 899.28 246 899.76 246.48 900 246.72C 903.84 247.2 903.84 247.2 903.84 247.2C 904.32 247.2 904.8 246.96 904.8 246.48C 905.28 243.36 905.28 243.36 905.28 243.36C 905.28 242.88 905.04 242.4 904.56 242.4z" stroke="none" fill="#F7C99A" fill-rule="evenodd" /><path id="108" transform="matrix(1 0 0 -1 0 540)" d="M918.7 247.08C 919.44 243 919.19 239.4 918.45 239.4C 917.71 239.16 916.48 241.56 915.99 244.68C 915.74 245.4 915.74 245.88 915.49 246.6C 915.49 247.32 915.25 248.04 915.25 249C 915 251.88 915.25 254.04 915.99 254.28C 916.73 254.28 917.96 251.16 918.7 247.08z" stroke="none" fill="#F7C99A" fill-rule="evenodd" /><path id="109" transform="matrix(1 0 0 -1 0 540)" d="M917.28 247.08C 917.28 245.88 916.8 244.92 916.08 244.68C 915.84 245.4 915.84 245.88 915.6 246.6C 915.6 247.32 915.36 248.04 915.36 249C 916.32 249 917.04 248.28 917.28 247.08z" stroke="none" fill="#FFFFFF" fill-rule="evenodd" /><path id="110" transform="matrix(1 0 0 -1 0 540)" d="M891.48 242.52C 891.48 242.52 891 236.6 891.72 234.47C 887.4 233.52 883.56 237.78 883.56 237.78C 885.72 242.76 885.72 242.76 885.72 242.76L885.72 242.76L891.48 242.52z" stroke="none" fill="#E8BAA0" fill-rule="evenodd" /><path id="111" transform="matrix(1 0 0 -1 0 540)" d="M896.68 256.68C 896.68 256.68 898.1 254.04 898.81 248.04C 899.28 242.04 895.73 239.16 894.31 239.4C 893.13 239.64 886.97 241.56 884.61 246.12C 882.24 250.44 883.66 264.6 896.68 256.68z" stroke="none" fill="#E8BAA0" fill-rule="evenodd" /><path id="112" transform="matrix(1 0 0 -1 0 540)" d="M899.76 253.53C 900 251.4 897.61 249.97 895.7 249.74C 893.56 249.5 891.65 247.37 891.65 245.23C 891.65 245.71 891.41 245.94 891.17 246.42C 890.93 246.65 890.45 246.89 889.98 246.89C 889.02 246.65 888.78 245.23 888.78 244.52C 888.78 243.81 889.02 242.86 889.02 242.15C 889.02 241.91 889.02 241.67 888.78 241.67C 888.78 241.44 888.78 241.44 888.54 241.44C 886.64 241.2 884.49 242.86 883.06 243.81C 881.62 244.52 880.43 246.18 879.71 247.6C 878.76 249.26 878.76 250.69 879 252.58C 879.24 253.77 879.48 254.95 879.95 255.9C 880.67 257.09 881.62 258.04 882.58 258.99C 883.53 259.7 884.96 260.41 886.16 260.65C 887.11 261.12 888.54 261.12 889.74 261.12C 891.41 261.12 899.28 260.41 899.76 253.53z" stroke="none" fill="#A8421A" fill-rule="evenodd" /><path id="113" transform="matrix(1 0 0 -1 0 540)" d="M871.98 191.61C 872.22 185.9 873.41 171.13 874.6 162.32C 871.98 149.22 865.32 128.02 865.32 128.02C 865.32 128.02 868.89 126.12 871.27 125.88C 877.21 138.03 886.49 159.7 886.49 159.7C 891.96 196.14 891.96 196.14 891.96 196.14C 891.96 196.14 881.02 219.48 872.46 197.09C 871.98 195.9 871.98 192.81 871.98 191.61z" stroke="none" fill="#181944" fill-rule="evenodd" /><path id="114" transform="matrix(1 0 0 -1 0 540)" d="M873.96 188.59C 875.4 182.86 879.96 168.79 883.08 160.21C 883.08 146.85 885.96 124.91 885.96 124.91C 885.96 124.91 889.56 123.48 891.96 123.72C 892.92 143.04 895.32 159.97 895.32 159.97C 892.92 196.7 892.92 196.7 892.92 196.7C 892.92 196.7 877.56 218.16 873.48 194.55C 873.24 193.36 873.72 189.78 873.96 188.59z" stroke="none" fill="#004080" fill-rule="evenodd" /><path id="115" transform="matrix(1 0 0 -1 0 540)" d="M873.81 193.77C 873.81 193.77 885.71 190.44 894.28 192.58C 894.99 211.36 899.04 224.19 891.9 234.89C 889.28 236.08 886.19 238.93 884.52 240.12C 877.62 237.03 871.19 204.94 870.48 194.96C 870.48 194.96 872.15 194.24 873.81 193.77z" stroke="none" fill="#DD364A" fill-rule="evenodd" /><path id="116" transform="matrix(1 0 0 -1 0 540)" d="M901.32 236.64C 901.32 236.64 900.84 240.48 902.76 240.24C 903.96 241.68 904.68 242.16 905.4 241.44C 906.84 240.48 907.08 238.56 906.6 237.36C 905.88 236.4 904.68 235.92 904.68 235.92L904.68 235.92L901.32 236.64z" stroke="none" fill="#E8BAA0" fill-rule="evenodd" /><path id="117" transform="matrix(1 0 0 -1 0 540)" d="M886.5 237.27C 888.64 236.08 894.11 232.53 899.35 224.48C 899.35 224.48 900.3 230.87 900.78 237.27C 903.63 239.16 906.25 236.32 906.25 236.32C 906.25 236.32 907.44 219.75 904.58 216.43C 901.73 212.88 888.88 221.64 885.31 224.72C 883.64 225.9 879.36 234.42 883.88 237.27C 884.83 237.74 885.79 237.74 886.5 237.27z" stroke="none" fill="#E54863" fill-rule="evenodd" /><path id="118" transform="matrix(1 0 0 -1 0 540)" d="M746.26 30.72C 701.39 30.72 662.25 30.021 639.82 28.857C 635.52 24.896 635.52 24.896 635.52 24.896C 657 23.732 698.53 22.8 746.26 22.8C 815.95 22.8 872.52 24.664 872.52 26.76C 872.52 29.089 815.95 30.72 746.26 30.72" stroke="none" fill="#E4E5E6" fill-rule="evenodd" /><path id="119" transform="matrix(1 0 0 -1 0 540)" d="M652.91 75.631C 652.91 75.631 656.72 109.92 633.58 109.92C 610.44 109.68 638.11 71.345 638.11 71.345C 638.11 71.345 610.68 93.728 594.93 85.87C 587.3 82.06 579.19 70.392 627.14 51.343C 587.06 64.916 570.6 52.295 570.6 47.533C 570.84 35.151 622.61 34.198 670.56 33.96" stroke="none" fill="#244B36" fill-rule="evenodd" /><path id="120" transform="matrix(1 0 0 -1 0 540)" d="M839.39 90.806C 839.39 90.806 834.14 138.24 865.89 138C 897.89 138 859.93 84.847 859.93 84.847C 859.93 84.847 897.41 115.83 919.14 104.87C 929.64 99.864 940.86 83.656 874.97 57.674C 930.12 76.028 952.8 58.866 952.56 52.192C 952.32 35.269 880.94 33.838 815.04 33.6C 839.39 90.806 839.39 90.806 839.39 90.806" stroke="none" fill="#244B36" fill-rule="evenodd" /><path id="121" transform="matrix(1 0 0 -1 0 540)" d="M836.88 30.832C 836.88 30.594 837.12 30.594 837.36 30.355C 839.5 29.64 848.33 29.878 850.72 29.878C 863.12 29.878 874.34 29.64 886.03 29.878C 901.06 31.548 893.18 29.878 899.39 30.117C 907.97 30.355 916.09 30.832 924.67 32.74C 927.54 33.455 930.4 34.171 932.79 35.84C 935.17 37.509 937.08 40.132 936.84 42.755C 936.84 43.709 936.6 44.662 936.13 45.378C 935.41 45.855 934.69 46.331 933.74 46.57C 929.45 48.239 924.2 48.239 919.9 46.57C 914.89 44.662 891.51 37.986 890.8 43.232C 888.89 58.016 921.81 55.631 924.44 65.169C 925.39 68.984 918.23 72.561 913.94 72.323C 902.96 71.846 895.57 64.692 888.65 55.631C 885.31 51.339 881.97 48.478 876.24 49.431C 875.05 49.67 873.86 50.147 873.14 50.862C 872.67 51.577 872.43 52.531 872.43 53.485C 871.71 58.492 874.1 63.5 876.96 67.792C 879.82 72.084 883.64 75.899 886.5 80.191C 891.04 86.629 900.1 102.61 891.99 113.1C 885.07 121.92 864.08 113.81 857.64 102.61C 855.73 99.506 854.77 95.691 854.3 92.114C 852.63 81.622 854.3 70.653 851.67 60.162C 851.19 58.254 850.72 56.346 849.52 54.916C 848.33 53.247 846.42 52.054 844.51 52.054C 843.56 52.054 842.61 52.054 841.65 51.816C 841.41 51.816 841.17 51.577 841.17 51.339C 840.7 51.1 840.46 50.862 840.22 50.624C 838.31 47.762 838.55 43.47 837.6 39.893" stroke="none" fill="#47A35A" fill-rule="evenodd" /><path id="122" transform="matrix(1 0 0 -1 0 540)" d="M638.7 62.74C 638.7 62.74 641.81 93.72 621.73 93.72C 601.66 93.72 615.76 67.506 628.19 58.212C 619.58 51.539 601.9 78.945 588.27 72.034C 586.12 70.842 584.21 69.174 583.49 67.029C 583.97 67.983 584.69 69.174 585.64 69.889C 584.69 69.174 583.97 67.983 583.49 67.029C 582.77 64.885 583.25 62.263 585.64 58.927C 589.23 56.067 595.68 59.403 598.07 55.352C 602.37 48.203 608.35 45.581 615.76 42.483C 617.43 41.768 619.1 41.768 620.78 40.815C 621.49 40.577 622.21 39.862 621.97 39.147C 621.02 38.67 620.06 38.67 619.1 39.147C 618.15 39.385 617.19 40.1 616.47 40.339C 614.8 41.054 613.13 41.292 611.46 41.768C 607.63 42.245 604.05 42.722 600.22 43.437C 598.31 43.913 596.4 44.152 594.49 44.628C 593.05 45.105 590.9 46.296 589.23 46.296C 583.73 46.296 579.43 45.581 576.08 44.628C 575.37 44.152 574.65 43.675 574.17 43.198C 574.65 43.675 575.37 44.152 576.08 44.628C 569.87 42.483 567 39.147 567 37.241C 567.24 26.04 612.17 27.708 653.76 27.47L653.76 27.47L638.7 62.74z" stroke="none" fill="#47A35A" fill-rule="evenodd" /><path id="123" transform="matrix(1 0 0 -1 0 540)" d="M858.24 27.48C 635.32 27.48 635.32 27.48 635.32 27.48C 627.2 27.48 620.52 34.148 620.52 42.007C 620.52 59.154 620.52 59.154 620.52 59.154C 620.52 67.252 627.2 73.92 635.32 73.92C 858.24 73.92 858.24 73.92 858.24 73.92L858.24 73.92L858.24 27.48z" stroke="none" fill="#DD364A" fill-rule="evenodd" /><path id="124" transform="matrix(1 0 0 -1 0 540)" d="M858.24 27.48C 719.08 27.48 719.08 27.48 719.08 27.48C 710.72 27.48 703.8 34.386 703.8 42.96C 703.8 58.44 703.8 58.44 703.8 58.44C 703.8 67.014 710.72 73.92 719.08 73.92C 858.24 73.92 858.24 73.92 858.24 73.92L858.24 73.92L858.24 27.48z" stroke="none" fill="#C62A44" fill-rule="evenodd" /><path id="125" transform="matrix(1 0 0 -1 0 540)" d="M858.24 68.28C 729.76 68.28 729.76 68.28 729.76 68.28C 720.68 68.28 713.28 61.129 713.28 52.07C 713.28 49.448 713.28 49.448 713.28 49.448C 713.28 40.39 720.68 33 729.76 33C 858.24 33 858.24 33 858.24 33L858.24 33L858.24 68.28z" stroke="none" fill="#FFFFFF" fill-rule="evenodd" /><path id="126" transform="matrix(1 0 0 -1 0 540)" d="M858.24 50.64C 858.24 50.64 770.12 50.64 713.28 50.64C 713.28 40.867 721.16 33 730.95 33C 858.24 33 858.24 33 858.24 33L858.24 33L858.24 50.64z" stroke="none" fill="#F1F2F2" fill-rule="evenodd" /><path id="127" transform="matrix(1 0 0 -1 0 540)" d="M860.77 73.92C 838.31 73.92 838.31 73.92 838.31 73.92C 836.87 73.92 835.68 72.745 835.68 71.335C 835.68 70.865 835.68 70.865 835.68 70.865C 835.68 69.455 836.87 68.28 838.31 68.28C 860.77 68.28 860.77 68.28 860.77 68.28C 862.21 68.28 863.4 69.455 863.4 70.865C 863.4 71.335 863.4 71.335 863.4 71.335C 863.4 72.745 862.21 73.92 860.77 73.92z" stroke="none" fill="#C62A44" fill-rule="evenodd" /><path id="128" transform="matrix(1 0 0 -1 0 540)" d="M860.77 33C 838.31 33 838.31 33 838.31 33C 836.87 33 835.68 31.8 835.68 30.6C 835.68 30.12 835.68 30.12 835.68 30.12C 835.68 28.68 836.87 27.48 838.31 27.48C 860.77 27.48 860.77 27.48 860.77 27.48C 862.21 27.48 863.4 28.68 863.4 30.12C 863.4 30.6 863.4 30.6 863.4 30.6C 863.4 31.8 862.21 33 860.77 33z" stroke="none" fill="#C62A44" fill-rule="evenodd" /><path id="129" transform="matrix(1 0 0 -1 0 540)" d="M751.44 20.76L743.28 26.432L743.28 26.432L735.12 20.76L735.12 20.76L735.12 50.64L735.12 50.64L751.44 50.64L751.44 50.64L751.44 20.76z" stroke="none" fill="#26C698" fill-rule="evenodd" /><path id="130" transform="matrix(1 0 0 -1 0 540)" d="M821 221.4C 723.16 221.4 723.16 221.4 723.16 221.4C 716.72 214.25 711.47 201.38 709.08 176.82C 709.08 168.48 709.08 168.48 709.08 168.48C 835.08 168.48 835.08 168.48 835.08 168.48C 835.08 176.82 835.08 176.82 835.08 176.82C 833.89 200.66 826.25 216.16 821 221.4" stroke="none" fill="#354D6F" fill-rule="evenodd" /><path id="131" transform="matrix(1 0 0 -1 0 540)" d="M821 221.4C 723.12 221.4 723.12 221.4 723.12 221.4C 723.12 221.4 723.12 221.4 723.12 221.4C 723.12 221.4 723.12 221.4 723.12 221.4C 821 221.4 821 221.4 821 221.4C 826.25 216.16 833.89 200.67 835.08 176.85C 835.08 173.04 835.08 173.04 835.08 173.04C 835.08 173.04 835.08 173.04 835.08 173.04C 835.08 176.85 835.08 176.85 835.08 176.85C 833.89 200.67 826.25 216.16 821 221.4" stroke="none" fill="#A09FA1" fill-rule="evenodd" /><path id="132" transform="matrix(1 0 0 -1 0 540)" d="M820.99 221.4C 723.11 221.4 723.11 221.4 723.11 221.4C 723.11 221.4 723.11 221.4 723.11 221.4C 722.64 220.92 722.4 220.69 722.16 220.21C 727.17 220.69 732.19 220.92 736.96 220.92C 775.87 220.92 813.36 204.96 835.08 173.04C 835.08 176.85 835.08 176.85 835.08 176.85C 833.89 200.67 826.25 216.16 820.99 221.4" stroke="none" fill="#213046" fill-rule="evenodd" /><path id="133" transform="matrix(1 0 0 -1 0 540)" d="M862.61 235.92C 681.67 235.92 681.67 235.92 681.67 235.92C 677.14 235.92 673.32 232.37 673.32 227.63C 673.32 226.45 673.32 226.45 673.32 226.45C 673.32 221.95 677.14 218.16 681.67 218.16C 862.61 218.16 862.61 218.16 862.61 218.16C 867.14 218.16 870.96 221.95 870.96 226.45C 870.96 227.63 870.96 227.63 870.96 227.63C 870.96 232.37 867.14 235.92 862.61 235.92z" stroke="none" fill="#30587C" fill-rule="evenodd" /><path id="134" transform="matrix(1 0 0 -1 0 540)" d="M861.65 190.68C 861.43 190.68 861.43 190.68 861.43 190.68C 861.21 190.68 860.76 190.92 860.76 191.39C 860.76 222.37 860.76 222.37 860.76 222.37C 860.76 222.84 861.21 223.08 861.43 223.08C 861.65 223.08 861.65 223.08 861.65 223.08C 861.87 223.08 862.32 222.84 862.32 222.37C 862.32 191.39 862.32 191.39 862.32 191.39C 862.32 190.92 861.87 190.68 861.65 190.68z" stroke="none" fill="#FEA200" fill-rule="evenodd" /><path id="135" transform="matrix(1 0 0 -1 0 540)" d="M865.68 145.2C 857.28 145.2 857.28 145.2 857.28 145.2C 857.28 189.75 857.28 189.75 857.28 189.75C 857.28 191.89 858.96 193.56 861.12 193.56C 861.84 193.56 861.84 193.56 861.84 193.56C 864 193.56 865.68 191.89 865.68 189.75L865.68 189.75L865.68 145.2z" stroke="none" fill="#FFB602" fill-rule="evenodd" /><path id="136" transform="matrix(1 0 0 -1 0 540)" d="M858.48 145.2L859.44 145.2L859.44 145.2L859.44 183.48L859.44 183.48L858.48 183.48z" stroke="none" fill="#FEA200" fill-rule="evenodd" /><path id="137" transform="matrix(1 0 0 -1 0 540)" d="M860.88 145.2L862.08 145.2L862.08 145.2L862.08 183.48L862.08 183.48L860.88 183.48z" stroke="none" fill="#FEA200" fill-rule="evenodd" /><path id="138" transform="matrix(1 0 0 -1 0 540)" d="M863.52 145.2L864.48 145.2L864.48 145.2L864.48 183.48L864.48 183.48L863.52 183.48z" stroke="none" fill="#FEA200" fill-rule="evenodd" /><path id="139" transform="matrix(1 0 0 -1 0 540)" d="M895.08 71.88C 672.05 71.88 672.05 71.88 672.05 71.88C 663.93 71.88 657.48 78.548 657.48 86.407C 657.48 103.55 657.48 103.55 657.48 103.55C 657.48 111.65 663.93 118.32 672.05 118.32C 895.08 118.32 895.08 118.32 895.08 118.32C 895.08 71.88 895.08 71.88 895.08 71.88" stroke="none" fill="#FFB602" fill-rule="evenodd" /><path id="140" transform="matrix(1 0 0 -1 0 540)" d="M895.08 71.88C 756.16 71.88 756.16 71.88 756.16 71.88C 747.56 71.88 740.64 78.787 740.64 87.36C 740.64 102.84 740.64 102.84 740.64 102.84C 740.64 111.41 747.56 118.32 756.16 118.32C 895.08 118.32 895.08 118.32 895.08 118.32C 895.08 71.88 895.08 71.88 895.08 71.88" stroke="none" fill="#FEA200" fill-rule="evenodd" /><path id="141" transform="matrix(1 0 0 -1 0 540)" d="M895.08 112.8C 766.6 112.8 766.6 112.8 766.6 112.8C 757.52 112.8 750.12 105.38 750.12 96.296C 750.12 93.664 750.12 93.664 750.12 93.664C 750.12 84.575 757.52 77.16 766.6 77.16C 895.08 77.16 895.08 77.16 895.08 77.16L895.08 77.16L895.08 112.8z" stroke="none" fill="#FFFFFF" fill-rule="evenodd" /><path id="142" transform="matrix(1 0 0 -1 0 540)" d="M895.08 94.8C 895.08 94.8 807.2 94.8 750.12 94.8C 750.12 85.265 758.24 77.16 768.03 77.16C 895.08 77.16 895.08 77.16 895.08 77.16L895.08 77.16L895.08 94.8z" stroke="none" fill="#F1F2F2" fill-rule="evenodd" /><path id="143" transform="matrix(1 0 0 -1 0 540)" d="M897.61 118.32C 875.15 118.32 875.15 118.32 875.15 118.32C 873.71 118.32 872.52 117.12 872.52 115.68C 872.52 115.2 872.52 115.2 872.52 115.2C 872.52 113.76 873.71 112.8 875.15 112.8C 897.61 112.8 897.61 112.8 897.61 112.8C 899.04 112.8 900 113.76 900 115.2C 900 115.68 900 115.68 900 115.68C 900 117.12 899.04 118.32 897.61 118.32z" stroke="none" fill="#FEA200" fill-rule="evenodd" /><path id="144" transform="matrix(1 0 0 -1 0 540)" d="M897.61 77.16C 875.15 77.16 875.15 77.16 875.15 77.16C 873.71 77.16 872.52 76.242 872.52 74.864C 872.52 74.405 872.52 74.405 872.52 74.405C 872.52 73.028 873.71 71.88 875.15 71.88C 897.61 71.88 897.61 71.88 897.61 71.88C 899.04 71.88 900 73.028 900 74.405C 900 74.864 900 74.864 900 74.864C 900 76.242 899.04 77.16 897.61 77.16z" stroke="none" fill="#FEA200" fill-rule="evenodd" /><path id="145" transform="matrix(1 0 0 -1 0 540)" d="M788.28 65.04L780.18 70.827L780.18 70.827L772.08 65.04L772.08 65.04L772.08 94.8L772.08 94.8L788.28 94.8L788.28 94.8L788.28 65.04z" stroke="none" fill="#FB7536" fill-rule="evenodd" /><path id="146" transform="matrix(1 0 0 -1 0 540)" d="M596.16 117.96C 839.95 117.96 839.95 117.96 839.95 117.96C 848.07 117.96 854.52 124.41 854.52 132.53C 854.52 153.79 854.52 153.79 854.52 153.79C 854.52 161.91 848.07 168.36 839.95 168.36C 596.16 168.36 596.16 168.36 596.16 168.36C 596.16 117.96 596.16 117.96 596.16 117.96" stroke="none" fill="#26C698" fill-rule="evenodd" /><path id="147" transform="matrix(1 0 0 -1 0 540)" d="M596.16 123.96C 596.16 123.96 596.16 123.96 596.16 123.96C 596.16 117.96 596.16 117.96 596.16 117.96C 669.48 117.96 669.48 117.96 669.48 117.96C 669.48 117.96 669.48 117.96 669.48 117.96C 596.16 117.96 596.16 117.96 596.16 117.96C 596.16 123.96 596.16 123.96 596.16 123.96" stroke="none" fill="#C3EFE2" fill-rule="evenodd" /><path id="148" transform="matrix(1 0 0 -1 0 540)" d="M848.04 120.36C 846.36 119.23 844.68 118.55 842.76 118.32C 842.76 118.32 842.76 118.32 842.76 118.32C 844.68 118.55 846.36 119.23 848.04 120.36" stroke="none" fill="#1B4630" fill-rule="evenodd" /><path id="149" transform="matrix(1 0 0 -1 0 540)" d="M842.76 118.32C 842.76 118.32 842.76 118.32 842.76 118.32C 841.81 117.96 840.85 117.96 839.9 117.96C 753.36 117.96 753.36 117.96 753.36 117.96C 753.36 117.96 753.36 117.96 753.36 117.96C 839.9 117.96 839.9 117.96 839.9 117.96C 840.85 117.96 841.81 117.96 842.76 118.32" stroke="none" fill="#C29800" fill-rule="evenodd" /><path id="150" transform="matrix(1 0 0 -1 0 540)" d="M854.52 138.48C 854.52 130.37 848.07 123.93 839.95 123.93C 596.16 123.93 596.16 123.93 596.16 123.93C 596.16 117.96 596.16 117.96 596.16 117.96C 669.47 117.96 669.47 117.96 669.47 117.96C 753.28 117.96 753.28 117.96 753.28 117.96C 839.95 117.96 839.95 117.96 839.95 117.96C 840.91 117.96 841.86 117.96 842.82 118.2C 844.73 118.44 846.4 119.15 848.07 120.35C 851.89 122.97 854.52 127.5 854.52 132.51C 854.52 138.48 854.52 138.48 854.52 138.48" stroke="none" fill="#1DBA87" fill-rule="evenodd" /><path id="151" transform="matrix(1 0 0 -1 0 540)" d="M596.16 117.96C 748.41 117.96 748.41 117.96 748.41 117.96C 757 117.96 763.92 124.89 763.92 133.25C 763.92 152.83 763.92 152.83 763.92 152.83C 763.92 161.43 757 168.36 748.41 168.36C 596.16 168.36 596.16 168.36 596.16 168.36L596.16 168.36L596.16 117.96z" stroke="none" fill="#3ED9B1" fill-rule="evenodd" /><path id="152" transform="matrix(1 0 0 -1 0 540)" d="M596.16 162.24C 738.92 162.24 738.92 162.24 738.92 162.24C 747.04 162.24 753.72 155.58 753.72 147.5C 753.72 138.46 753.72 138.46 753.72 138.46C 753.72 130.38 747.04 123.96 738.92 123.96C 596.16 123.96 596.16 123.96 596.16 123.96L596.16 123.96L596.16 162.24z" stroke="none" fill="#FFFFFF" fill-rule="evenodd" /><path id="153" transform="matrix(1 0 0 -1 0 540)" d="M596.16 142.92C 596.16 142.92 691.65 142.92 753.72 142.92C 753.72 132.49 745.13 123.96 734.38 123.96C 596.16 123.96 596.16 123.96 596.16 123.96L596.16 123.96L596.16 142.92z" stroke="none" fill="#F1F2F2" fill-rule="evenodd" /><path id="154" transform="matrix(1 0 0 -1 0 540)" d="M592.79 168.36C 618.37 168.36 618.37 168.36 618.37 168.36C 619.56 168.36 620.52 167.38 620.52 165.91C 620.52 164.69 620.52 164.69 620.52 164.69C 620.52 163.22 619.56 162.24 618.37 162.24C 592.79 162.24 592.79 162.24 592.79 162.24C 591.6 162.24 590.64 163.22 590.64 164.69C 590.64 165.91 590.64 165.91 590.64 165.91C 590.64 167.38 591.6 168.36 592.79 168.36z" stroke="none" fill="#3ED9B1" fill-rule="evenodd" /><path id="155" transform="matrix(1 0 0 -1 0 540)" d="M592.79 123.96C 618.37 123.96 618.37 123.96 618.37 123.96C 619.56 123.96 620.52 122.76 620.52 121.56C 620.52 120.12 620.52 120.12 620.52 120.12C 620.52 118.92 619.56 117.96 618.37 117.96C 592.79 117.96 592.79 117.96 592.79 117.96C 591.6 117.96 590.64 118.92 590.64 120.12C 590.64 121.56 590.64 121.56 590.64 121.56C 590.64 122.76 591.6 123.96 592.79 123.96z" stroke="none" fill="#3ED9B1" fill-rule="evenodd" /><path id="156" transform="matrix(1 0 0 -1 0 540)" d="M712.2 110.52L721.02 116.72L721.02 116.72L729.84 110.52L729.84 110.52L729.84 142.92L729.84 142.92L712.2 142.92L712.2 142.92L712.2 110.52z" stroke="none" fill="#DD364A" fill-rule="evenodd" /><path id="157" transform="matrix(1 0 0 -1 0 540)" d="M779.76 17.4C 779.76 19.653 809.36 21.48 845.88 21.48C 882.4 21.48 912 19.653 912 17.4C 912 15.147 882.4 13.32 845.88 13.32C 809.36 13.32 779.76 15.147 779.76 17.4z" stroke="none" fill="#E4E5E6" fill-rule="evenodd" /><path id="158" transform="matrix(1 0 0 -1 0 540)" d="M890.09 34.2L914.16 25.791L914.16 25.791L890.09 17.52L890.09 17.52L879.36 20.277L879.36 20.277L882.25 31.029L882.25 31.029L890.09 34.2z" stroke="none" fill="#414042" fill-rule="evenodd" /><path id="159" transform="matrix(1 0 0 -1 0 540)" d="M906.72 28.243C 890.07 34.2 890.07 34.2 890.07 34.2C 882.21 31.102 882.21 31.102 882.21 31.102C 879.36 20.379 879.36 20.379 879.36 20.379C 890.07 17.52 890.07 17.52 890.07 17.52C 905.77 23.001 905.77 23.001 905.77 23.001C 905.29 24.907 905.53 26.813 906.72 28.243z" stroke="none" fill="#FFCEA1" fill-rule="evenodd" /><path id="160" transform="matrix(1 0 0 -1 0 540)" d="M886.59 29.4L786.96 29.4L786.96 29.4L786.96 34.2L786.96 34.2L890.04 34.2L890.04 34.2L886.59 29.4z" stroke="none" fill="#FEA200" fill-rule="evenodd" /><path id="161" transform="matrix(1 0 0 -1 0 540)" d="M890.04 17.52L786.96 17.52L786.96 17.52L786.96 22.2L786.96 22.2L886.59 22.2L886.59 22.2L890.04 17.52z" stroke="none" fill="#FEA200" fill-rule="evenodd" /><path id="162" transform="matrix(1 0 0 -1 0 540)" d="M786.96 22.2L886.6801 22.2L886.6801 22.2L886.6801 29.4L886.6801 29.4L786.96 29.4z" stroke="none" fill="#FFB602" fill-rule="evenodd" /><path id="163" transform="matrix(1 0 0 -1 0 540)" d="M786.96 17.52C 784.8 17.52 784.8 17.52 784.8 17.52C 780 17.52 776.4 21.094 776.4 25.86C 776.4 30.387 780 34.2 784.8 34.2C 786.96 34.2 786.96 34.2 786.96 34.2L786.96 34.2L786.96 17.52z" stroke="none" fill="#FFCEA1" fill-rule="evenodd" /><path id="164" transform="matrix(1 0 0 -1 0 540)" d="M785.28 17.52L793.2 17.52L793.2 17.52L793.2 34.2L793.2 34.2L785.28 34.2z" stroke="none" fill="#354D6F" fill-rule="evenodd" /><path id="165" transform="matrix(1 0 0 -1 0 540)" d="M702.21 49.337C 687.42 35.28 664.03 35.757 649.96 50.528C 635.88 65.299 636.36 88.647 651.15 102.7C 665.94 116.76 689.33 116.05 703.4 101.51C 717.48 86.741 716.76 63.393 702.21 49.337z" stroke="none" fill="#025F99" fill-rule="evenodd" /><path id="166" transform="matrix(1 0 0 -1 0 540)" d="M698.83 52.597C 685.93 40.2 665.4 40.677 653.22 53.789C 640.8 66.662 641.28 86.925 654.41 99.322C 667.31 111.48 687.6 111 700.02 98.13C 712.2 85.257 711.72 64.755 698.83 52.597z" stroke="none" fill="#7ED8FD" fill-rule="evenodd" /><path id="167" transform="matrix(1 0 0 -1 0 540)" d="M674.04 60.103C 691.26 63.195 701.3 73.185 707.04 86.743C 705.61 91.024 703.21 94.83 700.11 98.16C 687.67 111 667.35 111.48 654.43 99.349C 645.11 90.786 642.24 77.942 645.59 66.763C 653.96 61.768 663.28 58.2 674.04 60.103z" stroke="none" fill="#AEECFF" fill-rule="evenodd" /><path id="168" transform="matrix(1 0 0 -1 0 540)" d="M659.74 93.616C 664.51 98.221 670.48 100.4 676.68 100.4C 683.13 100.4 689.57 97.979 694.34 92.647C 695.06 91.92 696.25 91.92 696.97 92.647C 697.92 93.374 697.92 94.586 697.2 95.313C 691.48 101.37 684.08 104.28 676.68 104.28C 669.76 104.28 662.6 101.61 657.12 96.525C 656.4 95.798 656.4 94.586 657.12 93.616C 657.83 92.889 659.02 92.889 659.74 93.616z" stroke="none" fill="#FFFFFF" fill-rule="evenodd" /><path id="169" transform="matrix(1 0 0 -1 0 540)" d="M644.84 36.48L635.88 45.734L635.88 45.734L648.98 58.44L648.98 58.44L658.08 48.91L658.08 48.91L644.84 36.48z" stroke="none" fill="#025F99" fill-rule="evenodd" /><path id="170" transform="matrix(1 0 0 -1 0 540)" d="M612.43 7.5442C 605.03 15.14 605.03 15.14 605.03 15.14C 603.84 16.327 603.84 18.463 605.27 19.65C 635.35 48.133 635.35 48.133 635.35 48.133C 636.54 49.32 638.45 49.32 639.65 47.896C 647.05 40.3 647.05 40.3 647.05 40.3C 648.24 39.113 648.24 36.977 647.05 35.79C 616.97 7.3068 616.97 7.3068 616.97 7.3068C 615.78 6.1201 613.63 6.1201 612.43 7.5442" stroke="none" fill="#424043" fill-rule="evenodd" /><path id="171" transform="matrix(1 0 0 -1 0 540)" d="M613.2 20.873C 613.2 20.873 613.2 20.873 613.2 20.873C 612.72 21.587 612.72 22.775 613.43 23.251C 636.03 45.125 636.03 45.125 636.03 45.125C 636.74 45.6 637.93 45.6 638.64 45.125C 639.12 44.411 639.12 43.222 638.41 42.509C 615.57 20.873 615.57 20.873 615.57 20.873C 615.1 20.16 613.91 20.16 613.2 20.873z" stroke="none" fill="#6D6E71" fill-rule="evenodd" /><path id="172" transform="matrix(1 0 0 -1 0 540)" d="M640.62 12.24C 633.69 12.24 627.24 12 621.74 11.76C 616.96 7.2001 616.96 7.2001 616.96 7.2001C 616.25 6.72 615.53 6.2401 614.81 6.2401C 613.86 6.2401 613.14 6.72 612.42 7.4401C 609.32 10.8 609.32 10.8 609.32 10.8C 602.86 10.08 599.04 9.1201 599.04 8.16C 599.04 5.7601 617.68 4.0801 640.62 4.0801C 663.56 4.0801 682.2 5.7601 682.2 8.16C 682.2 10.32 663.56 12.24 640.62 12.24" stroke="none" fill="#E4E5E6" fill-rule="evenodd" /><path id="173" transform="matrix(1 0 0 -1 0 540)" d="M621.84 11.76C 616.99 11.52 612.63 11.28 609.24 10.8C 612.39 7.4401 612.39 7.4401 612.39 7.4401C 613.12 6.7201 613.84 6.2401 614.81 6.2401C 615.54 6.2401 616.27 6.7201 616.99 7.2001C 621.84 11.76 621.84 11.76 621.84 11.76" stroke="none" fill="#3B3A3C" fill-rule="evenodd" /><path id="174" transform="matrix(1 0 0 -1 0 540)" d="M590.65 100.67C 591.37 101.38 591.6 101.86 591.84 102.57C 591.84 103.28 591.6 103.76 591.37 104.47C 590.89 108.51 586.86 121.1 586.86 121.1C 586.86 121.1 584.01 122.52 581.4 119.43C 583.77 108.98 585.43 105.9 587.09 102.57C 587.81 101.15 589.23 99.96 590.65 100.67z" stroke="none" fill="#E8BAA0" fill-rule="evenodd" /><path id="175" transform="matrix(1 0 0 -1 0 540)" d="M599.92 126.04C 599.92 126.04 599.92 126.04 599.92 126.04C 599.68 126.27 599.44 126.98 599.2 126.98C 598.96 126.75 598.73 125.8 598.49 125.56C 598.25 124.85 598.01 124.14 597.77 123.43C 597.53 122.72 597.53 121.77 597.29 121.29C 597.29 121.29 597.06 119.87 592.53 113.71C 588.95 108.97 587.99 106.6 587.28 104.7C 587.04 102.33 587.99 99.96 590.62 100.67C 590.86 100.91 591.57 101.38 591.81 101.38C 594.67 104.23 598.49 116.32 599.68 119.16C 600.39 120.35 601.11 121.53 601.83 122.95C 602.06 123.66 602.54 124.38 603.02 125.32C 603.26 126.04 603.73 126.51 604.21 127.22C 604.45 127.22 604.45 127.46 604.69 127.69C 605.16 128.17 605.64 128.41 605.88 128.88C 604.93 128.64 603.97 128.64 603.26 128.17C 603.02 127.93 602.54 127.69 602.3 127.22C 601.83 126.98 601.59 126.75 601.11 126.51C 600.87 126.27 600.39 125.8 599.92 126.04z" stroke="none" fill="#E8BAA0" fill-rule="evenodd" /><path id="176" transform="matrix(1 0 0 -1 0 540)" d="M551.04 14.34C 551.04 16.56 562.21 18.36 576 18.36C 589.78 18.36 600.96 16.56 600.96 14.34C 600.96 12.12 589.78 10.32 576 10.32C 562.21 10.32 551.04 12.12 551.04 14.34z" stroke="none" fill="#E4E5E6" fill-rule="evenodd" /><path id="177" transform="matrix(1 0 0 -1 0 540)" d="M586.33 73.686C 587.28 54.373 586.81 67.249 586.81 53.181C 586.33 45.551 584.2 21.708 584.2 21.708C 584.2 21.708 581.59 19.8 580.4 21.231C 578.98 39.352 576.84 47.935 578.03 56.281C 577.55 65.341 576.84 74.64 576.84 74.64C 586.33 73.686 586.33 73.686 586.33 73.686" stroke="none" fill="#E8BAA0" fill-rule="evenodd" /><path id="178" transform="matrix(1 0 0 -1 0 540)" d="M576.84 84.36C 576.84 84.36 577.08 79.605 577.32 74.613C 579.72 74.375 579.72 74.375 579.72 74.375C 579.48 77.466 579 80.556 579.24 84.122C 576.84 84.36 576.84 84.36 576.84 84.36M577.8 62.013C 577.56 61.062 577.8 60.111 577.8 59.16C 577.8 59.16 577.8 59.16 577.8 59.16C 577.8 60.111 577.8 61.062 577.8 62.013" stroke="none" fill="#FCEBE4" fill-rule="evenodd" /><path id="179" transform="matrix(1 0 0 -1 0 540)" d="M577.2 74.64C 577.45 71.068 577.7 67.495 577.95 65.114C 577.7 64.161 577.7 62.97 577.7 62.018C 577.7 61.065 577.7 60.113 577.7 59.16C 579.96 65.59 579.96 70.115 579.71 74.402C 577.2 74.64 577.2 74.64 577.2 74.64" stroke="none" fill="#E5AC8F" fill-rule="evenodd" /><path id="180" transform="matrix(1 0 0 -1 0 540)" d="M565.17 77.52C 565.17 77.52 563.5 71.32 569.23 55.342C 564.46 51.05 561.12 23.626 561.12 23.626C 563.27 21.48 563.27 21.48 563.27 21.48C 563.27 21.48 575.66 45.327 578.29 55.819C 579.48 67.027 578.76 72.989 578.76 72.989L578.76 72.989L565.17 77.52z" stroke="none" fill="#E8BAA0" fill-rule="evenodd" /><path id="181" transform="matrix(1 0 0 -1 0 540)" d="M560.88 25.56C 560.88 25.322 564.48 24.133 564.72 23.896C 565.2 23.658 565.2 22.707 565.2 22.231C 565.44 21.28 565.44 20.567 565.68 19.853C 566.4 17.951 567.84 16.287 569.04 14.622C 569.04 14.385 569.28 14.147 569.28 13.909C 569.04 12.72 567.12 14.147 566.88 14.385C 566.16 14.622 565.44 15.098 564.72 15.573C 564.24 16.049 563.52 16.287 563.04 16.762C 562.56 17.238 562.08 17.713 561.6 18.189C 561.36 18.427 561.12 18.427 560.88 18.189C 560.64 17.951 560.4 17.951 560.4 17.476C 560.16 17.476 560.16 17.476 560.16 17.476C 560.16 17.476 560.16 17.476 560.16 17.476C 559.68 17.713 559.44 17.951 558.96 18.189C 558.72 18.427 558.72 18.427 558.48 18.664C 558.24 18.664 558.24 18.664 558 18.902C 558 19.14 558.24 19.378 558.24 19.616C 558.48 19.616 558.48 19.853 558.48 20.091C 558.72 20.567 558.72 21.042 558.96 21.518C 558.96 21.993 559.2 22.469 559.2 22.707C 559.44 23.182 559.68 23.42 560.16 23.658C 560.4 24.371 560.64 24.847 560.88 25.56z" stroke="none" fill="#74352C" fill-rule="evenodd" /><path id="182" transform="matrix(1 0 0 -1 0 540)" d="M580.2 23.16C 580.2 22.923 584.04 22.923 584.28 22.923C 585 22.686 585.24 21.739 585.48 21.265C 585.72 20.554 586.2 20.08 586.68 19.369C 587.88 17.711 589.8 16.763 591.24 15.342C 591.48 15.342 591.72 15.105 591.72 14.868C 592.2 13.92 589.8 14.394 589.32 14.394C 588.6 14.631 587.88 14.631 587.16 14.868C 586.44 15.342 585.72 15.342 585.24 15.578C 584.52 15.815 583.8 16.052 583.32 16.526C 582.84 16.526 582.84 16.526 582.6 16.289C 582.36 16.052 582.36 15.815 582.36 15.578C 582.36 15.342 582.36 15.342 582.36 15.342C 582.12 15.342 582.12 15.342 582.12 15.342C 581.64 15.578 581.16 15.578 580.92 15.815C 580.68 15.815 580.44 15.815 580.2 15.815C 580.2 16.052 579.96 15.815 579.72 16.052C 579.72 16.289 579.72 16.526 579.72 16.763C 579.96 17 579.96 17.237 579.72 17.474C 579.72 17.948 579.72 18.422 579.72 18.895C 579.72 19.132 579.72 19.606 579.72 20.08C 579.72 20.317 579.96 20.791 579.96 21.265C 580.2 21.739 580.2 22.449 580.2 23.16z" stroke="none" fill="#74352C" fill-rule="evenodd" /><path id="183" transform="matrix(1 0 0 -1 0 540)" d="M583.94 134.14C 583.7 134.38 583.46 134.62 583.22 134.86C 580.12 138.92 583.94 144.89 580.83 149.19C 578.68 152.05 574.85 153.96 571.74 151.81C 571.74 151.57 571.27 151.81 570.79 151.81C 570.55 151.81 570.31 151.81 570.07 151.81C 568.87 151.57 567.68 151.1 566.48 150.38C 564.09 148.71 563.13 145.84 562.66 142.98C 562.18 139.4 561.7 136.53 559.55 133.67C 558.83 132.95 558.11 132.23 557.63 131.52C 557.16 130.8 556.68 129.61 556.92 128.65C 557.16 127.7 557.87 126.74 558.11 125.55C 558.35 123.88 556.92 122.69 556.44 121.25C 555.96 119.58 555.96 117.67 556.68 116.24C 557.16 114.57 558.35 113.37 559.55 112.18C 560.5 111.23 561.7 110.27 563.13 109.55C 564.57 108.84 566.24 108.6 567.68 108.84C 568.87 109.08 569.83 109.55 570.79 110.27C 571.03 110.51 571.51 110.75 571.27 111.23C 572.46 110.99 573.66 110.27 574.85 109.79C 576.05 109.32 577.48 109.08 578.68 109.55C 580.35 109.79 581.55 111.23 582.51 112.66C 583.46 114.09 584.18 115.76 585.38 116.96C 586.33 118.39 587.53 119.34 588.49 120.78C 589.44 121.97 589.92 123.88 589.92 125.55C 590.16 127.46 589.44 129.37 588.25 130.8C 587.05 132.23 585.14 132.95 583.94 134.14" stroke="none" fill="#9E3515" fill-rule="evenodd" /><path id="184" transform="matrix(1 0 0 -1 0 540)" d="M586.56 131.58C 588.96 130.63 589.68 127.77 589.92 124.68C 589.92 124.92 589.92 125.16 589.92 125.63C 590.16 127.53 589.44 129.44 588.24 130.86C 587.04 132.29 585.12 133 583.92 134.19C 583.68 134.43 583.44 134.67 583.2 134.91C 580.08 138.95 583.92 144.9 580.8 149.18C 580.32 149.89 579.6 150.37 578.88 151.08C 580.8 144.18 578.16 134.91 586.56 131.58" stroke="none" fill="#A8421A" fill-rule="evenodd" /><path id="185" transform="matrix(1 0 0 -1 0 540)" d="M582.24 127.8C 582.24 127.8 580.08 128.52 579.12 125.4C 578.16 122.04 583.68 111.48 583.68 111.48C 583.68 111.48 588.96 112.44 590.88 114.36C 588.48 119.4 587.28 125.64 582.24 127.8z" stroke="none" fill="#E6E7E8" fill-rule="evenodd" /><path id="186" transform="matrix(1 0 0 -1 0 540)" d="M571.79 133.44C 571.79 133.44 571.79 129.41 571.32 127.76C 571.32 127.76 572.5 124.2 575.57 124.67C 577.22 125.15 578.16 127.52 578.16 127.52C 578.16 127.52 577.22 130.84 577.45 133.68C 576.98 133.21 573.91 131.78 571.79 133.44" stroke="none" fill="#E8BAA0" fill-rule="evenodd" /><path id="187" transform="matrix(1 0 0 -1 0 540)" d="M577.2 132.12C 576.96 131.64 576.49 131.4 575.55 131.4C 575.55 131.4 575.32 131.4 575.32 131.4C 573.91 131.4 572.73 131.64 571.79 132.12C 571.56 130.68 571.56 128.76 571.32 127.8C 571.32 127.8 571.32 127.8 571.32 127.8C 571.32 127.8 571.32 127.8 571.32 127.8C 571.32 127.8 571.56 127.08 572.03 126.12C 574.14 127.08 575.79 129.24 577.2 132.12" stroke="none" fill="#E3A586" fill-rule="evenodd" /><path id="188" transform="matrix(1 0 0 -1 0 540)" d="M584.52 96.597C 584.52 96.597 584.52 96.835 584.52 96.835C 584.28 98.26 584.28 99.684 584.52 101.35C 584.52 103.96 584.76 106.57 585 108.94C 587.64 111.56 587.64 113.46 587.4 115.59C 586.44 120.58 583.8 119.87 582.6 126.75C 582.6 127.47 581.88 127.7 581.4 127.94C 578.04 129.84 580.2 127.23 575.64 126.28C 569.4 125.09 567.72 127.7 567.72 127.7C 567.72 127.7 561.48 127.94 559.8 120.34C 559.56 118.68 561 116.54 561.48 115.12C 562.92 112.27 564.84 110.13 565.56 107.05C 565.8 105.38 567.48 101.82 567.48 99.922C 567.48 98.735 567.24 97.547 567.24 96.36C 573 96.36 578.76 96.597 584.52 96.597z" stroke="none" fill="#F1F2F2" fill-rule="evenodd" /><path id="189" transform="matrix(1 0 0 -1 0 540)" d="M584.42 96.48C 578.68 96.48 572.94 96.242 567.21 96.242C 566.25 90.773 562.91 87.682 562.19 83.164C 559.56 70.324 566.97 58.436 567.45 58.673C 568.64 59.149 569.6 59.624 570.79 59.624C 571.75 59.624 572.47 59.149 573.42 58.911C 576.53 57.96 579.87 59.387 582.74 60.338C 583.7 60.576 584.65 60.813 585.37 61.051C 586.09 61.289 586.8 60.813 587.28 61.289C 587.52 61.527 588 84.353 584.89 91.011C 584.89 91.487 584.65 94.34 584.42 96.48z" stroke="none" fill="#30587C" fill-rule="evenodd" /><path id="190" transform="matrix(1 0 0 -1 0 540)" d="M575.64 126.36C 575.64 126.36 573.72 126.36 571.56 129.24C 571.08 129.72 568.92 128.52 568.92 126.36C 568.92 124.44 573 120.36 575.64 126.36z" stroke="none" fill="#FFFFFF" fill-rule="evenodd" /><path id="191" transform="matrix(1 0 0 -1 0 540)" d="M575.64 126.36C 575.64 126.36 577.32 126.12 577.8 129.96C 578.52 130.2 580.68 128.76 580.92 127.32C 581.16 125.64 579.96 121.56 575.64 126.36z" stroke="none" fill="#FFFFFF" fill-rule="evenodd" /><path id="192" transform="matrix(1 0 0 -1 0 540)" d="M579.96 141.07C 579.96 141.07 581.16 136.53 578.04 132.95C 577.32 132.23 577.32 131.52 575.64 131.28C 567.48 130.8 566.28 139.64 566.04 142.74C 566.04 145.61 580.92 155.16 579.96 141.07" stroke="none" fill="#E8BAA0" fill-rule="evenodd" /><path id="193" transform="matrix(1 0 0 -1 0 540)" d="M571.82 149.76C 569.45 149.76 567.31 148.33 566.12 147.38C 562.8 142.62 565.89 136.9 567.07 135C 567.07 135.71 567.31 136.43 567.31 137.14C 566.6 139.29 566.36 141.67 566.12 142.86C 566.12 144.28 569.69 147.38 573.25 148.33C 573.25 148.33 573.25 148.33 573.25 148.33C 573.25 148.33 573.49 148.81 573.96 149.05C 573.25 149.52 572.54 149.76 571.82 149.76" stroke="none" fill="#9B2F12" fill-rule="evenodd" /><path id="194" transform="matrix(1 0 0 -1 0 540)" d="M573.24 148.2C 569.64 147.25 566.04 144.16 566.04 142.74C 566.28 141.55 566.52 139.18 567.24 137.04C 567.96 139.18 568.68 140.6 570.6 141.08C 573.72 142.03 574.92 144.16 575.4 145.35C 575.4 145.59 575.4 145.83 575.4 145.83C 573.24 148.2 573.24 148.2 573.24 148.2" stroke="none" fill="#E3A586" fill-rule="evenodd" /><path id="195" transform="matrix(1 0 0 -1 0 540)" d="M575.16 149.4C 574.68 149.4 574.2 149.16 573.96 148.92C 574.2 148.92 574.44 148.68 574.68 148.44C 574.92 148.44 575.16 148.44 575.4 148.44C 577.56 148.44 579.48 147.24 579.96 143.88C 579.96 144.84 579.72 145.8 579.72 146.76C 579.24 147.72 578.52 148.44 577.32 148.92C 576.6 149.16 575.88 149.4 575.16 149.4" stroke="none" fill="#9B2F12" fill-rule="evenodd" /><path id="196" transform="matrix(1 0 0 -1 0 540)" d="M579.72 146.88C 579.72 145.9 579.94 144.91 579.94 143.93C 579.94 143.68 579.94 143.19 579.94 142.7C 580.37 142.7 580.37 142.21 580.58 141.96C 580.8 142.94 580.8 145.16 579.72 146.88" stroke="none" fill="#A53A16" fill-rule="evenodd" /><path id="197" transform="matrix(1 0 0 -1 0 540)" d="M575.4 148.44C 575.16 148.44 574.92 148.44 574.68 148.44C 575.16 147.97 575.4 147.5 575.88 146.56C 575.88 146.56 575.64 146.09 575.4 145.39C 575.64 144.92 576.12 144.45 577.56 143.98C 578.04 143.74 579.24 143.51 579.96 142.8C 579.96 143.27 579.96 143.74 579.96 143.98C 579.48 147.27 577.56 148.44 575.4 148.44" stroke="none" fill="#E3A586" fill-rule="evenodd" /><path id="198" transform="matrix(1 0 0 -1 0 540)" d="M573.96 149.04C 573.48 148.76 573.24 148.2 573.24 148.2C 573.24 148.2 573.24 148.2 573.24 148.2C 573.72 148.48 574.2 148.48 574.68 148.48C 574.44 148.76 574.2 149.04 573.96 149.04" stroke="none" fill="#982A0F" fill-rule="evenodd" /><path id="199" transform="matrix(1 0 0 -1 0 540)" d="M574.68 148.44C 574.2 148.44 573.72 148.44 573.24 148.21C 575.4 145.9 575.4 145.9 575.4 145.9C 575.4 145.9 575.4 145.67 575.4 145.44C 575.64 146.13 575.88 146.59 575.88 146.59C 575.4 147.52 575.16 147.98 574.68 148.44" stroke="none" fill="#DF9271" fill-rule="evenodd" /><path id="200" transform="matrix(1 0 0 -1 0 540)" d="M574.92 146.76C 574.92 146.76 575.4 144.84 578.04 143.88C 579 143.4 581.88 142.68 582.36 141C 583.08 142.92 582.36 149.4 577.8 151.56C 573.24 153.96 572.04 150.6 572.04 150.6L572.04 150.6L574.92 146.76z" stroke="none" fill="#A8421A" fill-rule="evenodd" /><path id="201" transform="matrix(1 0 0 -1 0 540)" d="M565.41 120.36C 565.65 118.93 565.65 118.93 565.65 118.93C 565.89 116.08 565.89 113.23 566.13 110.38C 566.13 108.96 566.37 107.29 566.37 105.87C 566.37 104.44 566.37 103.97 566.61 102.54C 570.43 102.31 573.54 101.12 576.89 102.07C 577.6 102.31 577.84 102.78 578.56 103.26C 578.8 103.49 579.04 103.73 579.28 103.73C 579.28 103.73 580.23 103.97 580.23 103.97C 579.99 103.49 580.23 103.02 580.71 102.78C 581.19 102.31 581.67 102.31 581.91 102.31C 584.06 102.31 585.97 103.49 587.88 103.49C 587.64 102.31 586.92 101.36 585.97 100.64C 585.01 100.17 583.82 99.931 582.62 99.931C 582.38 99.931 581.91 99.931 581.67 99.931C 581.19 99.931 580.47 99.693 579.99 99.456C 576.89 98.743 568.76 97.08 564.22 97.793C 563.74 98.03 563.5 97.793 563.26 98.03C 562.55 98.268 562.07 98.743 561.83 99.218C 561.35 99.931 560.4 105.16 560.16 107.77C 559.68 111.1 559.44 114.42 559.44 117.98C 562.79 120.12 565.41 120.36 565.41 120.36z" stroke="none" fill="#E8BAA0" fill-rule="evenodd" /><path id="202" transform="matrix(1 0 0 -1 0 540)" d="M563.71 123.49C 563.71 123.49 561.28 125.16 559.58 122.06C 557.64 119.2 559.58 107.52 559.58 107.52C 559.58 107.52 565.89 107.28 568.32 108.71C 567.11 114.19 568.08 120.15 563.71 123.49z" stroke="none" fill="#FFFFFF" fill-rule="evenodd" /><path id="203" transform="matrix(1 0 0 -1 0 540)" d="M575.88 147.53C 576.12 147.29 575.88 146.58 575.64 146.34C 575.4 145.62 574.93 144.91 574.45 144.19C 573.5 143.24 572.31 142.76 571.11 142.52C 569.92 141.81 568.73 140.85 568.25 139.66C 567.54 138.23 567.3 136.56 568.02 135.13C 568.73 133.46 572.31 129.41 571.35 127.27C 571.11 126.55 570.16 127.74 569.92 126.79C 569.45 125.84 568.97 125.12 568.25 124.17C 567.54 122.98 566.35 122.02 565.15 121.07C 563.01 119.88 560.63 119.4 558.48 119.64C 559.2 120.35 559.67 121.07 559.91 122.02C 560.15 123.21 559.67 124.64 559.43 125.84C 558.96 127.03 558.96 128.7 559.2 129.89C 559.43 131.56 560.63 132.75 561.58 134.18C 563.01 136.56 562.53 139.66 562.77 142.28C 562.77 144.67 563.49 147.29 565.39 149.2C 567.54 151.1 573.74 154.68 575.88 147.53z" stroke="none" fill="#A8421A" fill-rule="evenodd" /><path id="204" transform="matrix(1 0 0 -1 0 540)" d="M781.2 6.2401C 781.2 8.4934 792.43 10.32 806.28 10.32C 820.13 10.32 831.36 8.4934 831.36 6.2401C 831.36 3.9868 820.13 2.1601 806.28 2.1601C 792.43 2.1601 781.2 3.9868 781.2 6.2401z" stroke="none" fill="#E4E5E6" fill-rule="evenodd" /><path id="205" transform="matrix(1 0 0 -1 0 540)" d="M797.64 10.514C 797.64 10.514 798.6 11.455 798.12 13.103C 799.08 14.28 802.68 13.809 802.68 13.809C 802.68 13.809 803.4 9.337 803.64 8.6308C 803.64 8.6308 803.64 8.3954 803.64 8.16C 801 8.3954 798.12 8.8662 795.48 10.043C 796.68 10.279 797.64 10.514 797.64 10.514z" stroke="none" fill="#E8BAA0" fill-rule="evenodd" /><path id="206" transform="matrix(1 0 0 -1 0 540)" d="M796.85 10.8C 796.85 10.8 797.57 11.04 797.81 11.76C 799.47 11.04 801.14 10.32 803.29 10.32C 803.52 9.6001 803.76 8.8801 803.76 8.6401C 804 7.92 803.76 6.0001 803.76 6.0001C 798.76 6.0001 798.76 6.0001 798.76 6.0001C 798.76 6.9601 798.76 6.9601 798.76 6.9601C 798.76 6.9601 794.95 6.0001 794.23 6.0001C 793.76 6.0001 789.71 5.5201 788.04 6.0001C 788.75 8.4001 796.85 10.8 796.85 10.8z" stroke="none" fill="#424043" fill-rule="evenodd" /><path id="207" transform="matrix(1 0 0 -1 0 540)" d="M819.84 12.624C 819.84 12.624 820.32 13.848 819.36 15.072C 819.84 16.296 822.72 17.52 822.72 17.52C 822.72 17.52 825.12 14.093 825.6 13.603C 825.6 13.358 825.6 13.358 825.84 13.114C 823.44 12.134 821.04 11.645 818.4 11.4C 819.36 12.134 819.84 12.624 819.84 12.624z" stroke="none" fill="#E8BAA0" fill-rule="evenodd" /><path id="208" transform="matrix(1 0 0 -1 0 540)" d="M819.43 12.72C 819.43 12.72 819.67 13.2 819.9 13.92C 821.33 13.92 822.99 13.92 824.9 14.88C 825.37 14.16 825.61 13.68 825.85 13.68C 826.32 13.2 826.8 11.52 826.8 11.52C 822.76 9.36 822.76 9.36 822.76 9.36C 822.52 10.08 822.52 10.08 822.52 10.08C 822.52 10.08 819.67 7.92 819.19 7.6801C 818.71 7.4401 815.62 5.7601 814.2 5.2801C 813.72 7.6801 819.43 12.72 819.43 12.72z" stroke="none" fill="#424043" fill-rule="evenodd" /><path id="209" transform="matrix(1 0 0 -1 0 540)" d="M797.4 136.81C 797.4 136.81 797.88 130.88 797.16 128.51C 801.48 127.56 805.56 132.06 805.56 132.06C 803.4 137.28 803.4 137.28 803.4 137.28L803.4 137.28L797.4 136.81z" stroke="none" fill="#E8BAA0" fill-rule="evenodd" /><path id="210" transform="matrix(1 0 0 -1 0 540)" d="M791.64 151.6C 791.64 151.6 790.44 148.97 789.72 142.76C 789 136.55 792.84 133.68 794.28 133.92C 795.48 134.16 802.2 136.07 804.6 140.61C 807.24 145.39 805.8 160.2 791.64 151.6z" stroke="none" fill="#E8BAA0" fill-rule="evenodd" /><path id="211" transform="matrix(1 0 0 -1 0 540)" d="M788.52 148.72C 788.28 146.1 790.68 144.67 792.84 144.67C 795.24 144.19 796.92 142.04 797.16 139.66C 797.16 140.13 797.4 140.61 797.64 140.85C 797.88 141.33 798.36 141.56 798.84 141.56C 800.04 141.33 800.28 139.89 800.04 138.94C 800.04 138.22 800.04 137.27 799.8 136.55C 799.8 136.31 799.8 136.08 800.04 135.84C 800.04 135.84 800.28 135.84 800.28 135.84C 802.44 135.36 804.6 137.27 806.28 138.22C 807.72 139.18 808.92 140.61 809.64 142.28C 810.6 143.95 810.84 145.38 810.6 147.29C 810.36 148.72 810.12 149.92 809.4 151.11C 808.68 152.3 807.72 153.5 806.76 154.21C 805.56 154.93 804.36 155.65 802.92 156.12C 801.72 156.6 800.28 156.36 799.08 156.6C 797.4 156.6 789 155.88 788.52 148.72z" stroke="none" fill="#181944" fill-rule="evenodd" /><path id="212" transform="matrix(1 0 0 -1 0 540)" d="M817.95 83.495C 817.47 77.539 816.52 62.052 815.08 52.999C 817.71 39.18 824.88 16.784 824.88 16.784C 824.88 16.784 821.3 14.878 818.67 14.64C 812.45 27.267 802.66 50.14 802.66 50.14C 796.92 88.26 796.92 88.26 796.92 88.26C 796.92 88.26 808.39 112.8 817.47 89.213C 817.71 88.022 817.95 84.925 817.95 83.495z" stroke="none" fill="#181944" fill-rule="evenodd" /><path id="213" transform="matrix(1 0 0 -1 0 540)" d="M815.64 80.064C 814.2 74.114 809.4 59.359 806.28 50.554C 806.28 36.513 803.16 13.666 803.16 13.666C 803.16 13.666 799.32 12 796.92 12.238C 795.72 32.467 793.32 50.078 793.32 50.078C 795.72 88.631 795.72 88.631 795.72 88.631C 795.72 88.631 812.04 111.24 816.12 86.252C 816.36 85.062 815.88 81.254 815.64 80.064z" stroke="none" fill="#004080" fill-rule="evenodd" /><path id="214" transform="matrix(1 0 0 -1 0 540)" d="M815.79 85.887C 815.79 85.887 803.41 82.32 794.6 84.698C 793.88 104.2 789.36 117.75 796.98 128.93C 799.6 130.12 802.69 133.21 804.6 134.4C 811.98 131.31 818.65 97.54 819.36 87.076C 819.36 87.076 817.69 86.363 815.79 85.887z" stroke="none" fill="#7ED8FD" fill-rule="evenodd" /><path id="215" transform="matrix(1 0 0 -1 0 540)" d="M785.71 129.24C 785.71 129.24 789.49 132.79 788.07 134.21C 787.83 134.45 787.6 134.21 787.6 134.45C 787.6 134.92 787.83 134.92 787.83 135.16C 787.83 135.4 787.83 135.87 788.07 136.11C 788.07 136.34 788.31 136.58 788.54 136.58C 788.78 136.82 788.78 136.82 789.01 136.58C 789.25 136.58 789.49 136.58 789.72 136.82C 789.72 136.82 789.96 137.05 789.72 137.29C 789.72 137.29 789.72 137.29 789.49 137.53C 789.25 137.53 789.01 137.76 788.54 137.76C 788.31 138 788.07 138 787.83 138C 787.36 137.76 787.12 137.53 786.89 137.29C 786.65 137.05 786.41 136.58 786.41 136.34C 786.41 136.11 786.18 136.11 786.18 135.87C 785.94 135.63 785.47 135.87 785 135.87C 784.76 135.63 784.29 135.63 784.05 135.4C 783.34 134.92 782.87 134.45 782.63 133.74C 782.16 132.55 782.87 131.37 782.87 131.37L782.87 131.37L785.71 129.24z" stroke="none" fill="#E8BAA0" fill-rule="evenodd" /><path id="216" transform="matrix(1 0 0 -1 0 540)" d="M802.62 131.54C 800.24 130.35 794.53 126.54 789.29 117.97C 789.29 117.97 788.1 124.64 787.62 131.54C 784.53 133.44 781.91 130.35 781.91 130.35C 781.91 130.35 780.72 113.22 783.58 109.41C 786.43 105.84 800.24 115.12 803.81 118.21C 805.48 119.4 810.24 128.44 805.24 131.54C 804.53 132.01 803.57 132.01 802.62 131.54z" stroke="none" fill="#AEECFF" fill-rule="evenodd" /><g clip-path="url(#11)"><g transform="matrix(3.644412 0 0 3.646684 87.6 354.363)"><g transform="matrix(1 0 0 1 0 0)"><image x="0" y="0" xlink:href="img_01.png" width="34" height="19" /></g></g></g><path id="218" transform="matrix(1 0 0 -1 0 540)" d="M96.96 150.06C 96.96 163.28 107.68 174 120.9 174L120.9 174L177.18 174C 190.4 174 201.12 163.28 201.12 150.06L201.12 150.06L201.12 150.06C 201.12 136.84 190.4 126.12 177.18 126.12L177.18 126.12L120.9 126.12C 107.68 126.12 96.96 136.84 96.96 150.06z" stroke="none" fill="#FFC000" fill-rule="evenodd" /><path id="219" transform="matrix(1 0 0 -1 0 540)" d="M96.96 150.06C 96.96 163.28 107.68 174 120.9 174L120.9 174L177.18 174C 190.4 174 201.12 163.28 201.12 150.06L201.12 150.06L201.12 150.06C 201.12 136.84 190.4 126.12 177.18 126.12L177.18 126.12L120.9 126.12C 107.68 126.12 96.96 136.84 96.96 150.06z" stroke="#A6A6A6" stroke-width="0.5" fill="none" /><g clip-path="url(#12)"><g transform="matrix(0.24 0 0 0.2413333 143.18 375.836)"><g transform="matrix(1 0 0 1 0 0)"><image x="0" y="0" xlink:href="img_02.png" width="225" height="108" /></g></g></g><path id="221" transform="matrix(1 0 0 -1 0 540)" d="M143.16 141.06L155.16 141.06L155.16 141.06L167.16 141.06L167.16 141.06L179.16 141.06L179.16 141.06L179.16 140.1L179.16 140.1L167.16 140.1L167.16 140.1L155.16 140.1L155.16 140.1L143.16 140.1z" stroke="none" fill="#0563C1" fill-rule="evenodd" /><g clip-path="url(#13)"><g clip-path="url(#14)"><path id="222" transform="matrix(1 0 0 -1 0 540)" d="M135.6072 154.3246L135.6072 160.4197L135.6072 160.4197L133.6541 158.4758C 131.701 160.2175 129.1066 161.2906 126.2789 161.2906C 120.1572 161.2906 115.2016 156.3567 115.2016 150.2606C 115.2016 144.1646 120.1572 139.2296 126.2789 139.2296C 129.3398 139.2296 132.1091 140.4779 134.1205 142.4518L134.1205 142.4518L131.6427 144.9193C 130.2726 143.5549 128.3778 142.7131 126.2789 142.7131C 122.1104 142.7131 118.6997 146.1095 118.6997 150.2606C 118.6997 154.4117 122.1104 157.8081 126.2789 157.8081C 128.1446 157.8081 129.8645 157.1404 131.1763 156.0083L131.1763 156.0083L129.4855 154.3246L129.4855 154.3246L135.6072 154.3246z" stroke="none" fill="#4472C4" fill-rule="nonzero" /></g></g></g></g></svg>