<svg xmlns="http://www.w3.org/2000/svg" xmlns:xlink="http://www.w3.org/1999/xlink" id="body_1" preserveAspectRatio="xMinYMin meet" viewBox="0 0 1280 720"><defs><clipPath id="1"><path id="" clip-rule="evenodd" transform="matrix(1 0 0 1 0 0)" d="M0 540L0 0L0 0L960 0L960 0L960 540L960 540L0 540z" /></clipPath><clipPath id="2"><path id="" clip-rule="evenodd" transform="matrix(1 0 0 1 0 0)" d="M0 539.9999L960 539.9999L960 539.9999L960 -0.0001220703L960 -0.0001220703L0 -0.0001220703z" /></clipPath><clipPath id="3"><path id="" clip-rule="evenodd" transform="matrix(1 0 0 1 0 0)" d="M28.32 388.44L816.24 388.44L816.24 388.44L816.24 121.2L816.24 121.2L28.32 121.2z" /></clipPath><clipPath id="4"><path id="" clip-rule="evenodd" transform="matrix(1 0 0 1 0 0)" d="M1.4305E-05 540L960 540L960 540L960 0L960 0L1.4305E-05 0z" /></clipPath><clipPath id="5"><path id="" clip-rule="evenodd" transform="matrix(1 0 0 1 0 0)" d="M1.4305E-05 540L960 540L960 540L960 0L960 0L1.4305E-05 0z" /></clipPath><clipPath id="6"><path id="" clip-rule="evenodd" transform="matrix(1 0 0 1 0 0)" d="M1.4305E-05 540L960 540L960 540L960 0L960 0L1.4305E-05 0z" /></clipPath><clipPath id="7"><path id="" clip-rule="evenodd" transform="matrix(1 0 0 1 0 0)" d="M1.4305E-05 540L960 540L960 540L960 0L960 0L1.4305E-05 0z" /></clipPath><clipPath id="8"><path id="" clip-rule="evenodd" transform="matrix(1 0 0 1 0 0)" d="M1.4305E-05 540L960 540L960 540L960 0L960 0L1.4305E-05 0z" /></clipPath><clipPath id="9"><path id="" clip-rule="evenodd" transform="matrix(1 0 0 1 0 0)" d="M-3.0518E-05 539.9999L959.9999 539.9999L959.9999 539.9999L959.9999 -0.0001220703L959.9999 -0.0001220703L-3.0518E-05 -0.0001220703z" /></clipPath><clipPath id="10"><path id="" clip-rule="evenodd" transform="matrix(1 0 0 1 0 0)" d="M780.84 503.04L904.5601 503.04L904.5601 503.04L904.5601 379.44L904.5601 379.44L780.84 379.44z" /></clipPath><clipPath id="11"><path id="" clip-rule="evenodd" transform="matrix(1 0 0 1 0 0)" d="M1.4305E-05 540L960 540L960 540L960 0L960 0L1.4305E-05 0z" /></clipPath><clipPath id="12"><path id="" clip-rule="evenodd" transform="matrix(1 0 0 1 0 0)" d="M384.84 508.32L756.72 508.32L756.72 508.32L756.72 374.16L756.72 374.16L384.84 374.16z" /></clipPath><clipPath id="13"><path id="" clip-rule="evenodd" transform="matrix(1 0 0 1 0 0)" d="M1.4305E-05 540L960 540L960 540L960 0L960 0L1.4305E-05 0z" /></clipPath><clipPath id="14"><path id="" clip-rule="evenodd" transform="matrix(1 0 0 1 0 0)" d="M1.4305E-05 540L960 540L960 540L960 0L960 0L1.4305E-05 0z" /></clipPath><clipPath id="15"><path id="" clip-rule="evenodd" transform="matrix(1 0 0 1 0 0)" d="M1.4305E-05 540L960 540L960 540L960 0L960 0L1.4305E-05 0z" /></clipPath><clipPath id="16"><path id="" clip-rule="evenodd" transform="matrix(1 0 0 1 0 0)" d="M1.4305E-05 540L960 540L960 540L960 0L960 0L1.4305E-05 0z" /></clipPath><clipPath id="17"><path id="" clip-rule="evenodd" transform="matrix(1 0 0 1 0 0)" d="M1.4305E-05 540L960 540L960 540L960 0L960 0L1.4305E-05 0z" /></clipPath><clipPath id="18"><path id="" clip-rule="evenodd" transform="matrix(1 0 0 1 0 0)" d="M1.4305E-05 540L960 540L960 540L960 0L960 0L1.4305E-05 0z" /></clipPath><clipPath id="19"><path id="" clip-rule="evenodd" transform="matrix(1 0 0 1 0 0)" d="M1.4305E-05 540L960 540L960 540L960 0L960 0L1.4305E-05 0z" /></clipPath><clipPath id="20"><path id="" clip-rule="evenodd" transform="matrix(1 0 0 1 0 0)" d="M1.4305E-05 540L960 540L960 540L960 0L960 0L1.4305E-05 0z" /></clipPath><clipPath id="21"><path id="" clip-rule="evenodd" transform="matrix(1 0 0 1 0 0)" d="M1.4305E-05 540L960 540L960 540L960 0L960 0L1.4305E-05 0z" /></clipPath><clipPath id="22"><path id="" clip-rule="evenodd" transform="matrix(1 0 0 1 0 0)" d="M1.4305E-05 540L960 540L960 540L960 0L960 0L1.4305E-05 0z" /></clipPath><clipPath id="23"><path id="" clip-rule="evenodd" transform="matrix(1 0 0 1 0 0)" d="M1.4305E-05 540L960 540L960 540L960 0L960 0L1.4305E-05 0z" /></clipPath><clipPath id="24"><path id="" clip-rule="evenodd" transform="matrix(1 0 0 1 0 0)" d="M1.4305E-05 540L960 540L960 540L960 0L960 0L1.4305E-05 0z" /></clipPath><clipPath id="25"><path id="" clip-rule="evenodd" transform="matrix(1 0 0 1 0 0)" d="M1.4305E-05 540L960 540L960 540L960 0L960 0L1.4305E-05 0z" /></clipPath><clipPath id="26"><path id="" clip-rule="evenodd" transform="matrix(1 0 0 1 0 0)" d="M1.4305E-05 540L960 540L960 540L960 0L960 0L1.4305E-05 0z" /></clipPath><clipPath id="27"><path id="" clip-rule="evenodd" transform="matrix(1 0 0 1 0 0)" d="M1.4305E-05 540L960 540L960 540L960 0L960 0L1.4305E-05 0z" /></clipPath><clipPath id="28"><path id="" clip-rule="evenodd" transform="matrix(1 0 0 1 0 0)" d="M1.4305E-05 540L960 540L960 540L960 0L960 0L1.4305E-05 0z" /></clipPath><clipPath id="29"><path id="" clip-rule="evenodd" transform="matrix(1 0 0 1 0 0)" d="M1.4305E-05 540L960 540L960 540L960 0L960 0L1.4305E-05 0z" /></clipPath><clipPath id="30"><path id="" clip-rule="evenodd" transform="matrix(1 0 0 1 0 0)" d="M1.4305E-05 540L960 540L960 540L960 0L960 0L1.4305E-05 0z" /></clipPath><clipPath id="31"><path id="" clip-rule="evenodd" transform="matrix(1 0 0 1 0 0)" d="M1.4305E-05 540L960 540L960 540L960 0L960 0L1.4305E-05 0z" /></clipPath><clipPath id="32"><path id="" clip-rule="evenodd" transform="matrix(1 0 0 1 0 0)" d="M1.4305E-05 540L960 540L960 540L960 0L960 0L1.4305E-05 0z" /></clipPath><clipPath id="33"><path id="" clip-rule="evenodd" transform="matrix(1 0 0 1 0 0)" d="M1.4305E-05 540L960 540L960 540L960 0L960 0L1.4305E-05 0z" /></clipPath><clipPath id="34"><path id="" clip-rule="evenodd" transform="matrix(1 0 0 1 0 0)" d="M1.4305E-05 540L960 540L960 540L960 0L960 0L1.4305E-05 0z" /></clipPath><clipPath id="35"><path id="" clip-rule="evenodd" transform="matrix(1 0 0 1 0 0)" d="M57.48 501.84L212.64 501.84L212.64 501.84L212.64 311.04L212.64 311.04L57.48 311.04z" /></clipPath><clipPath id="36"><path id="" clip-rule="evenodd" transform="matrix(1 0 0 1 0 0)" d="M1.4305E-05 540L960 540L960 540L960 0L960 0L1.4305E-05 0z" /></clipPath><clipPath id="37"><path id="" clip-rule="evenodd" transform="matrix(1 0 0 1 0 0)" d="M1.4305E-05 540L960 540L960 540L960 0L960 0L1.4305E-05 0z" /></clipPath><clipPath id="38"><path id="" clip-rule="evenodd" transform="matrix(1 0 0 1 0 0)" d="M1.4305E-05 540L960 540L960 540L960 0L960 0L1.4305E-05 0z" /></clipPath><clipPath id="39"><path id="" clip-rule="evenodd" transform="matrix(1 0 0 1 0 0)" d="M1.4305E-05 540L960 540L960 540L960 0L960 0L1.4305E-05 0z" /></clipPath><clipPath id="40"><path id="" clip-rule="evenodd" transform="matrix(1 0 0 1 0 0)" d="M1.4305E-05 540L960 540L960 540L960 0L960 0L1.4305E-05 0z" /></clipPath><clipPath id="41"><path id="" clip-rule="evenodd" transform="matrix(1 0 0 1 0 0)" d="M1.4305E-05 540L960 540L960 540L960 0L960 0L1.4305E-05 0z" /></clipPath><clipPath id="42"><path id="" clip-rule="evenodd" transform="matrix(1 0 0 1 0 0)" d="M1.4305E-05 540L960 540L960 540L960 0L960 0L1.4305E-05 0z" /></clipPath><clipPath id="43"><path id="" clip-rule="evenodd" transform="matrix(1 0 0 1 0 0)" d="M1.4305E-05 540L960 540L960 540L960 0L960 0L1.4305E-05 0z" /></clipPath><clipPath id="44"><path id="" clip-rule="evenodd" transform="matrix(1 0 0 1 0 0)" d="M1.4305E-05 540L960 540L960 540L960 0L960 0L1.4305E-05 0z" /></clipPath><clipPath id="45"><path id="" clip-rule="evenodd" transform="matrix(1 0 0 1 0 0)" d="M1.4305E-05 540L960 540L960 540L960 0L960 0L1.4305E-05 0z" /></clipPath><clipPath id="46"><path id="" clip-rule="evenodd" transform="matrix(1 0 0 1 0 0)" d="M0 0L960 0L960 0L960 539.9999L960 539.9999L-1.9073E-05 539.9999" /></clipPath></defs><g transform="matrix(1.333333 0 0 1.333333 0 0)"><g clip-path="url(#1)"><g clip-path="url(#2)"><path id="1" transform="matrix(1 0 0 -1 0 540)" d="M0 6.1035E-05L960 6.1035E-05L960 6.1035E-05L960 540.0001L960 540.0001L0 540.0001z" stroke="none" fill="#FFFFFF" fill-rule="evenodd" /></g><g clip-path="url(#3)"><g transform="matrix(0.5207667 0 0 0.5209357 28.32 121.2)"><g transform="matrix(1 0 0 1 0 0)"><image x="0" y="0" xlink:href="img_01.png" width="1513" height="513" /></g></g></g><g clip-path="url(#4)"><g transform="matrix(0.2400571 0 0 0.2413333 828.31 260.276)"><g transform="matrix(1 0 0 1 0 0)"><image x="0" y="0" xlink:href="img_02.png" width="525" height="108" /></g></g></g><path id="4" transform="matrix(1 0 0 -1 0 540)" d="M784.42 284.27L780.9 289.98L787.58 289.37zM820.57 264.39L784.69 286.6L785.61 288.09L821.49 265.88z" stroke="none" fill="#7F7F7F" fill-rule="nonzero" /><path id="5" transform="matrix(1 0 0 -1 0 540)" d="M627.76 266.64L621.78 263.59L627.8 260.64zM821.07 266.02L626.77 264.51L626.79 262.76L821.09 264.27z" stroke="none" fill="#7F7F7F" fill-rule="nonzero" /><g clip-path="url(#5)"><g transform="matrix(0.24 0 0 0.2413333 287.33 175.606)"><g transform="matrix(1 0 0 1 0 0)"><image x="0" y="0" xlink:href="img_02.png" width="525" height="108" /></g></g></g><path id="7" transform="matrix(1 0 0 -1 0 540)" d="M524.03 383.86L528.87 388.5L522.25 389.59zM404 348.95L524.35 386.19L523.84 387.86L403.48 350.62z" stroke="none" fill="#7F7F7F" fill-rule="nonzero" /><path id="8" transform="matrix(1 0 0 -1 0 540)" d="M160.18 373.7L154.98 377.94L161.49 379.55zM279.92 348.95L159.67 375.99L160.05 377.7L280.3 350.66z" stroke="none" fill="#7F7F7F" fill-rule="nonzero" /><g clip-path="url(#6)"><g transform="matrix(0.2400571 0 0 0.2411111 606.6 161.62)"><g transform="matrix(1 0 0 1 0 0)"><image x="0" y="0" xlink:href="img_03.png" width="525" height="108" /></g></g></g><path id="10" transform="matrix(1 0 0 -1 0 540)" d="M15.36 298.32C 15.36 316.74 30.323 331.68 48.78 331.68C 67.237 331.68 82.2 316.74 82.2 298.32C 82.2 279.9 67.237 264.96 48.78 264.96C 30.323 264.96 15.36 279.9 15.36 298.32z" stroke="none" fill="#FFC000" fill-rule="evenodd" fill-opacity="0.254902" /><g clip-path="url(#7)"></g><path id="12" transform="matrix(1 0 0 -1 0 540)" d="M422.28 231.66C 422.28 250.12 437.24 265.08 455.7 265.08C 474.16 265.08 489.12 250.12 489.12 231.66C 489.12 213.2 474.16 198.24 455.7 198.24C 437.24 198.24 422.28 213.2 422.28 231.66z" stroke="none" fill="#FFC000" fill-rule="evenodd" fill-opacity="0.254902" /><g clip-path="url(#8)"></g><g clip-path="url(#9)"><path id="14" transform="matrix(1 0 0 -1 0 540)" d="M365.28 0L922.3199 0L922.3199 0L922.3199 182.52L922.3199 182.52L365.28 182.52z" stroke="none" fill="#A6A6A6" fill-rule="evenodd" fill-opacity="0.5411765" /></g><g clip-path="url(#10)"><g transform="matrix(0.6248485 0 0 0.6242424 780.84 379.44)"><g transform="matrix(1 0 0 1 0 0)"><image x="0" y="0" xlink:href="img_04.png" width="198" height="198" /></g></g></g><g clip-path="url(#11)"></g><g clip-path="url(#12)"><g transform="matrix(0.5634545 0 0 0.5636975 384.84 374.16)"><g transform="matrix(1 0 0 1 0 0)"><image x="0" y="0" xlink:href="img_05.png" width="660" height="238" /></g></g></g><g clip-path="url(#13)"></g><g clip-path="url(#14)"></g><g clip-path="url(#15)"></g><g clip-path="url(#16)"></g><g clip-path="url(#17)"></g><g clip-path="url(#18)"></g><g clip-path="url(#19)"></g><g clip-path="url(#20)"></g><g clip-path="url(#21)"></g><g clip-path="url(#22)"></g><g clip-path="url(#23)"></g><g clip-path="url(#24)"></g><g clip-path="url(#25)"></g><path id="117" transform="matrix(1 0 0 -1 0 540)" d="M24 458.88L491.76 458.88L491.76 458.88L491.76 478.44L491.76 478.44L24 478.44z" stroke="none" fill="#FFC000" fill-rule="evenodd" fill-opacity="0.2" /><g clip-path="url(#26)"><g transform="matrix(0.2403433 0 0 0.2400996 35.496 22.63599)"><g transform="matrix(1 0 0 1 0 0)"><image x="0" y="0" xlink:href="img_06.png" width="466" height="241" /></g></g></g><g clip-path="url(#27)"><g transform="matrix(0.2403206 0 0 0.2400996 119.5 22.63599)"><g transform="matrix(1 0 0 1 0 0)"><image x="0" y="0" xlink:href="img_07.png" width="499" height="241" /></g></g></g><g clip-path="url(#28)"><g transform="matrix(0.2402405 0 0 0.2400996 199.44 22.63599)"><g transform="matrix(1 0 0 1 0 0)"><image x="0" y="0" xlink:href="img_08.png" width="499" height="241" /></g></g></g><g clip-path="url(#29)"><g transform="matrix(0.24 0 0 0.2400996 279.36 22.63599)"><g transform="matrix(1 0 0 1 0 0)"><image x="0" y="0" xlink:href="img_09.png" width="298" height="241" /></g></g></g><g clip-path="url(#30)"><g transform="matrix(0.2401803 0 0 0.2400996 315.12 22.63599)"><g transform="matrix(1 0 0 1 0 0)"><image x="0" y="0" xlink:href="img_10.png" width="832" height="241" /></g></g></g><g clip-path="url(#31)"><g transform="matrix(0.24 0 0 0.2411111 212.3 315.77)"><g transform="matrix(1 0 0 1 0 0)"><image x="0" y="0" xlink:href="img_11.png" width="225" height="108" /></g></g></g><g clip-path="url(#32)"><g transform="matrix(0.24 0 0 0.2413333 212.3 354.236)"><g transform="matrix(1 0 0 1 0 0)"><image x="0" y="0" xlink:href="img_12.png" width="375" height="108" /></g></g></g><g clip-path="url(#33)"><g transform="matrix(0.24016 0 0 0.2411111 214.54 442.104)"><g transform="matrix(1 0 0 1 0 0)"><image x="0" y="0" xlink:href="img_13.png" width="225" height="108" /></g></g></g><g clip-path="url(#34)"><g transform="matrix(0.24 0 0 0.2411111 254.52 442.104)"><g transform="matrix(1 0 0 1 0 0)"><image x="0" y="0" xlink:href="img_14.png" width="83" height="108" /></g></g></g><g clip-path="url(#35)"><g transform="matrix(0.7532039 0 0 0.7511811 57.48 311.04)"><g transform="matrix(1 0 0 1 0 0)"><image x="0" y="0" xlink:href="img_15.png" width="206" height="254" /></g></g></g><path id="128" transform="matrix(1 0 0 -1 0 540)" d="M150.72 123.36C 150.72 141.78 165.66 156.72 184.08 156.72C 202.5 156.72 217.44 141.78 217.44 123.36C 217.44 104.94 202.5 90 184.08 90C 165.66 90 150.72 104.94 150.72 123.36z" stroke="none" fill="#FFC000" fill-rule="evenodd" fill-opacity="0.254902" /><g clip-path="url(#36)"></g><path id="130" transform="matrix(1 0 0 -1 0 540)" d="M645.84 393.24L944.64 393.24L944.64 393.24L944.64 470.4L944.64 470.4L645.84 470.4z" stroke="none" fill="#FFC000" fill-rule="evenodd" fill-opacity="0.1215686" /><g clip-path="url(#37)"><g transform="matrix(0.24 0 0 0.2411111 658.39 80.89999)"><g transform="matrix(1 0 0 1 0 0)"><image x="0" y="0" xlink:href="img_16.png" width="150" height="108" /></g></g></g><g clip-path="url(#38)"><g transform="matrix(0.24 0 0 0.2411111 680.35 80.89999)"><g transform="matrix(1 0 0 1 0 0)"><image x="0" y="0" xlink:href="img_17.png" width="525" height="108" /></g></g></g><g clip-path="url(#39)"><g transform="matrix(0.24008 0 0 0.2411111 788.35 80.89999)"><g transform="matrix(1 0 0 1 0 0)"><image x="0" y="0" xlink:href="img_18.png" width="375" height="108" /></g></g></g><g clip-path="url(#40)"><g transform="matrix(0.24 0 0 0.2411111 658.39 110.98)"><g transform="matrix(1 0 0 1 0 0)"><image x="0" y="0" xlink:href="img_19.png" width="150" height="108" /></g></g></g><g clip-path="url(#41)"><g transform="matrix(0.24 0 0 0.2411111 680.35 110.98)"><g transform="matrix(1 0 0 1 0 0)"><image x="0" y="0" xlink:href="img_20.png" width="600" height="108" /></g></g></g><g clip-path="url(#42)"><g transform="matrix(0.2408182 0 0 0.2411111 810.43 110.98)"><g transform="matrix(1 0 0 1 0 0)"><image x="0" y="0" xlink:href="img_21.png" width="220" height="108" /></g></g></g><g clip-path="url(#43)"><g transform="matrix(0.24 0 0 0.2411111 852.82 110.98)"><g transform="matrix(1 0 0 1 0 0)"><image x="0" y="0" xlink:href="img_22.png" width="375" height="108" /></g></g></g><g clip-path="url(#44)"><g transform="matrix(0.24 0 0 0.2411111 924.82 110.98)"><g transform="matrix(1 0 0 1 0 0)"><image x="0" y="0" xlink:href="img_23.png" width="51" height="108" /></g></g></g><g clip-path="url(#45)"><g transform="matrix(0.2402878 0 0 0.24 658.39 49.00998)"><g transform="matrix(1 0 0 1 0 0)"><image x="0" y="0" xlink:href="img_24.png" width="417" height="121" /></g></g></g><g clip-path="url(#46)"><path id="140" transform="matrix(1 0 0 -1 0 540)" d="M123.48 125.25C 101.32 127.15 79.158 129.06 67.917 134.94C 56.676 140.82 54.483 151.62 56.029 160.54C 57.574 169.45 64.877 179.81 77.188 188.44C 89.5 197.07 129.9 212.32 129.9 212.32L129.9 212.32L129.9 212.32" stroke="#FFC000" stroke-width="1.25" stroke-dasharray="4,3" fill="none" stroke-opacity="0.7215686" /></g></g></g></svg>