<svg xmlns="http://www.w3.org/2000/svg" xmlns:xlink="http://www.w3.org/1999/xlink" id="body_1" preserveAspectRatio="xMinYMin meet" viewBox="0 0 1280 720"><defs><clipPath id="1"><path id="" clip-rule="evenodd" transform="matrix(1 0 0 1 0 0)" d="M0 540L0 0L0 0L960 0L960 0L960 540L960 540L0 540z" /></clipPath><clipPath id="2"><path id="" clip-rule="evenodd" transform="matrix(1 0 0 1 0 0)" d="M0 539.9999L960 539.9999L960 539.9999L960 -0.0001220703L960 -0.0001220703L0 -0.0001220703z" /></clipPath><clipPath id="3"><path id="" clip-rule="evenodd" transform="matrix(1 0 0 1 0 0)" d="M1.4305E-05 540L960 540L960 540L960 0L960 0L1.4305E-05 0z" /></clipPath><clipPath id="4"><path id="" clip-rule="evenodd" transform="matrix(1 0 0 1 0 0)" d="M1.4305E-05 540L960 540L960 540L960 0L960 0L1.4305E-05 0z" /></clipPath><clipPath id="5"><path id="" clip-rule="evenodd" transform="matrix(1 0 0 1 0 0)" d="M1.4305E-05 540L960 540L960 540L960 0L960 0L1.4305E-05 0z" /></clipPath><clipPath id="6"><path id="" clip-rule="evenodd" transform="matrix(1 0 0 1 0 0)" d="M1.4305E-05 540L960 540L960 540L960 0L960 0L1.4305E-05 0z" /></clipPath><clipPath id="7"><path id="" clip-rule="evenodd" transform="matrix(1 0 0 1 0 0)" d="M1.4305E-05 540L960 540L960 540L960 0L960 0L1.4305E-05 0z" /></clipPath><clipPath id="8"><path id="" clip-rule="evenodd" transform="matrix(1 0 0 1 0 0)" d="M1.4305E-05 540L960 540L960 540L960 0L960 0L1.4305E-05 0z" /></clipPath><clipPath id="9"><path id="" clip-rule="evenodd" transform="matrix(1 0 0 1 0 0)" d="M1.4305E-05 540L960 540L960 540L960 0L960 0L1.4305E-05 0z" /></clipPath><clipPath id="10"><path id="" clip-rule="evenodd" transform="matrix(1 0 0 1 0 0)" d="M1.4305E-05 540L960 540L960 540L960 0L960 0L1.4305E-05 0z" /></clipPath><clipPath id="11"><path id="" clip-rule="evenodd" transform="matrix(1 0 0 1 0 0)" d="M1.4305E-05 540L960 540L960 540L960 0L960 0L1.4305E-05 0z" /></clipPath><clipPath id="12"><path id="" clip-rule="evenodd" transform="matrix(1 0 0 1 0 0)" d="M1.4305E-05 540L960 540L960 540L960 0L960 0L1.4305E-05 0z" /></clipPath><clipPath id="13"><path id="" clip-rule="evenodd" transform="matrix(1 0 0 1 0 0)" d="M1.4305E-05 540L960 540L960 540L960 0L960 0L1.4305E-05 0z" /></clipPath><clipPath id="14"><path id="" clip-rule="evenodd" transform="matrix(1 0 0 1 0 0)" d="M1.4305E-05 540L960 540L960 540L960 0L960 0L1.4305E-05 0z" /></clipPath><clipPath id="15"><path id="" clip-rule="evenodd" transform="matrix(1 0 0 1 0 0)" d="M1.4305E-05 540L960 540L960 540L960 0L960 0L1.4305E-05 0z" /></clipPath><clipPath id="16"><path id="" clip-rule="evenodd" transform="matrix(1 0 0 1 0 0)" d="M1.4305E-05 540L960 540L960 540L960 0L960 0L1.4305E-05 0z" /></clipPath><clipPath id="17"><path id="" clip-rule="evenodd" transform="matrix(1 0 0 1 0 0)" d="M1.4305E-05 540L960 540L960 540L960 0L960 0L1.4305E-05 0z" /></clipPath><clipPath id="18"><path id="" clip-rule="evenodd" transform="matrix(1 0 0 1 0 0)" d="M1.4305E-05 540L960 540L960 540L960 0L960 0L1.4305E-05 0z" /></clipPath><clipPath id="19"><path id="" clip-rule="evenodd" transform="matrix(1 0 0 1 0 0)" d="M1.4305E-05 540L960 540L960 540L960 0L960 0L1.4305E-05 0z" /></clipPath><clipPath id="20"><path id="" clip-rule="evenodd" transform="matrix(1 0 0 1 0 0)" d="M1.4305E-05 540L960 540L960 540L960 0L960 0L1.4305E-05 0z" /></clipPath><clipPath id="21"><path id="" clip-rule="evenodd" transform="matrix(1 0 0 1 0 0)" d="M1.4305E-05 540L960 540L960 540L960 0L960 0L1.4305E-05 0z" /></clipPath><clipPath id="22"><path id="" clip-rule="evenodd" transform="matrix(1 0 0 1 0 0)" d="M1.4305E-05 540L960 540L960 540L960 0L960 0L1.4305E-05 0z" /></clipPath><clipPath id="23"><path id="" clip-rule="evenodd" transform="matrix(1 0 0 1 0 0)" d="M1.4305E-05 540L960 540L960 540L960 0L960 0L1.4305E-05 0z" /></clipPath><clipPath id="24"><path id="" clip-rule="evenodd" transform="matrix(1 0 0 1 0 0)" d="M1.4305E-05 540L960 540L960 540L960 0L960 0L1.4305E-05 0z" /></clipPath><clipPath id="25"><path id="" clip-rule="evenodd" transform="matrix(1 0 0 1 0 0)" d="M1.4305E-05 540L960 540L960 540L960 0L960 0L1.4305E-05 0z" /></clipPath><clipPath id="26"><path id="" clip-rule="evenodd" transform="matrix(1 0 0 1 0 0)" d="M1.4305E-05 540L960 540L960 540L960 0L960 0L1.4305E-05 0z" /></clipPath><clipPath id="27"><path id="" clip-rule="evenodd" transform="matrix(1 0 0 1 0 0)" d="M1.4305E-05 540L960 540L960 540L960 0L960 0L1.4305E-05 0z" /></clipPath><clipPath id="28"><path id="" clip-rule="evenodd" transform="matrix(1 0 0 1 0 0)" d="M1.4305E-05 540L960 540L960 540L960 0L960 0L1.4305E-05 0z" /></clipPath><clipPath id="29"><path id="" clip-rule="evenodd" transform="matrix(1 0 0 1 0 0)" d="M1.4305E-05 540L960 540L960 540L960 0L960 0L1.4305E-05 0z" /></clipPath><clipPath id="30"><path id="" clip-rule="evenodd" transform="matrix(1 0 0 1 0 0)" d="M1.4305E-05 540L960 540L960 540L960 0L960 0L1.4305E-05 0z" /></clipPath><clipPath id="31"><path id="" clip-rule="evenodd" transform="matrix(1 0 0 1 0 0)" d="M1.4305E-05 540L960 540L960 540L960 0L960 0L1.4305E-05 0z" /></clipPath><clipPath id="32"><path id="" clip-rule="evenodd" transform="matrix(1 0 0 1 0 0)" d="M1.4305E-05 540L960 540L960 540L960 0L960 0L1.4305E-05 0z" /></clipPath><clipPath id="33"><path id="" clip-rule="evenodd" transform="matrix(1 0 0 1 0 0)" d="M1.4305E-05 540L960 540L960 540L960 0L960 0L1.4305E-05 0z" /></clipPath><clipPath id="34"><path id="" clip-rule="evenodd" transform="matrix(1 0 0 1 0 0)" d="M1.4305E-05 540L960 540L960 540L960 0L960 0L1.4305E-05 0z" /></clipPath><clipPath id="35"><path id="" clip-rule="evenodd" transform="matrix(1 0 0 1 0 0)" d="M1.4305E-05 540L960 540L960 540L960 0L960 0L1.4305E-05 0z" /></clipPath><clipPath id="36"><path id="" clip-rule="evenodd" transform="matrix(1 0 0 1 0 0)" d="M1.4305E-05 540L960 540L960 540L960 0L960 0L1.4305E-05 0z" /></clipPath><clipPath id="37"><path id="" clip-rule="evenodd" transform="matrix(1 0 0 1 0 0)" d="M1.4305E-05 540L960 540L960 540L960 0L960 0L1.4305E-05 0z" /></clipPath><clipPath id="38"><path id="" clip-rule="evenodd" transform="matrix(1 0 0 1 0 0)" d="M1.4305E-05 540L960 540L960 540L960 0L960 0L1.4305E-05 0z" /></clipPath><clipPath id="39"><path id="" clip-rule="evenodd" transform="matrix(1 0 0 1 0 0)" d="M1.4305E-05 540L960 540L960 540L960 0L960 0L1.4305E-05 0z" /></clipPath><clipPath id="40"><path id="" clip-rule="evenodd" transform="matrix(1 0 0 1 0 0)" d="M1.4305E-05 540L960 540L960 540L960 0L960 0L1.4305E-05 0z" /></clipPath><clipPath id="41"><path id="" clip-rule="evenodd" transform="matrix(1 0 0 1 0 0)" d="M1.4305E-05 540L960 540L960 540L960 0L960 0L1.4305E-05 0z" /></clipPath><clipPath id="42"><path id="" clip-rule="evenodd" transform="matrix(1 0 0 1 0 0)" d="M1.4305E-05 540L960 540L960 540L960 0L960 0L1.4305E-05 0z" /></clipPath><clipPath id="43"><path id="" clip-rule="evenodd" transform="matrix(1 0 0 1 0 0)" d="M1.4305E-05 540L960 540L960 540L960 0L960 0L1.4305E-05 0z" /></clipPath><clipPath id="44"><path id="" clip-rule="evenodd" transform="matrix(1 0 0 1 0 0)" d="M1.4305E-05 540L960 540L960 540L960 0L960 0L1.4305E-05 0z" /></clipPath><clipPath id="45"><path id="" clip-rule="evenodd" transform="matrix(1 0 0 1 0 0)" d="M1.4305E-05 540L960 540L960 540L960 0L960 0L1.4305E-05 0z" /></clipPath><clipPath id="46"><path id="" clip-rule="evenodd" transform="matrix(1 0 0 1 0 0)" d="M1.4305E-05 540L960 540L960 540L960 0L960 0L1.4305E-05 0z" /></clipPath><clipPath id="47"><path id="" clip-rule="evenodd" transform="matrix(1 0 0 1 0 0)" d="M1.4305E-05 540L960 540L960 540L960 0L960 0L1.4305E-05 0z" /></clipPath><clipPath id="48"><path id="" clip-rule="evenodd" transform="matrix(1 0 0 1 0 0)" d="M1.4305E-05 540L960 540L960 540L960 0L960 0L1.4305E-05 0z" /></clipPath><clipPath id="49"><path id="" clip-rule="evenodd" transform="matrix(1 0 0 1 0 0)" d="M1.4305E-05 540L960 540L960 540L960 0L960 0L1.4305E-05 0z" /></clipPath><clipPath id="50"><path id="" clip-rule="evenodd" transform="matrix(1 0 0 1 0 0)" d="M1.4305E-05 540L960 540L960 540L960 0L960 0L1.4305E-05 0z" /></clipPath><clipPath id="51"><path id="" clip-rule="evenodd" transform="matrix(1 0 0 1 0 0)" d="M664.8 493.56L910.8 493.56L910.8 493.56L910.8 472.2L910.8 472.2L664.8 472.2z" /></clipPath><clipPath id="52"><path id="" clip-rule="evenodd" transform="matrix(1 0 0 1 0 0)" d="M1.4305E-05 540L960 540L960 540L960 0L960 0L1.4305E-05 0z" /></clipPath><clipPath id="53"><path id="" clip-rule="evenodd" transform="matrix(1 0 0 1 0 0)" d="M1.4305E-05 540L960 540L960 540L960 0L960 0L1.4305E-05 0z" /></clipPath><clipPath id="54"><path id="" clip-rule="evenodd" transform="matrix(1 0 0 1 0 0)" d="M1.4305E-05 540L960 540L960 540L960 0L960 0L1.4305E-05 0z" /></clipPath><clipPath id="55"><path id="" clip-rule="evenodd" transform="matrix(1 0 0 1 0 0)" d="M1.4305E-05 540L960 540L960 540L960 0L960 0L1.4305E-05 0z" /></clipPath><clipPath id="56"><path id="" clip-rule="evenodd" transform="matrix(1 0 0 1 0 0)" d="M1.4305E-05 540L960 540L960 540L960 0L960 0L1.4305E-05 0z" /></clipPath><clipPath id="57"><path id="" clip-rule="evenodd" transform="matrix(1 0 0 1 0 0)" d="M1.4305E-05 540L960 540L960 540L960 0L960 0L1.4305E-05 0z" /></clipPath><clipPath id="58"><path id="" clip-rule="evenodd" transform="matrix(1 0 0 1 0 0)" d="M1.4305E-05 540L960 540L960 540L960 0L960 0L1.4305E-05 0z" /></clipPath><clipPath id="59"><path id="" clip-rule="evenodd" transform="matrix(1 0 0 1 0 0)" d="M1.4305E-05 540L960 540L960 540L960 0L960 0L1.4305E-05 0z" /></clipPath><clipPath id="60"><path id="" clip-rule="evenodd" transform="matrix(1 0 0 1 0 0)" d="M1.4305E-05 540L960 540L960 540L960 0L960 0L1.4305E-05 0z" /></clipPath><clipPath id="61"><path id="" clip-rule="evenodd" transform="matrix(1 0 0 1 0 0)" d="M1.4305E-05 540L960 540L960 540L960 0L960 0L1.4305E-05 0z" /></clipPath><clipPath id="62"><path id="" clip-rule="evenodd" transform="matrix(1 0 0 1 0 0)" d="M1.4305E-05 540L960 540L960 540L960 0L960 0L1.4305E-05 0z" /></clipPath><clipPath id="63"><path id="" clip-rule="evenodd" transform="matrix(1 0 0 1 0 0)" d="M1.4305E-05 540L960 540L960 540L960 0L960 0L1.4305E-05 0z" /></clipPath><clipPath id="64"><path id="" clip-rule="evenodd" transform="matrix(1 0 0 1 0 0)" d="M1.4305E-05 540L960 540L960 540L960 0L960 0L1.4305E-05 0z" /></clipPath><clipPath id="65"><path id="" clip-rule="evenodd" transform="matrix(1 0 0 1 0 0)" d="M1.4305E-05 540L960 540L960 540L960 0L960 0L1.4305E-05 0z" /></clipPath><clipPath id="66"><path id="" clip-rule="evenodd" transform="matrix(1 0 0 1 0 0)" d="M1.4305E-05 540L960 540L960 540L960 0L960 0L1.4305E-05 0z" /></clipPath><clipPath id="67"><path id="" clip-rule="evenodd" transform="matrix(1 0 0 1 0 0)" d="M1.4305E-05 540L960 540L960 540L960 0L960 0L1.4305E-05 0z" /></clipPath><clipPath id="68"><path id="" clip-rule="evenodd" transform="matrix(1 0 0 1 0 0)" d="M1.4305E-05 540L960 540L960 540L960 0L960 0L1.4305E-05 0z" /></clipPath><clipPath id="69"><path id="" clip-rule="evenodd" transform="matrix(1 0 0 1 0 0)" d="M1.4305E-05 540L960 540L960 540L960 0L960 0L1.4305E-05 0z" /></clipPath><clipPath id="70"><path id="" clip-rule="evenodd" transform="matrix(1 0 0 1 0 0)" d="M1.4305E-05 540L960 540L960 540L960 0L960 0L1.4305E-05 0z" /></clipPath><clipPath id="71"><path id="" clip-rule="evenodd" transform="matrix(1 0 0 1 0 0)" d="M1.4305E-05 540L960 540L960 540L960 0L960 0L1.4305E-05 0z" /></clipPath><clipPath id="72"><path id="" clip-rule="evenodd" transform="matrix(1 0 0 1 0 0)" d="M1.4305E-05 540L960 540L960 540L960 0L960 0L1.4305E-05 0z" /></clipPath><clipPath id="73"><path id="" clip-rule="evenodd" transform="matrix(1 0 0 1 0 0)" d="M1.4305E-05 540L960 540L960 540L960 0L960 0L1.4305E-05 0z" /></clipPath></defs><g transform="matrix(1.333333 0 0 1.333333 0 0)"><g clip-path="url(#1)"><g clip-path="url(#2)"><path id="1" transform="matrix(1 0 0 -1 0 540)" d="M0 6.1035E-05L960 6.1035E-05L960 6.1035E-05L960 540.0001L960 540.0001L0 540.0001z" stroke="none" fill="#FFFFFF" fill-rule="evenodd" /></g><g clip-path="url(#3)"><g transform="matrix(0.2400444 0 0 0.2411111 35.496 228.07)"><g transform="matrix(1 0 0 1 0 0)"><image x="0" y="0" xlink:href="img_01.png" width="675" height="108" /></g></g></g><g clip-path="url(#4)"><g transform="matrix(0.240025 0 0 0.2411111 179.52 228.07)"><g transform="matrix(1 0 0 1 0 0)"><image x="0" y="0" xlink:href="img_02.png" width="1200" height="108" /></g></g></g><path id="4" transform="matrix(1 0 0 -1 0 540)" d="M24 458.88L250.8 458.88L250.8 458.88L250.8 478.44L250.8 478.44L24 478.44z" stroke="none" fill="#FFC000" fill-rule="evenodd" fill-opacity="0.2" /><g clip-path="url(#5)"><g transform="matrix(0.24003 0 0 0.2400996 35.496 22.63599)"><g transform="matrix(1 0 0 1 0 0)"><image x="0" y="0" xlink:href="img_03.png" width="999" height="241" /></g></g></g><path id="6" transform="matrix(1 0 0 -1 0 540)" d="M617.52 428.69L759.4 428.69L759.4 428.69L759.4 468.439L759.4 468.439L617.52 468.439z" stroke="none" fill="#FFC000" fill-rule="evenodd" /><path id="7" transform="matrix(1 0 0 -1 0 540)" d="M759.4 428.69L902.76 428.69L902.76 428.69L902.76 468.439L902.76 468.439L759.4 468.439z" stroke="none" fill="#FFC000" fill-rule="evenodd" /><path id="8" transform="matrix(1 0 0 -1 0 540)" d="M617.52 388.94L759.4 388.94L759.4 388.94L759.4 428.689L759.4 428.689L617.52 428.689z" stroke="none" fill="#FFE8CB" fill-rule="evenodd" /><path id="9" transform="matrix(1 0 0 -1 0 540)" d="M759.4 388.94L902.76 388.94L902.76 388.94L902.76 428.689L902.76 428.689L759.4 428.689z" stroke="none" fill="#FFE8CB" fill-rule="evenodd" /><path id="10" transform="matrix(1 0 0 -1 0 540)" d="M617.52 349.19L759.4 349.19L759.4 349.19L759.4 388.939L759.4 388.939L617.52 388.939z" stroke="none" fill="#FFF4E7" fill-rule="evenodd" /><path id="11" transform="matrix(1 0 0 -1 0 540)" d="M759.4 349.19L902.76 349.19L902.76 349.19L902.76 388.939L902.76 388.939L759.4 388.939z" stroke="none" fill="#FFF4E7" fill-rule="evenodd" /><path id="12" transform="matrix(1 0 0 -1 0 540)" d="M617.52 309.44L759.4 309.44L759.4 309.44L759.4 349.189L759.4 349.189L617.52 349.189z" stroke="none" fill="#FFE8CB" fill-rule="evenodd" /><path id="13" transform="matrix(1 0 0 -1 0 540)" d="M759.4 309.44L902.76 309.44L902.76 309.44L902.76 349.189L902.76 349.189L759.4 349.189z" stroke="none" fill="#FFE8CB" fill-rule="evenodd" /><path id="14" transform="matrix(1 0 0 -1 0 540)" d="M617.52 269.7L759.4 269.7L759.4 269.7L759.4 309.449L759.4 309.449L617.52 309.449z" stroke="none" fill="#FFF4E7" fill-rule="evenodd" /><path id="15" transform="matrix(1 0 0 -1 0 540)" d="M759.4 269.7L902.76 269.7L902.76 269.7L902.76 309.449L902.76 309.449L759.4 309.449z" stroke="none" fill="#FFF4E7" fill-rule="evenodd" /><path id="16" transform="matrix(1 0 0 -1 0 540)" d="M617.52 229.95L759.4 229.95L759.4 229.95L759.4 269.699L759.4 269.699L617.52 269.699z" stroke="none" fill="#FFE8CB" fill-rule="evenodd" /><path id="17" transform="matrix(1 0 0 -1 0 540)" d="M759.4 229.95L902.76 229.95L902.76 229.95L902.76 269.699L902.76 269.699L759.4 269.699z" stroke="none" fill="#FFE8CB" fill-rule="evenodd" /><path id="18" transform="matrix(1 0 0 -1 0 540)" d="M617.52 190.2L759.4 190.2L759.4 190.2L759.4 229.949L759.4 229.949L617.52 229.949z" stroke="none" fill="#FFF4E7" fill-rule="evenodd" /><path id="19" transform="matrix(1 0 0 -1 0 540)" d="M759.4 190.2L902.76 190.2L902.76 190.2L902.76 229.949L902.76 229.949L759.4 229.949z" stroke="none" fill="#FFF4E7" fill-rule="evenodd" /><path id="20" transform="matrix(1 0 0 -1 0 540)" d="M617.52 150.45L759.4 150.45L759.4 150.45L759.4 190.199L759.4 190.199L617.52 190.199z" stroke="none" fill="#FFE8CB" fill-rule="evenodd" /><path id="21" transform="matrix(1 0 0 -1 0 540)" d="M759.4 150.45L902.76 150.45L902.76 150.45L902.76 190.199L902.76 190.199L759.4 190.199z" stroke="none" fill="#FFE8CB" fill-rule="evenodd" /><path id="22" transform="matrix(1 0 0 -1 0 540)" d="M617.52 110.7L759.4 110.7L759.4 110.7L759.4 150.449L759.4 150.449L617.52 150.449z" stroke="none" fill="#FFF4E7" fill-rule="evenodd" /><path id="23" transform="matrix(1 0 0 -1 0 540)" d="M759.4 110.7L902.76 110.7L902.76 110.7L902.76 150.449L902.76 150.449L759.4 150.449z" stroke="none" fill="#FFF4E7" fill-rule="evenodd" /><path id="24" transform="matrix(1 0 0 -1 0 540)" d="M617.52 70.952L759.4 70.952L759.4 70.952L759.4 110.701L759.4 110.701L617.52 110.701z" stroke="none" fill="#FFE8CB" fill-rule="evenodd" /><path id="25" transform="matrix(1 0 0 -1 0 540)" d="M759.4 70.952L902.76 70.952L902.76 70.952L902.76 110.701L902.76 110.701L759.4 110.701z" stroke="none" fill="#FFE8CB" fill-rule="evenodd" /><path id="26" transform="matrix(1 0 0 -1 0 540)" d="M759.4 468.94L759.4 70.452" stroke="#FFFFFF" stroke-width="1" fill="none" /><path id="27" transform="matrix(1 0 0 -1 0 540)" d="M617.02 428.69L903.26 428.69" stroke="#FFFFFF" stroke-width="3" fill="none" /><path id="28" transform="matrix(1 0 0 -1 0 540)" d="M617.02 388.94L903.26 388.94" stroke="#FFFFFF" stroke-width="1" fill="none" /><path id="29" transform="matrix(1 0 0 -1 0 540)" d="M617.02 349.19L903.26 349.19" stroke="#FFFFFF" stroke-width="1" fill="none" /><path id="30" transform="matrix(1 0 0 -1 0 540)" d="M617.02 309.44L903.26 309.44" stroke="#FFFFFF" stroke-width="1" fill="none" /><path id="31" transform="matrix(1 0 0 -1 0 540)" d="M617.02 269.7L903.26 269.7" stroke="#FFFFFF" stroke-width="1" fill="none" /><path id="32" transform="matrix(1 0 0 -1 0 540)" d="M617.02 229.95L903.26 229.95" stroke="#FFFFFF" stroke-width="1" fill="none" /><path id="33" transform="matrix(1 0 0 -1 0 540)" d="M617.02 190.2L903.26 190.2" stroke="#FFFFFF" stroke-width="1" fill="none" /><path id="34" transform="matrix(1 0 0 -1 0 540)" d="M617.02 150.45L903.26 150.45" stroke="#FFFFFF" stroke-width="1" fill="none" /><path id="35" transform="matrix(1 0 0 -1 0 540)" d="M617.02 110.7L903.26 110.7" stroke="#FFFFFF" stroke-width="1" fill="none" /><path id="36" transform="matrix(1 0 0 -1 0 540)" d="M617.52 468.94L617.52 70.452" stroke="#FFFFFF" stroke-width="1" fill="none" /><path id="37" transform="matrix(1 0 0 -1 0 540)" d="M902.76 468.94L902.76 70.452" stroke="#FFFFFF" stroke-width="1" fill="none" /><path id="38" transform="matrix(1 0 0 -1 0 540)" d="M617.02 468.44L903.26 468.44" stroke="#FFFFFF" stroke-width="1" fill="none" /><path id="39" transform="matrix(1 0 0 -1 0 540)" d="M617.02 70.952L903.26 70.952" stroke="#FFFFFF" stroke-width="1" fill="none" /><g clip-path="url(#6)"><g transform="matrix(0.24 0 0 0.2411111 652.46 77.06)"><g transform="matrix(1 0 0 1 0 0)"><image x="0" y="0" xlink:href="img_04.png" width="375" height="108" /></g></g></g><g clip-path="url(#7)"><g transform="matrix(0.24 0 0 0.2411111 770.71 77.06)"><g transform="matrix(1 0 0 1 0 0)"><image x="0" y="0" xlink:href="img_05.png" width="225" height="108" /></g></g></g><g clip-path="url(#8)"><g transform="matrix(0.24 0 0 0.2411111 810.79 77.06)"><g transform="matrix(1 0 0 1 0 0)"><image x="0" y="0" xlink:href="img_06.png" width="57" height="108" /></g></g></g><g clip-path="url(#9)"><g transform="matrix(0.2405454 0 0 0.2411111 817.63 77.06)"><g transform="matrix(1 0 0 1 0 0)"><image x="0" y="0" xlink:href="img_07.png" width="110" height="108" /></g></g></g><g clip-path="url(#10)"><g transform="matrix(0.240315 0 0 0.2411111 839.35 77.06)"><g transform="matrix(1 0 0 1 0 0)"><image x="0" y="0" xlink:href="img_08.png" width="254" height="108" /></g></g></g><g clip-path="url(#11)"><g transform="matrix(0.24 0 0 0.2413333 661.46 116.806)"><g transform="matrix(1 0 0 1 0 0)"><image x="0" y="0" xlink:href="img_09.png" width="300" height="108" /></g></g></g><g clip-path="url(#12)"><g transform="matrix(0.2411932 0 0 0.2413333 794.11 116.806)"><g transform="matrix(1 0 0 1 0 0)"><image x="0" y="0" xlink:href="img_10.png" width="176" height="108" /></g></g></g><g clip-path="url(#13)"><g transform="matrix(0.2447059 0 0 0.2413333 828.07 116.806)"><g transform="matrix(1 0 0 1 0 0)"><image x="0" y="0" xlink:href="img_11.png" width="51" height="108" /></g></g></g><g clip-path="url(#14)"><g transform="matrix(0.24 0 0 0.2413333 838.39 116.806)"><g transform="matrix(1 0 0 1 0 0)"><image x="0" y="0" xlink:href="img_12.png" width="166" height="108" /></g></g></g><g clip-path="url(#15)"><g transform="matrix(0.24 0 0 0.2411111 652.46 156.58)"><g transform="matrix(1 0 0 1 0 0)"><image x="0" y="0" xlink:href="img_13.png" width="375" height="108" /></g></g></g><g clip-path="url(#16)"><g transform="matrix(0.242069 0 0 0.2411111 804.07 156.58)"><g transform="matrix(1 0 0 1 0 0)"><image x="0" y="0" xlink:href="img_14.png" width="87" height="108" /></g></g></g><g clip-path="url(#17)"><g transform="matrix(0.2447059 0 0 0.2411111 818.11 156.58)"><g transform="matrix(1 0 0 1 0 0)"><image x="0" y="0" xlink:href="img_11.png" width="51" height="108" /></g></g></g><g clip-path="url(#18)"><g transform="matrix(0.24 0 0 0.2411111 828.31 156.58)"><g transform="matrix(1 0 0 1 0 0)"><image x="0" y="0" xlink:href="img_12.png" width="166" height="108" /></g></g></g><g clip-path="url(#19)"><g transform="matrix(0.24 0 0 0.2413333 649.34 196.296)"><g transform="matrix(1 0 0 1 0 0)"><image x="0" y="0" xlink:href="img_15.png" width="225" height="108" /></g></g></g><g clip-path="url(#20)"><g transform="matrix(0.2447059 0 0 0.2413333 685.34 196.296)"><g transform="matrix(1 0 0 1 0 0)"><image x="0" y="0" xlink:href="img_11.png" width="51" height="108" /></g></g></g><g clip-path="url(#21)"><g transform="matrix(0.24 0 0 0.2413333 691.58 196.296)"><g transform="matrix(1 0 0 1 0 0)"><image x="0" y="0" xlink:href="img_16.png" width="225" height="108" /></g></g></g><g clip-path="url(#22)"><g transform="matrix(0.2406015 0 0 0.2413333 799.15 196.296)"><g transform="matrix(1 0 0 1 0 0)"><image x="0" y="0" xlink:href="img_17.png" width="133" height="108" /></g></g></g><g clip-path="url(#23)"><g transform="matrix(0.2447059 0 0 0.2413333 823.15 196.296)"><g transform="matrix(1 0 0 1 0 0)"><image x="0" y="0" xlink:href="img_11.png" width="51" height="108" /></g></g></g><g clip-path="url(#24)"><g transform="matrix(0.24 0 0 0.2413333 833.35 196.296)"><g transform="matrix(1 0 0 1 0 0)"><image x="0" y="0" xlink:href="img_18.png" width="166" height="108" /></g></g></g><g clip-path="url(#25)"><g transform="matrix(0.24 0 0 0.2411111 652.46 236.09)"><g transform="matrix(1 0 0 1 0 0)"><image x="0" y="0" xlink:href="img_19.png" width="300" height="108" /></g></g></g><g clip-path="url(#26)"><g transform="matrix(0.2447059 0 0 0.2411111 706.46 236.09)"><g transform="matrix(1 0 0 1 0 0)"><image x="0" y="0" xlink:href="img_11.png" width="51" height="108" /></g></g></g><g clip-path="url(#27)"><g transform="matrix(0.2424742 0 0 0.2411111 712.7 236.09)"><g transform="matrix(1 0 0 1 0 0)"><image x="0" y="0" xlink:href="img_20.png" width="97" height="108" /></g></g></g><g clip-path="url(#28)"><g transform="matrix(0.242069 0 0 0.2411111 809.11 236.09)"><g transform="matrix(1 0 0 1 0 0)"><image x="0" y="0" xlink:href="img_21.png" width="87" height="108" /></g></g></g><g clip-path="url(#29)"><g transform="matrix(0.2447059 0 0 0.2411111 823.15 236.09)"><g transform="matrix(1 0 0 1 0 0)"><image x="0" y="0" xlink:href="img_11.png" width="51" height="108" /></g></g></g><g clip-path="url(#30)"><g transform="matrix(0.2409677 0 0 0.2411111 833.35 236.09)"><g transform="matrix(1 0 0 1 0 0)"><image x="0" y="0" xlink:href="img_22.png" width="124" height="108" /></g></g></g><g clip-path="url(#31)"><g transform="matrix(0.24 0 0 0.2411111 670.46 275.86)"><g transform="matrix(1 0 0 1 0 0)"><image x="0" y="0" xlink:href="img_23.png" width="225" height="108" /></g></g></g><g clip-path="url(#32)"><g transform="matrix(0.2406015 0 0 0.2411111 804.07 275.86)"><g transform="matrix(1 0 0 1 0 0)"><image x="0" y="0" xlink:href="img_24.png" width="133" height="108" /></g></g></g><g clip-path="url(#33)"><g transform="matrix(0.2447059 0 0 0.2411111 828.07 275.86)"><g transform="matrix(1 0 0 1 0 0)"><image x="0" y="0" xlink:href="img_11.png" width="51" height="108" /></g></g></g><g clip-path="url(#34)"><g transform="matrix(0.2409677 0 0 0.2411111 838.27 275.86)"><g transform="matrix(1 0 0 1 0 0)"><image x="0" y="0" xlink:href="img_25.png" width="124" height="108" /></g></g></g><g clip-path="url(#35)"><g transform="matrix(0.24 0 0 0.2411111 649.34 315.6)"><g transform="matrix(1 0 0 1 0 0)"><image x="0" y="0" xlink:href="img_16.png" width="225" height="108" /></g></g></g><g clip-path="url(#36)"><g transform="matrix(0.2447059 0 0 0.2411111 685.34 315.6)"><g transform="matrix(1 0 0 1 0 0)"><image x="0" y="0" xlink:href="img_11.png" width="51" height="108" /></g></g></g><g clip-path="url(#37)"><g transform="matrix(0.24 0 0 0.2411111 691.58 315.6)"><g transform="matrix(1 0 0 1 0 0)"><image x="0" y="0" xlink:href="img_16.png" width="225" height="108" /></g></g></g><g clip-path="url(#38)"><g transform="matrix(0.242069 0 0 0.2411111 809.11 315.6)"><g transform="matrix(1 0 0 1 0 0)"><image x="0" y="0" xlink:href="img_21.png" width="87" height="108" /></g></g></g><g clip-path="url(#39)"><g transform="matrix(0.2447059 0 0 0.2411111 823.15 315.6)"><g transform="matrix(1 0 0 1 0 0)"><image x="0" y="0" xlink:href="img_11.png" width="51" height="108" /></g></g></g><g clip-path="url(#40)"><g transform="matrix(0.2409677 0 0 0.2411111 833.35 315.6)"><g transform="matrix(1 0 0 1 0 0)"><image x="0" y="0" xlink:href="img_26.png" width="124" height="108" /></g></g></g><g clip-path="url(#41)"><g transform="matrix(0.2424742 0 0 0.2411111 673.58 355.37)"><g transform="matrix(1 0 0 1 0 0)"><image x="0" y="0" xlink:href="img_20.png" width="97" height="108" /></g></g></g><g clip-path="url(#42)"><g transform="matrix(0.2447059 0 0 0.2411111 685.34 355.37)"><g transform="matrix(1 0 0 1 0 0)"><image x="0" y="0" xlink:href="img_11.png" width="51" height="108" /></g></g></g><g clip-path="url(#43)"><g transform="matrix(0.2424742 0 0 0.2411111 691.58 355.37)"><g transform="matrix(1 0 0 1 0 0)"><image x="0" y="0" xlink:href="img_20.png" width="97" height="108" /></g></g></g><g clip-path="url(#44)"><g transform="matrix(0.242069 0 0 0.2411111 809.11 355.37)"><g transform="matrix(1 0 0 1 0 0)"><image x="0" y="0" xlink:href="img_14.png" width="87" height="108" /></g></g></g><g clip-path="url(#45)"><g transform="matrix(0.2447059 0 0 0.2411111 823.15 355.37)"><g transform="matrix(1 0 0 1 0 0)"><image x="0" y="0" xlink:href="img_11.png" width="51" height="108" /></g></g></g><g clip-path="url(#46)"><g transform="matrix(0.2409677 0 0 0.2411111 833.35 355.37)"><g transform="matrix(1 0 0 1 0 0)"><image x="0" y="0" xlink:href="img_26.png" width="124" height="108" /></g></g></g><g clip-path="url(#47)"><g transform="matrix(0.24 0 0 0.2413333 652.46 395.086)"><g transform="matrix(1 0 0 1 0 0)"><image x="0" y="0" xlink:href="img_27.png" width="375" height="108" /></g></g></g><g clip-path="url(#48)"><g transform="matrix(0.2406015 0 0 0.2413333 819.19 395.086)"><g transform="matrix(1 0 0 1 0 0)"><image x="0" y="0" xlink:href="img_28.png" width="133" height="108" /></g></g></g><g clip-path="url(#49)"><g transform="matrix(0.24 0 0 0.2411111 634.46 434.88)"><g transform="matrix(1 0 0 1 0 0)"><image x="0" y="0" xlink:href="img_29.png" width="525" height="108" /></g></g></g><g clip-path="url(#50)"><g transform="matrix(0.24 0 0 0.2411111 795.19 434.88)"><g transform="matrix(1 0 0 1 0 0)"><image x="0" y="0" xlink:href="img_30.png" width="375" height="108" /></g></g></g><g clip-path="url(#51)"><g transform="matrix(0.736527 0 0 0.7365518 664.8 472.2)"><g transform="matrix(1 0 0 1 0 0)"><image x="0" y="0" xlink:href="img_31.png" width="334" height="29" /></g></g></g><g clip-path="url(#52)"><g transform="matrix(0.24 0 0 0.2411111 35.496 115.94)"><g transform="matrix(1 0 0 1 0 0)"><image x="0" y="0" xlink:href="img_32.png" width="375" height="108" /></g></g></g><g clip-path="url(#53)"><g transform="matrix(0.2400267 0 0 0.2411111 107.5 115.94)"><g transform="matrix(1 0 0 1 0 0)"><image x="0" y="0" xlink:href="img_33.png" width="1875" height="108" /></g></g></g><g clip-path="url(#54)"><g transform="matrix(0.24 0 0 0.2413333 35.496 148.316)"><g transform="matrix(1 0 0 1 0 0)"><image x="0" y="0" xlink:href="img_34.png" width="450" height="108" /></g></g></g><g clip-path="url(#55)"><g transform="matrix(0.2400278 0 0 0.2413333 125.5 148.316)"><g transform="matrix(1 0 0 1 0 0)"><image x="0" y="0" xlink:href="img_35.png" width="1800" height="108" /></g></g></g><g clip-path="url(#56)"><g transform="matrix(0.2400235 0 0 0.2411111 35.496 180.77)"><g transform="matrix(1 0 0 1 0 0)"><image x="0" y="0" xlink:href="img_36.png" width="1275" height="108" /></g></g></g><g clip-path="url(#57)"><g transform="matrix(0.2400303 0 0 0.2413333 183.29 328.106)"><g transform="matrix(1 0 0 1 0 0)"><image x="0" y="0" xlink:href="img_37.png" width="1650" height="108" /></g></g></g><g clip-path="url(#58)"><g transform="matrix(0.24 0 0 0.2411111 183.29 360.55)"><g transform="matrix(1 0 0 1 0 0)"><image x="0" y="0" xlink:href="img_38.png" width="225" height="108" /></g></g></g><g clip-path="url(#59)"><g transform="matrix(0.2400286 0 0 0.2411111 219.29 360.55)"><g transform="matrix(1 0 0 1 0 0)"><image x="0" y="0" xlink:href="img_39.png" width="1050" height="108" /></g></g></g><path id="94" transform="matrix(1 0 0 -1 0 540)" d="M176.1 207.78L176.1 154.33" stroke="#FFC000" stroke-width="2" fill="none" /><g clip-path="url(#60)"><g transform="matrix(0.24 0 0 0.2411111 36.408 342)"><g transform="matrix(1 0 0 1 0 0)"><image x="0" y="0" xlink:href="img_40.png" width="600" height="108" /></g></g></g><g clip-path="url(#61)"><g transform="matrix(0.2400444 0 0 0.2411111 35.496 276.82)"><g transform="matrix(1 0 0 1 0 0)"><image x="0" y="0" xlink:href="img_41.png" width="675" height="108" /></g></g></g><g clip-path="url(#62)"><g transform="matrix(0.24 0 0 0.2411111 179.52 276.82)"><g transform="matrix(1 0 0 1 0 0)"><image x="0" y="0" xlink:href="img_42.png" width="166" height="108" /></g></g></g><g clip-path="url(#63)"><g transform="matrix(0.2400267 0 0 0.2411111 209.4 276.82)"><g transform="matrix(1 0 0 1 0 0)"><image x="0" y="0" xlink:href="img_43.png" width="1125" height="108" /></g></g></g><g clip-path="url(#64)"><g transform="matrix(0.24 0 0 0.2413333 36.408 445.368)"><g transform="matrix(1 0 0 1 0 0)"><image x="0" y="0" xlink:href="img_44.png" width="600" height="108" /></g></g></g><g clip-path="url(#65)"><g transform="matrix(0.2403766 0 0 0.2413333 183.29 413.236)"><g transform="matrix(1 0 0 1 0 0)"><image x="0" y="0" xlink:href="img_45.png" width="239" height="108" /></g></g></g><g clip-path="url(#66)"><g transform="matrix(0.2400364 0 0 0.2413333 229.25 413.236)"><g transform="matrix(1 0 0 1 0 0)"><image x="0" y="0" xlink:href="img_46.png" width="825" height="108" /></g></g></g><g clip-path="url(#67)"><g transform="matrix(0.2447059 0 0 0.2413333 409.27 413.236)"><g transform="matrix(1 0 0 1 0 0)"><image x="0" y="0" xlink:href="img_47.png" width="51" height="108" /></g></g></g><g clip-path="url(#68)"><g transform="matrix(0.2400571 0 0 0.2413333 415.51 413.236)"><g transform="matrix(1 0 0 1 0 0)"><image x="0" y="0" xlink:href="img_48.png" width="525" height="108" /></g></g></g><g clip-path="url(#69)"><g transform="matrix(0.2400267 0 0 0.2411111 183.29 445.68)"><g transform="matrix(1 0 0 1 0 0)"><image x="0" y="0" xlink:href="img_49.png" width="1125" height="108" /></g></g></g><g clip-path="url(#70)"><g transform="matrix(0.24008 0 0 0.2411111 435.31 445.68)"><g transform="matrix(1 0 0 1 0 0)"><image x="0" y="0" xlink:href="img_50.png" width="375" height="108" /></g></g></g><g clip-path="url(#71)"><g transform="matrix(0.2400364 0 0 0.2411111 183.29 478.08)"><g transform="matrix(1 0 0 1 0 0)"><image x="0" y="0" xlink:href="img_51.png" width="825" height="108" /></g></g></g><g clip-path="url(#72)"><g transform="matrix(0.24004 0 0 0.2411111 363.31 478.08)"><g transform="matrix(1 0 0 1 0 0)"><image x="0" y="0" xlink:href="img_52.png" width="750" height="108" /></g></g></g><path id="108" transform="matrix(1 0 0 -1 0 540)" d="M176.1 123.66L176.1 36.481" stroke="#FFC000" stroke-width="2" fill="none" /><path id="109" transform="matrix(1 0 0 -1 0 540)" d="M613.38 75.42C 606.79 75.42 601.44 80.048 601.44 85.758L601.44 85.758L601.44 312.22C 601.44 317.93 596.09 322.56 589.5 322.56C 596.09 322.56 601.44 327.19 601.44 332.89L601.44 332.89L601.44 376.72C 601.44 382.43 606.79 387.06 613.38 387.06" stroke="#4472C4" stroke-width="1.75" fill="none" /><g clip-path="url(#73)"></g></g></g></svg>